# This file uses centimeters as units for non-parametric coordinates.

mtllib Square.mtl
g default
v -0.500000 -0.500000 0.500000
v 0.500000 -0.500000 0.500000
v -0.500000 0.500000 0.500000
v 0.500000 0.500000 0.500000
v -0.500000 0.500000 -0.500000
v 0.500000 0.500000 -0.500000
v -0.500000 -0.500000 -0.500000
v 0.500000 -0.500000 -0.500000
vt 0.499523 0.363160
vt 0.746517 0.362871
vt 0.499812 0.610154
vt 0.746806 0.609865
vt 0.252818 0.610442
vt 0.747095 0.856859
vt 0.499235 0.116166
vt 0.005535 0.363737
vt 0.993511 0.362582
vt 0.993800 0.609576
vt 0.252529 0.363448
vt 0.005824 0.610731
vt 0.500101 0.857148
vt 0.746229 0.115877
vn 0.000000 0.000000 1.000000
vn 0.000000 0.000000 1.000000
vn 0.000000 0.000000 1.000000
vn 0.000000 0.000000 1.000000
vn 0.000000 0.000000 1.000000
vn 0.000000 0.000000 1.000000
vn 0.000000 1.000000 0.000000
vn 0.000000 1.000000 0.000000
vn 0.000000 1.000000 0.000000
vn 0.000000 1.000000 0.000000
vn 0.000000 1.000000 0.000000
vn 0.000000 1.000000 0.000000
vn 0.000000 0.000000 -1.000000
vn 0.000000 0.000000 -1.000000
vn 0.000000 0.000000 -1.000000
vn 0.000000 0.000000 -1.000000
vn 0.000000 0.000000 -1.000000
vn 0.000000 0.000000 -1.000000
vn 0.000000 -1.000000 0.000000
vn 0.000000 -1.000000 0.000000
vn 0.000000 -1.000000 0.000000
vn 0.000000 -1.000000 0.000000
vn 0.000000 -1.000000 0.000000
vn 0.000000 -1.000000 0.000000
vn 1.000000 0.000000 0.000000
vn 1.000000 0.000000 0.000000
vn 1.000000 0.000000 0.000000
vn 1.000000 0.000000 0.000000
vn 1.000000 0.000000 0.000000
vn 1.000000 0.000000 0.000000
vn -1.000000 0.000000 0.000000
vn -1.000000 0.000000 0.000000
vn -1.000000 0.000000 0.000000
vn -1.000000 0.000000 0.000000
vn -1.000000 0.000000 0.000000
vn -1.000000 0.000000 0.000000
s off
g pCube4
usemtl initialShadingGroup
f 1/1/1 2/2/2 3/3/3
f 3/3/4 2/2/5 4/4/6
f 3/3/7 4/4/8 5/13/9
f 5/13/10 4/4/11 6/6/12
f 5/5/13 6/12/14 7/11/15
f 7/11/16 6/12/17 8/8/18
f 7/7/19 8/14/20 1/1/21
f 1/1/22 8/14/23 2/2/24
f 2/2/25 8/9/26 4/4/27
f 4/4/28 8/9/29 6/10/30
f 7/11/31 1/1/32 5/5/33
f 5/5/34 1/1/35 3/3/36
