# This file uses centimeters as units for non-parametric coordinates.

mtllib bolt.mtl
g default
v -5.208666 7.759759 3.005724
v -6.024243 7.181742 3.032730
v -6.187804 7.387377 2.494472
v -5.372227 7.965395 2.467467
v -5.242690 8.689878 3.371405
v -5.406251 8.895513 2.833147
v -6.046309 7.784959 3.269888
v -5.759665 7.988110 3.260396
v -6.873845 7.533842 3.425416
v -7.037406 7.739478 2.887158
v -5.923226 8.193746 2.722138
v -6.209870 7.990594 2.731630
v -6.092292 9.041979 3.764091
v -6.255853 9.247614 3.225833
v -5.771623 8.315011 3.388919
v -5.759665 7.988110 3.260396
v -5.923226 8.193746 2.722138
v -5.935184 8.520646 2.850661
v -6.046309 7.784959 3.269888
v -6.344912 7.908709 3.407902
v -6.907869 8.463961 3.791096
v -7.071430 8.669596 3.252838
v -6.508473 8.114344 2.869644
v -6.209871 7.990594 2.731630
v -6.070225 8.438761 3.526933
v -6.070225 8.438761 3.526933
v -6.233787 8.644397 2.988675
v -6.233787 8.644396 2.988675
v -6.356870 8.235610 3.536425
v -6.356870 8.235610 3.536425
v -6.520431 8.441245 2.998167
v -6.520431 8.441245 2.998167
v 6.077616 8.607297 3.728341
v 5.452391 8.066310 3.165823
v 5.050811 8.510290 3.185182
v 5.676036 9.051277 3.747700
v 6.044271 8.533675 4.725069
v 5.642691 8.977655 4.744428
v 5.430765 8.018562 3.812240
v 5.650508 8.208699 4.009943
v 4.793820 7.451700 3.600034
v 4.392240 7.895680 3.619393
v 5.248928 8.652679 4.029302
v 5.029185 8.462543 3.831599
v 5.385699 7.919065 5.159280
v 4.984119 8.363047 5.178639
v 5.638788 8.182824 4.360255
v 5.650508 8.208699 4.009943
v 5.248928 8.652680 4.029302
v 5.237208 8.626804 4.379614
v 5.430765 8.018562 3.812239
v 5.199302 7.802551 3.964848
v 4.760474 7.378078 4.596763
v 4.358894 7.822059 4.616122
v 4.797722 8.246531 3.984207
v 5.029185 8.462543 3.831598
v 5.407325 7.966812 4.512863
v 5.407326 7.966812 4.512864
v 5.005746 8.410793 4.532223
v 5.005746 8.410793 4.532222
v 5.187582 7.776676 4.315160
v 5.187583 7.776676 4.315160
v 4.786003 8.220656 4.334519
v 4.786003 8.220656 4.334519
v 3.537876 7.736807 -6.392930
v 3.209207 7.994364 -7.301579
v 3.302244 8.571609 -7.171612
v 3.630914 8.314053 -6.262963
v 2.895435 7.668499 -5.629646
v 2.988474 8.245745 -5.499679
v 2.792559 7.950063 -6.806559
v 2.908073 7.859542 -6.487204
v 2.238096 8.183611 -7.446941
v 2.331135 8.760857 -7.316975
v 3.001112 8.436788 -6.357237
v 2.885597 8.527308 -6.676592
v 1.924325 7.857747 -5.775008
v 2.017363 8.434993 -5.645041
v 2.682281 7.835534 -6.218938
v 2.908073 7.859542 -6.487204
v 3.001112 8.436788 -6.357237
v 2.775319 8.412780 -6.088971
v 2.792559 7.950063 -6.806559
v 2.451251 8.016577 -6.857649
v 1.595656 8.115303 -6.683657
v 1.688694 8.692549 -6.553689
v 2.544289 8.593822 -6.727682
v 2.885597 8.527308 -6.676592
v 2.340972 7.902048 -6.270028
v 2.340972 7.902047 -6.270028
v 2.434011 8.479293 -6.140061
v 2.434011 8.479293 -6.140061
v 2.225457 7.992568 -6.589383
v 2.225457 7.992568 -6.589383
v 2.318496 8.569814 -6.459416
v 2.318496 8.569814 -6.459416
vt 0.375000 0.312500
vt 0.416667 0.312500
vt 0.416667 0.688440
vt 0.375000 0.688440
vt 0.583333 0.312500
vt 0.625000 0.312500
vt 0.625000 0.688440
vt 0.583333 0.688440
vt 0.472542 0.104638
vt 0.421875 0.020934
vt 0.578125 0.020934
vt 0.527458 0.104638
vt 0.458333 0.312500
vt 0.458333 0.688440
vt 0.527458 0.887255
vt 0.578125 0.979066
vt 0.421875 0.979066
vt 0.472542 0.887255
vt 0.541667 0.312500
vt 0.541667 0.688440
vt 0.656250 0.156250
vt 0.554916 0.152197
vt 0.527458 0.104638
vt 0.656250 0.843750
vt 0.527458 0.887255
vt 0.554916 0.839697
vt 0.343750 0.156250
vt 0.472542 0.104638
vt 0.445084 0.152197
vt 0.500000 0.312500
vt 0.500000 0.688440
vt 0.343750 0.843750
vt 0.445084 0.839697
vt 0.472542 0.887255
vt 0.578125 0.291566
vt 0.527458 0.199755
vt 0.527458 0.199755
vt 0.578125 0.708434
vt 0.527458 0.792138
vt 0.527458 0.792138
vt 0.421875 0.291566
vt 0.472542 0.199755
vt 0.472542 0.199755
vt 0.421875 0.708434
vt 0.472542 0.792138
vt 0.472542 0.792138
vt 0.416667 0.340300
vt 0.416667 0.340300
vt 0.375000 0.340300
vt 0.375000 0.340300
vt 0.375000 0.660640
vt 0.375000 0.660640
vt 0.416667 0.660640
vt 0.416667 0.660640
vt 0.458333 0.340300
vt 0.458333 0.660640
vt 0.625000 0.340300
vt 0.583333 0.340300
vt 0.583333 0.660640
vt 0.625000 0.660640
vt 0.500000 0.340300
vt 0.500000 0.660640
vt 0.541667 0.340300
vt 0.541667 0.660640
vt 0.541667 0.340300
vt 0.500000 0.340300
vt 0.500000 0.660640
vt 0.541667 0.660640
vt 0.375000 0.312500
vt 0.416667 0.312500
vt 0.416667 0.688440
vt 0.375000 0.688440
vt 0.583333 0.312500
vt 0.625000 0.312500
vt 0.625000 0.688440
vt 0.583333 0.688440
vt 0.472542 0.104638
vt 0.421875 0.020934
vt 0.578125 0.020934
vt 0.527458 0.104638
vt 0.458333 0.312500
vt 0.458333 0.688440
vt 0.527458 0.887255
vt 0.578125 0.979066
vt 0.421875 0.979066
vt 0.472542 0.887255
vt 0.541667 0.312500
vt 0.541667 0.688440
vt 0.656250 0.156250
vt 0.554916 0.152197
vt 0.527458 0.104638
vt 0.656250 0.843750
vt 0.527458 0.887255
vt 0.554916 0.839697
vt 0.343750 0.156250
vt 0.472542 0.104638
vt 0.445084 0.152197
vt 0.500000 0.312500
vt 0.500000 0.688440
vt 0.343750 0.843750
vt 0.445084 0.839697
vt 0.472542 0.887255
vt 0.578125 0.291566
vt 0.527458 0.199755
vt 0.527458 0.199755
vt 0.578125 0.708434
vt 0.527458 0.792138
vt 0.527458 0.792138
vt 0.421875 0.291566
vt 0.472542 0.199755
vt 0.472542 0.199755
vt 0.421875 0.708434
vt 0.472542 0.792138
vt 0.472542 0.792138
vt 0.416667 0.340300
vt 0.416667 0.340300
vt 0.375000 0.340300
vt 0.375000 0.340300
vt 0.375000 0.660640
vt 0.375000 0.660640
vt 0.416667 0.660640
vt 0.416667 0.660640
vt 0.458333 0.340300
vt 0.458333 0.660640
vt 0.625000 0.340300
vt 0.583333 0.340300
vt 0.583333 0.660640
vt 0.625000 0.660640
vt 0.500000 0.340300
vt 0.500000 0.660640
vt 0.541667 0.340300
vt 0.541667 0.660640
vt 0.541667 0.340300
vt 0.500000 0.340300
vt 0.500000 0.660640
vt 0.541667 0.660640
vt 0.375000 0.312500
vt 0.416667 0.312500
vt 0.416667 0.688440
vt 0.375000 0.688440
vt 0.583333 0.312500
vt 0.625000 0.312500
vt 0.625000 0.688440
vt 0.583333 0.688440
vt 0.472542 0.104638
vt 0.421875 0.020934
vt 0.578125 0.020934
vt 0.527458 0.104638
vt 0.458333 0.312500
vt 0.458333 0.688440
vt 0.527458 0.887255
vt 0.578125 0.979066
vt 0.421875 0.979066
vt 0.472542 0.887255
vt 0.541667 0.312500
vt 0.541667 0.688440
vt 0.656250 0.156250
vt 0.554916 0.152197
vt 0.527458 0.104638
vt 0.656250 0.843750
vt 0.527458 0.887255
vt 0.554916 0.839697
vt 0.343750 0.156250
vt 0.472542 0.104638
vt 0.445084 0.152197
vt 0.500000 0.312500
vt 0.500000 0.688440
vt 0.343750 0.843750
vt 0.445084 0.839697
vt 0.472542 0.887255
vt 0.578125 0.291566
vt 0.527458 0.199755
vt 0.527458 0.199755
vt 0.578125 0.708434
vt 0.527458 0.792138
vt 0.527458 0.792138
vt 0.421875 0.291566
vt 0.472542 0.199755
vt 0.472542 0.199755
vt 0.421875 0.708434
vt 0.472542 0.792138
vt 0.472542 0.792138
vt 0.416667 0.340300
vt 0.416667 0.340300
vt 0.375000 0.340300
vt 0.375000 0.340300
vt 0.375000 0.660640
vt 0.375000 0.660640
vt 0.416667 0.660640
vt 0.416667 0.660640
vt 0.458333 0.340300
vt 0.458333 0.660640
vt 0.625000 0.340300
vt 0.583333 0.340300
vt 0.583333 0.660640
vt 0.625000 0.660640
vt 0.500000 0.340300
vt 0.500000 0.660640
vt 0.541667 0.340300
vt 0.541667 0.660640
vt 0.541667 0.340300
vt 0.500000 0.340300
vt 0.500000 0.660640
vt 0.541667 0.660640
vn 0.510160 -0.740290 -0.437844
vn 0.510162 -0.740290 -0.437843
vn 0.510161 -0.740290 -0.437844
vn 0.510162 -0.740289 -0.437843
vn 0.961392 0.130432 -0.242309
vn 0.961391 0.130433 -0.242309
vn 0.961392 0.130433 -0.242309
vn 0.961391 0.130434 -0.242309
vn 0.273073 -0.343318 0.898646
vn 0.273073 -0.343318 0.898645
vn 0.273074 -0.343318 0.898645
vn 0.273074 -0.343318 0.898646
vn -0.451229 -0.870724 -0.195533
vn -0.451230 -0.870723 -0.195533
vn -0.451230 -0.870723 -0.195533
vn -0.451231 -0.870722 -0.195534
vn -0.273072 0.343318 -0.898646
vn -0.273073 0.343318 -0.898646
vn -0.273073 0.343318 -0.898646
vn -0.273073 0.343318 -0.898646
vn 0.451230 0.870723 0.195533
vn 0.451230 0.870723 0.195533
vn 0.451230 0.870723 0.195533
vn 0.451230 0.870723 0.195533
vn 0.273074 -0.343316 0.898646
vn 0.273073 -0.343318 0.898646
vn 0.273073 -0.343318 0.898646
vn 0.000000 0.000000 0.000000
vn -0.273073 0.343318 -0.898646
vn -0.273073 0.343318 -0.898646
vn 0.000000 0.502549 -0.864549
vn 0.273073 -0.343318 0.898646
vn 0.273073 -0.343318 0.898646
vn -0.961392 -0.130432 0.242309
vn -0.961391 -0.130434 0.242309
vn -0.961392 -0.130433 0.242309
vn -0.961391 -0.130434 0.242310
vn -0.273072 0.343318 -0.898646
vn -0.273073 0.343318 -0.898646
vn -0.273073 0.343317 -0.898646
vn -0.510162 0.740289 0.437843
vn -0.510162 0.740290 0.437842
vn -0.510162 0.740289 0.437843
vn -0.510162 0.740290 0.437841
vn 0.000000 0.000000 0.000000
vn 0.273073 -0.343318 0.898646
vn 0.273073 -0.343317 0.898646
vn -0.273072 0.343317 -0.898646
vn -0.273073 0.343317 -0.898646
vn -0.273074 0.343317 -0.898646
vn 0.273073 -0.343317 0.898646
vn 0.273073 -0.343317 0.898646
vn 0.273072 -0.343318 0.898646
vn 0.000000 0.000000 0.000000
vn -0.273073 0.343318 -0.898646
vn -0.273073 0.343317 -0.898646
vn 0.000000 0.000000 1.000000
vn -0.510162 0.740290 0.437843
vn -0.510162 0.740288 0.437844
vn 0.000000 0.000000 0.000000
vn -0.510163 0.740288 0.437844
vn 0.000000 0.000000 0.000000
vn -0.510162 0.740289 0.437843
vn 0.000000 0.072469 0.997371
vn 0.451229 0.870723 0.195534
vn 0.451229 0.870723 0.195534
vn 0.451229 0.870723 0.195534
vn 0.451229 0.870723 0.195533
vn -0.961392 -0.130430 0.242310
vn -0.961392 -0.130430 0.242310
vn -0.961392 -0.130430 0.242310
vn -0.961392 -0.130430 0.242310
vn 0.961392 0.130430 -0.242310
vn 0.961392 0.130429 -0.242310
vn 0.961392 0.130429 -0.242310
vn 0.961392 0.130429 -0.242310
vn -0.451228 -0.870724 -0.195532
vn -0.451229 -0.870723 -0.195533
vn -0.451230 -0.870723 -0.195533
vn -0.451231 -0.870722 -0.195533
vn 0.963890 0.000000 -0.266300
vn 0.510161 -0.740290 -0.437843
vn 0.510163 -0.740289 -0.437842
vn 0.000000 0.000000 0.000000
vn 0.510161 -0.740291 -0.437842
vn 0.000000 0.000000 0.000000
vn 0.510161 -0.740290 -0.437843
vn 0.000000 0.000000 0.000000
vn 0.399479 0.397351 -0.826153
vn 0.399479 0.397351 -0.826153
vn 0.399479 0.397351 -0.826153
vn 0.399479 0.397351 -0.826153
vn 0.741200 0.667185 0.074078
vn 0.741200 0.667185 0.074077
vn 0.741200 0.667185 0.074078
vn 0.741200 0.667184 0.074077
vn 0.670455 -0.741246 -0.032323
vn 0.670455 -0.741246 -0.032321
vn 0.670456 -0.741245 -0.032321
vn 0.670456 -0.741245 -0.032321
vn -0.341722 -0.269834 -0.900231
vn -0.341722 -0.269834 -0.900231
vn -0.341722 -0.269834 -0.900231
vn -0.341721 -0.269834 -0.900231
vn -0.670455 0.741246 0.032321
vn -0.670455 0.741246 0.032321
vn -0.670455 0.741246 0.032320
vn -0.670455 0.741246 0.032322
vn 0.341723 0.269833 0.900231
vn 0.341721 0.269834 0.900231
vn 0.341722 0.269833 0.900231
vn 0.341720 0.269834 0.900232
vn 0.670456 -0.741245 -0.032321
vn 0.670456 -0.741245 -0.032322
vn 0.670456 -0.741245 -0.032321
vn 1.000000 0.000000 0.000000
vn -0.670455 0.741246 0.032321
vn -0.670455 0.741246 0.032321
vn -0.293616 0.718220 0.630833
vn 0.670455 -0.741246 -0.032321
vn 0.670455 -0.741246 -0.032321
vn -0.741199 -0.667186 -0.074078
vn -0.741200 -0.667184 -0.074078
vn -0.741199 -0.667185 -0.074078
vn -0.741201 -0.667184 -0.074078
vn -0.670455 0.741246 0.032323
vn -0.670456 0.741245 0.032321
vn -0.670456 0.741245 0.032319
vn -0.399478 -0.397351 0.826153
vn -0.399478 -0.397351 0.826154
vn -0.399478 -0.397351 0.826154
vn -0.399477 -0.397351 0.826154
vn -0.930468 0.344922 0.123521
vn 0.670455 -0.741246 -0.032320
vn 0.670456 -0.741245 -0.032321
vn -0.670456 0.741245 0.032321
vn -0.670456 0.741245 0.032321
vn -0.670455 0.741246 0.032320
vn 0.670456 -0.741245 -0.032321
vn 0.670455 -0.741246 -0.032321
vn 0.670455 -0.741246 -0.032322
vn 0.000000 0.000000 0.000000
vn -0.670455 0.741246 0.032319
vn -0.670456 0.741245 0.032321
vn -0.796830 -0.604203 0.000000
vn -0.399478 -0.397349 0.826154
vn -0.399479 -0.397353 0.826152
vn 1.000000 0.000000 0.000000
vn -0.399478 -0.397351 0.826154
vn 0.000000 0.000000 0.000000
vn -0.399478 -0.397348 0.826155
vn -0.566746 -0.819583 -0.084161
vn 0.341721 0.269833 0.900232
vn 0.341722 0.269833 0.900231
vn 0.341722 0.269833 0.900231
vn 0.341723 0.269834 0.900231
vn -0.741200 -0.667185 -0.074078
vn -0.741200 -0.667184 -0.074079
vn -0.741200 -0.667184 -0.074080
vn -0.741200 -0.667184 -0.074081
vn 0.741201 0.667184 0.074076
vn 0.741200 0.667184 0.074076
vn 0.741200 0.667185 0.074077
vn 0.741200 0.667185 0.074077
vn -0.341720 -0.269834 -0.900232
vn -0.341720 -0.269834 -0.900232
vn -0.341720 -0.269834 -0.900232
vn -0.341720 -0.269833 -0.900232
vn 0.000000 1.000000 0.000000
vn 0.399481 0.397350 -0.826153
vn 0.399478 0.397351 -0.826153
vn 0.000000 0.000000 0.000000
vn 0.399476 0.397351 -0.826154
vn 0.000000 0.000000 -0.000000
vn 0.399479 0.397350 -0.826153
vn -0.727482 -0.269675 0.630908
vn 0.931584 -0.069826 -0.356757
vn 0.931584 -0.069824 -0.356757
vn 0.931584 -0.069825 -0.356757
vn 0.931584 -0.069824 -0.356757
vn 0.750428 -0.257963 0.608533
vn 0.750428 -0.257963 0.608534
vn 0.750428 -0.257963 0.608533
vn 0.750428 -0.257962 0.608534
vn -0.155330 -0.963737 -0.216986
vn -0.155331 -0.963737 -0.216986
vn -0.155331 -0.963737 -0.216985
vn -0.155331 -0.963737 -0.216986
vn 0.181156 0.188137 -0.965291
vn 0.181156 0.188137 -0.965291
vn 0.181156 0.188137 -0.965291
vn 0.181156 0.188137 -0.965291
vn 0.155332 0.963737 0.216985
vn 0.155331 0.963737 0.216987
vn 0.155331 0.963737 0.216987
vn 0.155331 0.963737 0.216986
vn -0.181156 -0.188138 0.965291
vn -0.181155 -0.188138 0.965291
vn -0.181155 -0.188138 0.965291
vn -0.181155 -0.188138 0.965291
vn -0.155331 -0.963737 -0.216987
vn -0.155331 -0.963737 -0.216988
vn -0.155332 -0.963737 -0.216987
vn 0.000000 -0.892384 0.451278
vn 0.155331 0.963737 0.216987
vn 0.155331 0.963737 0.216986
vn -0.011266 0.317730 0.948115
vn -0.155331 -0.963737 -0.216986
vn -0.155330 -0.963738 -0.216985
vn -0.750428 0.257962 -0.608534
vn -0.750428 0.257962 -0.608534
vn -0.750428 0.257962 -0.608534
vn -0.750427 0.257962 -0.608535
vn 0.155332 0.963738 0.216984
vn 0.155330 0.963737 0.216985
vn 0.155331 0.963737 0.216985
vn -0.931584 0.069824 0.356757
vn -0.931584 0.069824 0.356756
vn -0.931584 0.069824 0.356757
vn -0.931584 0.069824 0.356756
vn -0.000000 0.000000 0.000000
vn -0.155331 -0.963738 -0.216982
vn -0.155331 -0.963737 -0.216986
vn 0.155332 0.963737 0.216985
vn 0.155331 0.963737 0.216985
vn 0.155330 0.963737 0.216985
vn -0.155331 -0.963737 -0.216986
vn -0.155331 -0.963737 -0.216985
vn -0.155331 -0.963737 -0.216989
vn 0.000000 -0.000000 0.000000
vn 0.155332 0.963736 0.216989
vn 0.155331 0.963737 0.216985
vn 0.000000 0.000000 0.000000
vn -0.931584 0.069826 0.356758
vn -0.931584 0.069825 0.356758
vn 0.000000 -0.892384 -0.451278
vn -0.931584 0.069825 0.356758
vn 0.000000 0.000000 0.000000
vn -0.931584 0.069825 0.356757
vn -0.910528 0.413448 0.000000
vn -0.181159 -0.188138 0.965290
vn -0.181158 -0.188138 0.965291
vn -0.181157 -0.188138 0.965291
vn -0.181157 -0.188138 0.965291
vn -0.750430 0.257963 -0.608531
vn -0.750430 0.257962 -0.608531
vn -0.750430 0.257962 -0.608532
vn -0.750430 0.257962 -0.608532
vn 0.750428 -0.257962 0.608533
vn 0.750429 -0.257962 0.608533
vn 0.750429 -0.257962 0.608532
vn 0.750430 -0.257962 0.608531
vn 0.181156 0.188138 -0.965291
vn 0.181157 0.188138 -0.965291
vn 0.181158 0.188138 -0.965291
vn 0.181158 0.188138 -0.965291
vn 0.000000 -1.000000 0.000000
vn 0.931584 -0.069826 -0.356758
vn 0.931584 -0.069826 -0.356757
vn 0.000000 0.000000 0.000000
vn 0.931584 -0.069826 -0.356758
vn 0.000000 0.000000 0.000000
vn 0.931583 -0.069826 -0.356759
vn -0.643091 0.000000 0.765790
s 1
g pCylinder6
usemtl lambert9SG
f 1/1/1 2/2/2 4/4/3
f 4/4/3 2/2/2 3/3/4
s 2
f 5/5/5 1/6/6 6/8/7
f 6/8/7 1/6/6 4/7/8
s 3
f 7/9/9 2/10/10 8/12/11
f 8/12/11 2/10/10 1/11/12
s 4
f 2/2/13 9/13/14 3/3/15
f 3/3/15 9/13/14 10/14/16
s 5
f 11/15/17 4/16/18 12/18/19
f 12/18/19 4/16/18 3/17/20
s 6
f 13/19/21 5/5/22 14/20/23
f 14/20/23 5/5/22 6/8/24
s 3
f 8/12/11 1/11/12 16/23/25
f 5/21/26 15/22/27 1/11/12
f 1/11/12 15/22/27 16/23/25
s 5
f 17/25/28 18/26/29 11/15/17
f 6/24/30 4/16/18 18/26/29
f 4/16/18 11/15/17 18/26/29
s 3
f 19/28/31 20/29/32 7/9/9
f 9/27/33 2/10/10 20/29/32
f 2/10/10 7/9/9 20/29/32
s 8
f 9/13/34 21/30/35 10/14/36
f 10/14/36 21/30/35 22/31/37
s 5
f 12/18/19 3/17/20 24/34/38
f 3/17/20 10/32/39 24/34/38
f 10/32/39 23/33/40 24/34/38
s 9
f 21/30/41 13/19/42 22/31/43
f 22/31/43 13/19/42 14/20/44
s 3
f 26/37/45 15/22/27 25/36/46
f 5/21/26 13/35/47 15/22/27
f 13/35/47 25/36/46 15/22/27
s 5
f 28/40/48 14/38/49 27/39/50
f 14/38/49 6/24/30 27/39/50
f 6/24/30 18/26/29 27/39/50
s 3
f 30/43/51 21/41/52 29/42/53
f 9/27/33 20/29/32 21/41/52
f 21/41/52 20/29/32 29/42/53
s 5
f 32/46/54 23/33/40 31/45/55
f 10/32/39 22/44/56 23/33/40
f 22/44/56 31/45/55 23/33/40
s 3
f 25/36/46 13/35/47 30/43/51
f 30/43/51 13/35/47 21/41/52
s 5
f 31/45/55 22/44/56 28/40/48
f 28/40/48 22/44/56 14/38/49
s 14
f 24/54/57 19/47/58 12/53/59
f 11/52/60 12/53/59 17/51/61
f 16/50/62 17/51/61 8/49/63
f 7/48/64 8/49/63 19/47/58
f 19/47/58 8/49/63 12/53/59
f 8/49/63 17/51/61 12/53/59
s 16
f 20/55/65 19/47/66 23/56/67
f 23/56/67 19/47/66 24/54/68
s 17
f 16/57/69 15/58/70 17/60/71
f 17/60/71 15/58/70 18/59/72
s 18
f 29/61/73 20/55/74 32/62/75
f 32/62/75 20/55/74 23/56/76
s 19
f 15/58/77 26/63/78 18/59/79
f 18/59/79 26/63/78 27/64/80
s 20
f 27/64/81 26/63/82 28/68/83
f 31/67/84 28/68/83 32/62/85
f 29/61/86 32/62/85 30/66/87
f 25/65/88 30/66/87 26/63/82
f 26/63/82 30/66/87 28/68/83
f 30/66/87 32/62/85 28/68/83
s 22
f 33/69/89 34/70/90 36/72/91
f 36/72/91 34/70/90 35/71/92
s 23
f 37/73/93 33/74/94 38/76/95
f 38/76/95 33/74/94 36/75/96
s 24
f 39/77/97 34/78/98 40/80/99
f 40/80/99 34/78/98 33/79/100
s 25
f 34/70/101 41/81/102 35/71/103
f 35/71/103 41/81/102 42/82/104
s 26
f 43/83/105 36/84/106 44/86/107
f 44/86/107 36/84/106 35/85/108
s 27
f 45/87/109 37/73/110 46/88/111
f 46/88/111 37/73/110 38/76/112
s 24
f 40/80/99 33/79/100 48/91/113
f 37/89/114 47/90/115 33/79/100
f 33/79/100 47/90/115 48/91/113
s 26
f 49/93/116 50/94/117 43/83/105
f 38/92/118 36/84/106 50/94/117
f 36/84/106 43/83/105 50/94/117
s 24
f 51/96/119 52/97/120 39/77/97
f 41/95/121 34/78/98 52/97/120
f 34/78/98 39/77/97 52/97/120
s 29
f 41/81/122 53/98/123 42/82/124
f 42/82/124 53/98/123 54/99/125
s 26
f 44/86/107 35/85/108 56/102/126
f 35/85/108 42/100/127 56/102/126
f 42/100/127 55/101/128 56/102/126
s 30
f 53/98/129 45/87/130 54/99/131
f 54/99/131 45/87/130 46/88/132
s 24
f 58/105/133 47/90/115 57/104/134
f 37/89/114 45/103/135 47/90/115
f 45/103/135 57/104/134 47/90/115
s 26
f 60/108/136 46/106/137 59/107/138
f 46/106/137 38/92/118 59/107/138
f 38/92/118 50/94/117 59/107/138
s 24
f 62/111/139 53/109/140 61/110/141
f 53/109/140 41/95/121 61/110/141
f 41/95/121 52/97/120 61/110/141
s 26
f 64/114/142 55/101/128 63/113/143
f 42/100/127 54/112/144 55/101/128
f 54/112/144 63/113/143 55/101/128
s 24
f 57/104/134 45/103/135 62/111/139
f 62/111/139 45/103/135 53/109/140
s 26
f 63/113/143 54/112/144 60/108/136
f 60/108/136 54/112/144 46/106/137
s 35
f 56/122/145 51/115/146 44/121/147
f 43/120/148 44/121/147 49/119/149
f 48/118/150 49/119/149 40/117/151
f 39/116/152 40/117/151 51/115/146
f 40/117/151 49/119/149 51/115/146
f 51/115/146 49/119/149 44/121/147
s 37
f 52/123/153 51/115/154 55/124/155
f 55/124/155 51/115/154 56/122/156
s 38
f 48/125/157 47/126/158 49/128/159
f 49/128/159 47/126/158 50/127/160
s 39
f 61/129/161 52/123/162 64/130/163
f 64/130/163 52/123/162 55/124/164
s 40
f 47/126/165 58/131/166 50/127/167
f 50/127/167 58/131/166 59/132/168
s 41
f 59/132/169 58/131/170 60/136/171
f 63/135/172 60/136/171 64/130/173
f 61/129/174 64/130/173 62/134/175
f 57/133/176 62/134/175 58/131/170
f 58/131/170 62/134/175 60/136/171
f 62/134/175 64/130/173 60/136/171
s 43
f 65/137/177 66/138/178 68/140/179
f 68/140/179 66/138/178 67/139/180
s 44
f 69/141/181 65/142/182 70/144/183
f 70/144/183 65/142/182 68/143/184
s 45
f 71/145/185 66/146/186 72/148/187
f 72/148/187 66/146/186 65/147/188
s 46
f 66/138/189 73/149/190 67/139/191
f 67/139/191 73/149/190 74/150/192
s 47
f 75/151/193 68/152/194 76/154/195
f 76/154/195 68/152/194 67/153/196
s 48
f 77/155/197 69/141/198 78/156/199
f 78/156/199 69/141/198 70/144/200
s 45
f 72/148/187 65/147/188 80/159/201
f 65/147/188 69/157/202 80/159/201
f 69/157/202 79/158/203 80/159/201
s 47
f 81/161/204 82/162/205 75/151/193
f 70/160/206 68/152/194 82/162/205
f 68/152/194 75/151/193 82/162/205
s 45
f 83/164/207 84/165/208 71/145/185
f 73/163/209 66/146/186 84/165/208
f 66/146/186 71/145/185 84/165/208
s 49
f 73/149/210 85/166/211 74/150/212
f 74/150/212 85/166/211 86/167/213
s 47
f 76/154/195 67/153/196 88/170/214
f 74/168/215 87/169/216 67/153/196
f 67/153/196 87/169/216 88/170/214
s 51
f 85/166/217 77/155/218 86/167/219
f 86/167/219 77/155/218 78/156/220
s 45
f 90/173/221 79/158/203 89/172/222
f 69/157/202 77/171/223 79/158/203
f 77/171/223 89/172/222 79/158/203
s 47
f 92/176/224 78/174/225 91/175/226
f 78/174/225 70/160/206 91/175/226
f 70/160/206 82/162/205 91/175/226
s 45
f 94/179/227 85/177/228 93/178/229
f 73/163/209 84/165/208 85/177/228
f 85/177/228 84/165/208 93/178/229
s 47
f 96/182/230 87/169/216 95/181/231
f 74/168/215 86/180/232 87/169/216
f 86/180/232 95/181/231 87/169/216
s 45
f 89/172/222 77/171/223 94/179/227
f 94/179/227 77/171/223 85/177/228
s 47
f 95/181/231 86/180/232 92/176/224
f 92/176/224 86/180/232 78/174/225
s 56
f 88/190/233 83/183/234 76/189/235
f 75/188/236 76/189/235 81/187/237
f 80/186/238 81/187/237 72/185/239
f 71/184/240 72/185/239 83/183/234
f 72/185/239 81/187/237 83/183/234
f 83/183/234 81/187/237 76/189/235
s 58
f 84/191/241 83/183/242 87/192/243
f 87/192/243 83/183/242 88/190/244
s 59
f 80/193/245 79/194/246 81/196/247
f 81/196/247 79/194/246 82/195/248
s 60
f 93/197/249 84/191/250 96/198/251
f 96/198/251 84/191/250 87/192/252
s 61
f 79/194/253 90/199/254 82/195/255
f 82/195/255 90/199/254 91/200/256
s 62
f 91/200/257 90/199/258 92/204/259
f 95/203/260 92/204/259 96/198/261
f 93/197/262 96/198/261 94/202/263
f 89/201/264 94/202/263 90/199/258
f 94/202/263 96/198/261 90/199/258
f 90/199/258 96/198/261 92/204/259
