# This file uses centimeters as units for non-parametric coordinates.

mtllib dazzle.mtl
g default
v 6.536034 7.497427 -4.374329
v 6.052022 7.497427 -4.305580
v 6.588971 7.185503 -4.001643
v 6.104959 7.185503 -3.932893
v 5.355992 7.497427 -0.378814
v 4.890741 7.497427 -0.528932
v 5.240402 7.185503 -0.020573
v 4.775151 7.185503 -0.170691
v 5.646655 8.979712 -2.760150
v 4.416208 8.979712 -3.164413
v 5.335374 8.153337 -1.812712
v 4.104928 8.153337 -2.216975
v 3.961935 7.497466 -5.631532
v 3.780772 7.497440 -6.085596
v 3.612354 7.185491 -5.492037
v 3.431191 7.185465 -5.946101
v -0.310841 8.175412 -5.770032
v -0.467439 8.062943 -4.705056
v 0.758035 8.092884 -5.621577
v 0.601438 7.980415 -4.556601
v -2.188324 6.874201 -5.427870
v -2.137384 6.558005 -4.799892
v -1.495523 6.789454 -5.526740
v -1.444583 6.473258 -4.898763
v -4.069969 8.396938 -4.616871
v -3.069969 8.396938 -4.616871
v -4.069969 7.758888 -5.386866
v -3.069969 7.758888 -5.386866
v -5.846596 8.396938 -1.552065
v -6.767119 8.396938 -1.942755
v -6.147425 7.758888 -0.843268
v -7.067948 7.758888 -1.233957
v -4.741633 7.497466 -2.798428
v -5.154460 7.497440 -2.536572
v -4.540015 7.185491 -2.480598
v -4.952842 7.185465 -2.218743
v -7.772355 7.497427 1.159177
v -7.615455 7.497427 1.622184
v -7.415842 7.185503 1.038364
v -7.258942 7.185503 1.501372
v -5.921690 7.497427 4.652092
v -5.764790 7.497427 5.115100
v -5.565176 7.185503 4.531280
v -5.408276 7.185503 4.994288
v -2.636924 8.227526 5.531758
v -3.543108 8.117506 5.123437
v -3.021132 8.038321 6.435409
v -3.927316 7.928301 6.027089
v -0.804812 8.559813 6.969597
v 0.195188 8.559813 6.969597
v -0.804812 7.901360 6.216974
v 0.195188 7.901360 6.216974
v 0.264089 7.455892 5.015890
v 0.073841 7.360583 4.575759
v -0.156365 7.322348 5.226551
v -0.346613 7.227039 4.786420
v 2.786087 7.660491 5.113607
v 3.232578 7.660491 4.218819
v 2.097105 7.022440 4.769812
v 2.543596 7.022440 3.875023
v 3.577977 7.497427 6.177889
v 3.796253 7.497427 5.740455
v 3.241154 7.185503 6.009818
v 3.459430 7.185503 5.572383
v 5.712085 7.497427 2.491262
v 5.930361 7.497427 2.053827
v 5.375263 7.185503 2.323191
v 5.593539 7.185503 1.885756
vt 0.000000 0.000000
vt 1.000000 0.000000
vt 0.000000 1.000000
vt 1.000000 1.000000
vt 0.000000 0.000000
vt 1.000000 0.000000
vt 1.000000 1.000000
vt 0.000000 1.000000
vt 0.000000 0.000000
vt 1.000000 0.000000
vt 1.000000 1.000000
vt 0.000000 1.000000
vt 0.000000 0.000000
vt 1.000000 0.000000
vt 1.000000 1.000000
vt 0.000000 1.000000
vt 0.000000 0.000000
vt 1.000000 0.000000
vt 1.000000 1.000000
vt 0.000000 1.000000
vt 0.000000 0.000000
vt 1.000000 0.000000
vt 1.000000 1.000000
vt 0.000000 1.000000
vt 0.000000 0.000000
vt 1.000000 0.000000
vt 1.000000 1.000000
vt 0.000000 1.000000
vt 0.000000 0.000000
vt 1.000000 0.000000
vt 1.000000 1.000000
vt 0.000000 1.000000
vt 0.000000 0.000000
vt 1.000000 0.000000
vt 1.000000 1.000000
vt 0.000000 1.000000
vt 0.000000 0.000000
vt 1.000000 0.000000
vt 1.000000 1.000000
vt 0.000000 1.000000
vt 0.000000 0.000000
vt 1.000000 0.000000
vt 1.000000 1.000000
vt 0.000000 1.000000
vt 0.000000 0.000000
vt 1.000000 0.000000
vt 1.000000 1.000000
vt 0.000000 1.000000
vt 0.000000 0.000000
vt 1.000000 0.000000
vt 1.000000 1.000000
vt 0.000000 1.000000
vt 0.000000 0.000000
vt 1.000000 0.000000
vt 1.000000 1.000000
vt 0.000000 1.000000
vt 0.000000 0.000000
vt 1.000000 0.000000
vt 1.000000 1.000000
vt 0.000000 1.000000
vt 0.000000 0.000000
vt 1.000000 0.000000
vt 1.000000 1.000000
vt 0.000000 1.000000
vt 0.000000 0.000000
vt 1.000000 0.000000
vt 1.000000 1.000000
vt 0.000000 1.000000
vn 0.089729 0.769994 0.631710
vn 0.089728 0.769994 0.631711
vn 0.089728 0.769994 0.631711
vn 0.089728 0.769993 0.631711
vn -0.195927 0.769994 0.607225
vn -0.195927 0.769994 0.607224
vn -0.195927 0.769994 0.607224
vn -0.195927 0.769994 0.607224
vn -0.199158 0.769995 0.606171
vn -0.199158 0.769995 0.606171
vn -0.199158 0.769995 0.606171
vn -0.199158 0.769995 0.606172
vn -0.592736 0.769908 0.236446
vn -0.592736 0.769908 0.236446
vn -0.592736 0.769908 0.236446
vn -0.592736 0.769908 0.236446
vn 0.060779 0.991659 0.113661
vn 0.060779 0.991659 0.113663
vn 0.060779 0.991659 0.113663
vn 0.060779 0.991659 0.113664
vn 0.170007 0.885637 0.432140
vn 0.170007 0.885637 0.432141
vn 0.170007 0.885637 0.432141
vn 0.170007 0.885637 0.432141
vn 0.000000 0.769995 -0.638050
vn 0.000000 0.769995 -0.638050
vn 0.000000 0.769995 -0.638050
vn 0.000000 0.769995 -0.638050
vn -0.249279 0.769994 0.587340
vn -0.249279 0.769995 0.587339
vn -0.249279 0.769995 0.587339
vn -0.249279 0.769995 0.587339
vn 0.341783 0.769908 0.538912
vn 0.341783 0.769908 0.538913
vn 0.341783 0.769908 0.538913
vn 0.341782 0.769907 0.538914
vn 0.604298 0.769994 -0.204778
vn 0.604297 0.769994 -0.204779
vn 0.604297 0.769994 -0.204779
vn 0.604297 0.769994 -0.204779
vn 0.604297 0.769994 -0.204778
vn 0.604296 0.769995 -0.204778
vn 0.604296 0.769995 -0.204778
vn 0.604296 0.769995 -0.204779
vn -0.176676 0.975755 0.129184
vn -0.176675 0.975755 0.129185
vn -0.176676 0.975755 0.129185
vn -0.176675 0.975755 0.129185
vn 0.000000 0.752622 -0.658453
vn 0.000000 0.752622 -0.658452
vn 0.000000 0.752622 -0.658452
vn 0.000000 0.752623 -0.658452
vn -0.329945 0.942003 -0.061368
vn -0.329946 0.942003 -0.061369
vn -0.329946 0.942003 -0.061369
vn -0.329946 0.942003 -0.061369
vn -0.570920 0.769995 -0.284883
vn -0.570920 0.769995 -0.284883
vn -0.570920 0.769995 -0.284883
vn -0.570920 0.769995 -0.284883
vn -0.570920 0.769994 -0.284885
vn -0.570920 0.769994 -0.284885
vn -0.570920 0.769994 -0.284885
vn -0.570920 0.769994 -0.284885
vn -0.570920 0.769994 -0.284884
vn -0.570920 0.769995 -0.284884
vn -0.570920 0.769995 -0.284884
vn -0.570920 0.769995 -0.284883
s 1
g pPlane27
usemtl lambert8SG
f 1/1/1 2/2/2 3/3/3
f 3/3/3 2/2/2 4/4/4
s 2
f 5/5/5 6/6/6 7/8/7
f 7/8/7 6/6/6 8/7/8
s 3
f 9/9/9 10/10/10 11/12/11
f 11/12/11 10/10/10 12/11/12
s 4
f 13/13/13 14/14/14 15/16/15
f 15/16/15 14/14/14 16/15/16
s 5
f 17/17/17 18/18/18 19/20/19
f 19/20/19 18/18/18 20/19/20
s 6
f 21/21/21 22/22/22 23/24/23
f 23/24/23 22/22/22 24/23/24
s 7
f 25/25/25 26/26/26 27/28/27
f 27/28/27 26/26/26 28/27/28
s 8
f 29/29/29 30/30/30 31/32/31
f 31/32/31 30/30/30 32/31/32
s 9
f 33/33/33 34/34/34 35/36/35
f 35/36/35 34/34/34 36/35/36
s 10
f 37/37/37 38/38/38 39/40/39
f 39/40/39 38/38/38 40/39/40
s 11
f 41/41/41 42/42/42 43/44/43
f 43/44/43 42/42/42 44/43/44
s 12
f 45/45/45 46/46/46 47/48/47
f 47/48/47 46/46/46 48/47/48
s 13
f 49/49/49 50/50/50 51/52/51
f 51/52/51 50/50/50 52/51/52
s 14
f 53/53/53 54/54/54 55/56/55
f 55/56/55 54/54/54 56/55/56
s 15
f 57/57/57 58/58/58 59/60/59
f 59/60/59 58/58/58 60/59/60
s 16
f 61/61/61 62/62/62 63/64/63
f 63/64/63 62/62/62 64/63/64
s 17
f 65/65/65 66/66/66 67/68/67
f 67/68/67 66/66/66 68/67/68
g default
v 6.536034 7.497427 -4.374329
v 6.052022 7.497427 -4.305580
v 6.588971 7.185503 -4.001643
v 6.104959 7.185503 -3.932893
v 5.355992 7.497427 -0.378814
v 4.890741 7.497427 -0.528932
v 5.240402 7.185503 -0.020573
v 4.775151 7.185503 -0.170691
v 5.646655 8.979712 -2.760150
v 4.416208 8.979712 -3.164413
v 5.335374 8.153337 -1.812712
v 4.104928 8.153337 -2.216975
v 3.961935 7.497466 -5.631532
v 3.780772 7.497440 -6.085596
v 3.612354 7.185491 -5.492037
v 3.431191 7.185465 -5.946101
v -0.310841 8.175412 -5.770032
v -0.467439 8.062943 -4.705056
v 0.758035 8.092884 -5.621577
v 0.601438 7.980415 -4.556601
v -2.188324 6.874201 -5.427870
v -2.137384 6.558005 -4.799892
v -1.495523 6.789454 -5.526740
v -1.444583 6.473258 -4.898763
v -4.069969 8.396938 -4.616871
v -3.069969 8.396938 -4.616871
v -4.069969 7.758888 -5.386866
v -3.069969 7.758888 -5.386866
v -5.846596 8.396938 -1.552065
v -6.767119 8.396938 -1.942755
v -6.147425 7.758888 -0.843268
v -7.067948 7.758888 -1.233957
v -4.741633 7.497466 -2.798428
v -5.154460 7.497440 -2.536572
v -4.540015 7.185491 -2.480598
v -4.952842 7.185465 -2.218743
v -7.772355 7.497427 1.159177
v -7.615455 7.497427 1.622184
v -7.415842 7.185503 1.038364
v -7.258942 7.185503 1.501372
v -5.921690 7.497427 4.652092
v -5.764790 7.497427 5.115100
v -5.565176 7.185503 4.531280
v -5.408276 7.185503 4.994288
v -2.636924 8.227526 5.531758
v -3.543108 8.117506 5.123437
v -3.021132 8.038321 6.435409
v -3.927316 7.928301 6.027089
v -0.804812 8.559813 6.969597
v 0.195188 8.559813 6.969597
v -0.804812 7.901360 6.216974
v 0.195188 7.901360 6.216974
v 0.264089 7.455892 5.015890
v 0.073841 7.360583 4.575759
v -0.156365 7.322348 5.226551
v -0.346613 7.227039 4.786420
v 2.786087 7.660491 5.113607
v 3.232578 7.660491 4.218819
v 2.097105 7.022440 4.769812
v 2.543596 7.022440 3.875023
v 3.577977 7.497427 6.177889
v 3.796253 7.497427 5.740455
v 3.241154 7.185503 6.009818
v 3.459430 7.185503 5.572383
v 5.712085 7.497427 2.491262
v 5.930361 7.497427 2.053827
v 5.375263 7.185503 2.323191
v 5.593539 7.185503 1.885756
vt 0.000000 0.000000
vt 1.000000 0.000000
vt 0.000000 1.000000
vt 1.000000 1.000000
vt 0.000000 0.000000
vt 1.000000 0.000000
vt 1.000000 1.000000
vt 0.000000 1.000000
vt 0.000000 0.000000
vt 1.000000 0.000000
vt 1.000000 1.000000
vt 0.000000 1.000000
vt 0.000000 0.000000
vt 1.000000 0.000000
vt 1.000000 1.000000
vt 0.000000 1.000000
vt 0.000000 0.000000
vt 1.000000 0.000000
vt 1.000000 1.000000
vt 0.000000 1.000000
vt 0.000000 0.000000
vt 1.000000 0.000000
vt 1.000000 1.000000
vt 0.000000 1.000000
vt 0.000000 0.000000
vt 1.000000 0.000000
vt 1.000000 1.000000
vt 0.000000 1.000000
vt 0.000000 0.000000
vt 1.000000 0.000000
vt 1.000000 1.000000
vt 0.000000 1.000000
vt 0.000000 0.000000
vt 1.000000 0.000000
vt 1.000000 1.000000
vt 0.000000 1.000000
vt 0.000000 0.000000
vt 1.000000 0.000000
vt 1.000000 1.000000
vt 0.000000 1.000000
vt 0.000000 0.000000
vt 1.000000 0.000000
vt 1.000000 1.000000
vt 0.000000 1.000000
vt 0.000000 0.000000
vt 1.000000 0.000000
vt 1.000000 1.000000
vt 0.000000 1.000000
vt 0.000000 0.000000
vt 1.000000 0.000000
vt 1.000000 1.000000
vt 0.000000 1.000000
vt 0.000000 0.000000
vt 1.000000 0.000000
vt 1.000000 1.000000
vt 0.000000 1.000000
vt 0.000000 0.000000
vt 1.000000 0.000000
vt 1.000000 1.000000
vt 0.000000 1.000000
vt 0.000000 0.000000
vt 1.000000 0.000000
vt 1.000000 1.000000
vt 0.000000 1.000000
vt 0.000000 0.000000
vt 1.000000 0.000000
vt 1.000000 1.000000
vt 0.000000 1.000000
vn 0.089729 0.769994 0.631710
vn 0.089728 0.769994 0.631711
vn 0.089728 0.769994 0.631711
vn 0.089728 0.769993 0.631711
vn -0.195927 0.769994 0.607225
vn -0.195927 0.769994 0.607224
vn -0.195927 0.769994 0.607224
vn -0.195927 0.769994 0.607224
vn -0.199158 0.769995 0.606171
vn -0.199158 0.769995 0.606171
vn -0.199158 0.769995 0.606171
vn -0.199158 0.769995 0.606172
vn -0.592736 0.769908 0.236446
vn -0.592736 0.769908 0.236446
vn -0.592736 0.769908 0.236446
vn -0.592736 0.769908 0.236446
vn 0.060779 0.991659 0.113661
vn 0.060779 0.991659 0.113663
vn 0.060779 0.991659 0.113663
vn 0.060779 0.991659 0.113664
vn 0.170007 0.885637 0.432140
vn 0.170007 0.885637 0.432141
vn 0.170007 0.885637 0.432141
vn 0.170007 0.885637 0.432141
vn 0.000000 0.769995 -0.638050
vn 0.000000 0.769995 -0.638050
vn 0.000000 0.769995 -0.638050
vn 0.000000 0.769995 -0.638050
vn -0.249279 0.769994 0.587340
vn -0.249279 0.769995 0.587339
vn -0.249279 0.769995 0.587339
vn -0.249279 0.769995 0.587339
vn 0.341783 0.769908 0.538912
vn 0.341783 0.769908 0.538913
vn 0.341783 0.769908 0.538913
vn 0.341782 0.769907 0.538914
vn 0.604298 0.769994 -0.204778
vn 0.604297 0.769994 -0.204779
vn 0.604297 0.769994 -0.204779
vn 0.604297 0.769994 -0.204779
vn 0.604297 0.769994 -0.204778
vn 0.604296 0.769995 -0.204778
vn 0.604296 0.769995 -0.204778
vn 0.604296 0.769995 -0.204779
vn -0.176676 0.975755 0.129184
vn -0.176675 0.975755 0.129185
vn -0.176676 0.975755 0.129185
vn -0.176675 0.975755 0.129185
vn 0.000000 0.752622 -0.658453
vn 0.000000 0.752622 -0.658452
vn 0.000000 0.752622 -0.658452
vn 0.000000 0.752623 -0.658452
vn -0.329945 0.942003 -0.061368
vn -0.329946 0.942003 -0.061369
vn -0.329946 0.942003 -0.061369
vn -0.329946 0.942003 -0.061369
vn -0.570920 0.769995 -0.284883
vn -0.570920 0.769995 -0.284883
vn -0.570920 0.769995 -0.284883
vn -0.570920 0.769995 -0.284883
vn -0.570920 0.769994 -0.284885
vn -0.570920 0.769994 -0.284885
vn -0.570920 0.769994 -0.284885
vn -0.570920 0.769994 -0.284885
vn -0.570920 0.769994 -0.284884
vn -0.570920 0.769995 -0.284884
vn -0.570920 0.769995 -0.284884
vn -0.570920 0.769995 -0.284883
s 1
g pPlane27
f 69/69/69 70/70/70 71/71/71
f 71/71/71 70/70/70 72/72/72
s 2
f 73/73/73 74/74/74 75/76/75
f 75/76/75 74/74/74 76/75/76
s 3
f 77/77/77 78/78/78 79/80/79
f 79/80/79 78/78/78 80/79/80
s 4
f 81/81/81 82/82/82 83/84/83
f 83/84/83 82/82/82 84/83/84
s 5
f 85/85/85 86/86/86 87/88/87
f 87/88/87 86/86/86 88/87/88
s 6
f 89/89/89 90/90/90 91/92/91
f 91/92/91 90/90/90 92/91/92
s 7
f 93/93/93 94/94/94 95/96/95
f 95/96/95 94/94/94 96/95/96
s 8
f 97/97/97 98/98/98 99/100/99
f 99/100/99 98/98/98 100/99/100
s 9
f 101/101/101 102/102/102 103/104/103
f 103/104/103 102/102/102 104/103/104
s 10
f 105/105/105 106/106/106 107/108/107
f 107/108/107 106/106/106 108/107/108
s 11
f 109/109/109 110/110/110 111/112/111
f 111/112/111 110/110/110 112/111/112
s 12
f 113/113/113 114/114/114 115/116/115
f 115/116/115 114/114/114 116/115/116
s 13
f 117/117/117 118/118/118 119/120/119
f 119/120/119 118/118/118 120/119/120
s 14
f 121/121/121 122/122/122 123/124/123
f 123/124/123 122/122/122 124/123/124
s 15
f 125/125/125 126/126/126 127/128/127
f 127/128/127 126/126/126 128/127/128
s 16
f 129/129/129 130/130/130 131/132/131
f 131/132/131 130/130/130 132/131/132
s 17
f 133/133/133 134/134/134 135/136/135
f 135/136/135 134/134/134 136/135/136
