# This file uses centimeters as units for non-parametric coordinates.

mtllib Repulsor_Icon.mtl
v 0.316040 3.137237 -1.112797
v 0.316040 3.619181 -1.112797
v 0.016457 3.137237 -1.112797
v 0.016457 3.619181 -1.112797
v 0.016457 3.619181 -2.526447
v 0.016457 3.137237 -2.526447
v 0.316040 3.137237 -2.526447
v 0.316040 3.619181 -2.526447
v 0.316040 2.268614 -1.669445
v 0.316040 2.750558 -1.669445
v 0.016457 2.268614 -1.669445
v 0.016457 2.750558 -1.669445
v 0.016457 2.750558 -3.083094
v 0.016457 2.268614 -3.083094
v 0.316040 2.268614 -3.083094
v 0.316040 2.750558 -3.083094
v 0.426735 3.667319 0.708220
v 0.426735 4.346121 0.708220
v -0.094239 3.667319 0.708220
v -0.094239 4.346121 0.708220
v -0.094239 4.346121 -0.407948
v -0.094239 3.667319 -0.407948
v 0.426735 3.667319 -0.407948
v 0.426735 4.346121 -0.407948
v 0.426735 1.054824 0.708220
v 0.426735 1.733729 0.708220
v -0.094239 1.054824 0.708220
v -0.094239 1.733729 0.708220
v -0.094239 1.733729 -0.407948
v -0.094239 1.054824 -0.407948
v 0.426735 1.054824 -0.407948
v 0.426735 1.733729 -0.407948
v 0.316040 1.366471 -1.112797
v 0.316040 1.848415 -1.112797
v 0.016457 1.366471 -1.112797
v 0.016457 1.848415 -1.112797
v 0.016457 1.848415 -2.526447
v 0.016457 1.366471 -2.526447
v 0.316040 1.366471 -2.526447
v 0.316040 1.848415 -2.526447
v 0.457781 1.735291 0.797796
v 0.457781 1.760408 1.221888
v 0.457781 1.883984 1.424540
v 0.457781 2.099440 1.719870
v 0.457781 2.382564 1.911480
v 0.457781 2.701535 1.977837
v 0.457781 3.020507 1.911480
v 0.457781 3.303630 1.719870
v 0.457781 3.519087 1.424540
v 0.457781 3.642662 1.221888
v 0.457781 3.667780 0.797796
v 0.457781 1.049861 0.801640
v 0.457781 1.092256 1.325968
v 0.457781 1.303586 1.837336
v 0.457781 1.672046 2.250120
v 0.457781 2.156225 2.517937
v 0.457781 2.701710 2.610683
v 0.457781 3.247194 2.517937
v 0.457781 3.731374 2.250120
v 0.457781 4.099834 1.837336
v 0.457781 4.311164 1.325968
v 0.457781 4.353559 0.801640
v -0.105753 1.049861 0.801640
v -0.105753 1.092256 1.325968
v -0.105753 1.303586 1.837336
v -0.105753 1.672046 2.250120
v -0.105753 2.156225 2.517937
v -0.105753 2.701710 2.610683
v -0.105753 3.247194 2.517937
v -0.105753 3.731374 2.250120
v -0.105753 4.099834 1.837336
v -0.105753 4.311164 1.325968
v -0.105753 4.353559 0.801640
v -0.105753 1.735291 0.797796
v -0.105753 1.760408 1.221888
v -0.105753 1.883984 1.424540
v -0.105753 2.099440 1.719870
v -0.105753 2.382564 1.911480
v -0.105753 2.701535 1.977837
v -0.105753 3.020507 1.911480
v -0.105753 3.303630 1.719870
v -0.105753 3.519087 1.424540
v -0.105753 3.642662 1.221888
v -0.105753 3.667780 0.797796
vt 0.375000 0.250000
vt 0.375000 0.139385
vt 0.625000 0.139385
vt 0.625000 0.250000
vt 0.375000 0.500000
vt 0.625000 0.500000
vt 0.375000 0.610615
vt 0.625000 0.610615
vt 0.875000 0.139385
vt 0.875000 0.250000
vt 0.125000 0.250000
vt 0.125000 0.139385
vt 0.625000 0.250000
vt 0.375000 0.250000
vt 0.375000 0.139385
vt 0.625000 0.139385
vt 0.625000 0.500000
vt 0.375000 0.500000
vt 0.625000 0.610615
vt 0.375000 0.610615
vt 0.875000 0.250000
vt 0.875000 0.139385
vt 0.125000 0.250000
vt 0.125000 0.139385
vt 0.625000 0.250000
vt 0.375000 0.250000
vt 0.375000 0.139385
vt 0.625000 0.139385
vt 0.625000 0.500000
vt 0.375000 0.500000
vt 0.625000 0.610615
vt 0.375000 0.610615
vt 0.875000 0.250000
vt 0.875000 0.139385
vt 0.125000 0.250000
vt 0.125000 0.139385
vt 0.625000 0.250000
vt 0.375000 0.250000
vt 0.375000 0.139385
vt 0.625000 0.139385
vt 0.625000 0.500000
vt 0.375000 0.500000
vt 0.625000 0.610615
vt 0.375000 0.610615
vt 0.875000 0.250000
vt 0.875000 0.139385
vt 0.125000 0.250000
vt 0.125000 0.139385
vt 0.625000 0.250000
vt 0.375000 0.250000
vt 0.375000 0.139385
vt 0.625000 0.139385
vt 0.625000 0.500000
vt 0.375000 0.500000
vt 0.625000 0.610615
vt 0.375000 0.610615
vt 0.875000 0.250000
vt 0.875000 0.139385
vt 0.125000 0.250000
vt 0.125000 0.139385
vt 0.375000 0.000000
vt 0.400000 0.000000
vt 0.400000 0.250000
vt 0.375000 0.250000
vt 0.425000 0.000000
vt 0.425000 0.250000
vt 0.450000 0.000000
vt 0.450000 0.250000
vt 0.475000 0.000000
vt 0.475000 0.250000
vt 0.500000 0.000000
vt 0.500000 0.250000
vt 0.525000 0.000000
vt 0.525000 0.250000
vt 0.550000 0.000000
vt 0.550000 0.250000
vt 0.575000 0.000000
vt 0.575000 0.250000
vt 0.600000 0.000000
vt 0.600000 0.250000
vt 0.625000 0.000000
vt 0.625000 0.250000
vt 0.400000 0.500000
vt 0.375000 0.500000
vt 0.425000 0.500000
vt 0.450000 0.500000
vt 0.475000 0.500000
vt 0.500000 0.500000
vt 0.525000 0.500000
vt 0.550000 0.500000
vt 0.575000 0.500000
vt 0.600000 0.500000
vt 0.625000 0.500000
vt 0.400000 0.750000
vt 0.375000 0.750000
vt 0.425000 0.750000
vt 0.450000 0.750000
vt 0.475000 0.750000
vt 0.500000 0.750000
vt 0.525000 0.750000
vt 0.550000 0.750000
vt 0.575000 0.750000
vt 0.600000 0.750000
vt 0.625000 0.750000
vt 0.400000 1.000000
vt 0.375000 1.000000
vt 0.425000 1.000000
vt 0.450000 1.000000
vt 0.475000 1.000000
vt 0.500000 1.000000
vt 0.525000 1.000000
vt 0.550000 1.000000
vt 0.575000 1.000000
vt 0.600000 1.000000
vt 0.625000 1.000000
vt 0.875000 0.000000
vt 0.875000 0.250000
vt 0.125000 0.000000
vt 0.125000 0.250000
vn 1.000000 0.000000 0.000000
vn 1.000000 0.000000 0.000000
vn 1.000000 0.000000 0.000000
vn 1.000000 0.000000 0.000000
vn 1.000000 0.000000 0.000000
vn 1.000000 0.000000 0.000000
vn -0.000000 0.000000 1.000000
vn -0.000000 0.000000 1.000000
vn -0.000000 0.000000 1.000000
vn -0.000000 0.000000 1.000000
vn -0.000000 0.000000 1.000000
vn -0.000000 0.000000 1.000000
vn -1.000000 0.000000 -0.000000
vn -1.000000 0.000000 -0.000000
vn -1.000000 0.000000 -0.000000
vn -1.000000 0.000000 -0.000000
vn -1.000000 0.000000 -0.000000
vn -1.000000 0.000000 -0.000000
vn 0.000000 1.000000 0.000000
vn 0.000000 1.000000 0.000000
vn 0.000000 1.000000 0.000000
vn 0.000000 1.000000 0.000000
vn 0.000000 1.000000 0.000000
vn 0.000000 1.000000 0.000000
vn 0.000000 -1.000000 0.000000
vn 0.000000 -1.000000 0.000000
vn 0.000000 -1.000000 0.000000
vn 0.000000 -1.000000 0.000000
vn 0.000000 -1.000000 0.000000
vn 0.000000 -1.000000 0.000000
vn 0.000000 0.000000 -1.000000
vn 0.000000 0.000000 -1.000000
vn 0.000000 0.000000 -1.000000
vn 0.000000 0.000000 -1.000000
vn 0.000000 0.000000 -1.000000
vn 0.000000 0.000000 -1.000000
vn 1.000000 0.000000 0.000000
vn 1.000000 0.000000 0.000000
vn 1.000000 0.000000 0.000000
vn 1.000000 0.000000 0.000000
vn 1.000000 0.000000 0.000000
vn 1.000000 0.000000 0.000000
vn -0.000000 0.000000 1.000000
vn -0.000000 0.000000 1.000000
vn -0.000000 0.000000 1.000000
vn -0.000000 0.000000 1.000000
vn -0.000000 0.000000 1.000000
vn -0.000000 0.000000 1.000000
vn -1.000000 0.000000 -0.000000
vn -1.000000 0.000000 -0.000000
vn -1.000000 0.000000 -0.000000
vn -1.000000 0.000000 -0.000000
vn -1.000000 0.000000 -0.000000
vn -1.000000 0.000000 -0.000000
vn 0.000000 1.000000 0.000000
vn 0.000000 1.000000 0.000000
vn 0.000000 1.000000 0.000000
vn 0.000000 1.000000 0.000000
vn 0.000000 1.000000 0.000000
vn 0.000000 1.000000 0.000000
vn 0.000000 -1.000000 0.000000
vn 0.000000 -1.000000 0.000000
vn 0.000000 -1.000000 0.000000
vn 0.000000 -1.000000 0.000000
vn 0.000000 -1.000000 0.000000
vn 0.000000 -1.000000 0.000000
vn 0.000000 0.000000 -1.000000
vn 0.000000 0.000000 -1.000000
vn 0.000000 0.000000 -1.000000
vn 0.000000 0.000000 -1.000000
vn 0.000000 0.000000 -1.000000
vn 0.000000 0.000000 -1.000000
vn 1.000000 0.000000 0.000000
vn 1.000000 0.000000 0.000000
vn 1.000000 0.000000 0.000000
vn 1.000000 0.000000 0.000000
vn 1.000000 0.000000 0.000000
vn 1.000000 0.000000 0.000000
vn -0.000000 0.000000 1.000000
vn -0.000000 0.000000 1.000000
vn -0.000000 0.000000 1.000000
vn -0.000000 0.000000 1.000000
vn -0.000000 0.000000 1.000000
vn -0.000000 0.000000 1.000000
vn -1.000000 0.000000 -0.000000
vn -1.000000 0.000000 -0.000000
vn -1.000000 0.000000 -0.000000
vn -1.000000 0.000000 -0.000000
vn -1.000000 0.000000 -0.000000
vn -1.000000 0.000000 -0.000000
vn 0.000000 1.000000 0.000000
vn 0.000000 1.000000 0.000000
vn 0.000000 1.000000 0.000000
vn 0.000000 1.000000 0.000000
vn 0.000000 1.000000 0.000000
vn 0.000000 1.000000 0.000000
vn 0.000000 -1.000000 0.000000
vn 0.000000 -1.000000 0.000000
vn 0.000000 -1.000000 0.000000
vn 0.000000 -1.000000 0.000000
vn 0.000000 -1.000000 0.000000
vn 0.000000 -1.000000 0.000000
vn 0.000000 -0.000000 -1.000000
vn 0.000000 -0.000000 -1.000000
vn 0.000000 -0.000000 -1.000000
vn 0.000000 -0.000000 -1.000000
vn 0.000000 -0.000000 -1.000000
vn 0.000000 -0.000000 -1.000000
vn 1.000000 0.000000 0.000000
vn 1.000000 0.000000 0.000000
vn 1.000000 0.000000 0.000000
vn 1.000000 0.000000 0.000000
vn 1.000000 0.000000 0.000000
vn 1.000000 0.000000 0.000000
vn -0.000000 0.000000 1.000000
vn -0.000000 0.000000 1.000000
vn -0.000000 0.000000 1.000000
vn -0.000000 0.000000 1.000000
vn -0.000000 0.000000 1.000000
vn -0.000000 0.000000 1.000000
vn -1.000000 0.000000 -0.000000
vn -1.000000 0.000000 -0.000000
vn -1.000000 0.000000 -0.000000
vn -1.000000 0.000000 -0.000000
vn -1.000000 0.000000 -0.000000
vn -1.000000 0.000000 -0.000000
vn 0.000000 1.000000 0.000000
vn 0.000000 1.000000 0.000000
vn 0.000000 1.000000 0.000000
vn 0.000000 1.000000 0.000000
vn 0.000000 1.000000 0.000000
vn 0.000000 1.000000 0.000000
vn 0.000000 -1.000000 0.000000
vn 0.000000 -1.000000 0.000000
vn 0.000000 -1.000000 0.000000
vn 0.000000 -1.000000 0.000000
vn 0.000000 -1.000000 0.000000
vn 0.000000 -1.000000 0.000000
vn 0.000000 0.000000 -1.000000
vn 0.000000 0.000000 -1.000000
vn 0.000000 0.000000 -1.000000
vn 0.000000 0.000000 -1.000000
vn 0.000000 0.000000 -1.000000
vn 0.000000 0.000000 -1.000000
vn 1.000000 0.000000 0.000000
vn 1.000000 0.000000 0.000000
vn 1.000000 0.000000 0.000000
vn 1.000000 0.000000 0.000000
vn 1.000000 0.000000 0.000000
vn 1.000000 0.000000 0.000000
vn -0.000000 0.000000 1.000000
vn -0.000000 0.000000 1.000000
vn -0.000000 0.000000 1.000000
vn -0.000000 0.000000 1.000000
vn -0.000000 0.000000 1.000000
vn -0.000000 0.000000 1.000000
vn -1.000000 0.000000 -0.000000
vn -1.000000 0.000000 -0.000000
vn -1.000000 0.000000 -0.000000
vn -1.000000 0.000000 -0.000000
vn -1.000000 0.000000 -0.000000
vn -1.000000 0.000000 -0.000000
vn 0.000000 1.000000 0.000000
vn 0.000000 1.000000 0.000000
vn 0.000000 1.000000 0.000000
vn 0.000000 1.000000 0.000000
vn 0.000000 1.000000 0.000000
vn 0.000000 1.000000 0.000000
vn 0.000000 -1.000000 0.000000
vn 0.000000 -1.000000 0.000000
vn 0.000000 -1.000000 0.000000
vn 0.000000 -1.000000 0.000000
vn 0.000000 -1.000000 0.000000
vn 0.000000 -1.000000 0.000000
vn 0.000000 0.000000 -1.000000
vn 0.000000 0.000000 -1.000000
vn 0.000000 0.000000 -1.000000
vn 0.000000 0.000000 -1.000000
vn 0.000000 0.000000 -1.000000
vn 0.000000 0.000000 -1.000000
vn 1.000000 0.000000 0.000000
vn 1.000000 0.000000 0.000000
vn 1.000000 0.000000 0.000000
vn 1.000000 0.000000 0.000000
vn 1.000000 0.000000 0.000000
vn 1.000000 0.000000 0.000000
vn 1.000000 0.000000 0.000000
vn 1.000000 0.000000 0.000000
vn 1.000000 0.000000 0.000000
vn 1.000000 0.000000 0.000000
vn 1.000000 0.000000 0.000000
vn 1.000000 0.000000 0.000000
vn 1.000000 0.000000 0.000000
vn 1.000000 0.000000 0.000000
vn 1.000000 0.000000 0.000000
vn 1.000000 0.000000 0.000000
vn 1.000000 0.000000 0.000000
vn 1.000000 0.000000 0.000000
vn 1.000000 0.000000 0.000000
vn 1.000000 0.000000 0.000000
vn 1.000000 0.000000 0.000000
vn 1.000000 0.000000 0.000000
vn 1.000000 0.000000 0.000000
vn 1.000000 0.000000 0.000000
vn 1.000000 0.000000 0.000000
vn 1.000000 0.000000 0.000000
vn 1.000000 0.000000 0.000000
vn 1.000000 0.000000 0.000000
vn 1.000000 0.000000 0.000000
vn 1.000000 0.000000 0.000000
vn 1.000000 0.000000 0.000000
vn 1.000000 0.000000 0.000000
vn 1.000000 0.000000 0.000000
vn 1.000000 0.000000 0.000000
vn 1.000000 0.000000 0.000000
vn 1.000000 0.000000 0.000000
vn 1.000000 0.000000 0.000000
vn 1.000000 0.000000 0.000000
vn 1.000000 0.000000 0.000000
vn 1.000000 0.000000 0.000000
vn 1.000000 0.000000 0.000000
vn 1.000000 0.000000 0.000000
vn 1.000000 0.000000 0.000000
vn 1.000000 0.000000 0.000000
vn 1.000000 0.000000 0.000000
vn 1.000000 0.000000 0.000000
vn 1.000000 0.000000 0.000000
vn 1.000000 0.000000 0.000000
vn 1.000000 0.000000 0.000000
vn 1.000000 0.000000 0.000000
vn 1.000000 0.000000 0.000000
vn 1.000000 0.000000 0.000000
vn 1.000000 0.000000 0.000000
vn 1.000000 0.000000 0.000000
vn 1.000000 0.000000 0.000000
vn 1.000000 0.000000 0.000000
vn 1.000000 0.000000 0.000000
vn 1.000000 0.000000 0.000000
vn 1.000000 0.000000 0.000000
vn 1.000000 0.000000 0.000000
vn -0.000000 -0.996747 0.080593
vn -0.000000 -0.971279 0.237944
vn -0.000000 -0.996747 0.080593
vn -0.000000 -0.996747 0.080593
vn -0.000000 -0.971279 0.237944
vn -0.000000 -0.971279 0.237945
vn -0.000000 -0.971279 0.237944
vn -0.000000 -0.847093 0.531445
vn -0.000000 -0.971279 0.237945
vn -0.000000 -0.971279 0.237945
vn -0.000000 -0.847093 0.531445
vn -0.000000 -0.847093 0.531445
vn -0.000000 -0.847093 0.531445
vn -0.000000 -0.623851 0.781543
vn -0.000000 -0.847093 0.531445
vn -0.000000 -0.847093 0.531445
vn -0.000000 -0.623851 0.781543
vn -0.000000 -0.623851 0.781543
vn -0.000000 -0.623851 0.781543
vn -0.000000 -0.330497 0.943807
vn -0.000000 -0.623851 0.781543
vn -0.000000 -0.623851 0.781543
vn -0.000000 -0.330497 0.943807
vn -0.000000 -0.330497 0.943807
vn -0.000000 -0.330497 0.943807
vn -0.000000 0.000000 1.000000
vn -0.000000 -0.330497 0.943807
vn -0.000000 -0.330497 0.943807
vn -0.000000 0.000000 1.000000
vn -0.000000 0.000000 1.000000
vn -0.000000 0.000000 1.000000
vn -0.000000 0.330497 0.943807
vn -0.000000 0.000000 1.000000
vn -0.000000 0.000000 1.000000
vn -0.000000 0.330497 0.943807
vn -0.000000 0.330497 0.943807
vn -0.000000 0.330497 0.943807
vn -0.000000 0.623851 0.781543
vn -0.000000 0.330497 0.943807
vn -0.000000 0.330497 0.943807
vn -0.000000 0.623851 0.781543
vn -0.000000 0.623851 0.781543
vn -0.000000 0.623851 0.781543
vn -0.000000 0.847093 0.531445
vn -0.000000 0.623851 0.781543
vn -0.000000 0.623851 0.781543
vn -0.000000 0.847093 0.531445
vn -0.000000 0.847093 0.531445
vn -0.000000 0.847093 0.531445
vn -0.000000 0.971279 0.237945
vn -0.000000 0.847093 0.531445
vn -0.000000 0.847093 0.531445
vn -0.000000 0.971279 0.237945
vn -0.000000 0.971279 0.237944
vn -0.000000 0.971279 0.237945
vn -0.000000 0.996747 0.080593
vn -0.000000 0.971279 0.237944
vn -0.000000 0.971279 0.237944
vn -0.000000 0.996747 0.080593
vn -0.000000 0.996747 0.080593
vn -1.000000 0.000000 -0.000000
vn -1.000000 0.000000 -0.000000
vn -1.000000 0.000000 -0.000000
vn -1.000000 0.000000 -0.000000
vn -1.000000 0.000000 -0.000000
vn -1.000000 0.000000 -0.000000
vn -1.000000 0.000000 -0.000000
vn -1.000000 0.000000 -0.000000
vn -1.000000 0.000000 -0.000000
vn -1.000000 0.000000 -0.000000
vn -1.000000 0.000000 -0.000000
vn -1.000000 0.000000 -0.000000
vn -1.000000 0.000000 -0.000000
vn -1.000000 0.000000 -0.000000
vn -1.000000 0.000000 -0.000000
vn -1.000000 0.000000 -0.000000
vn -1.000000 0.000000 -0.000000
vn -1.000000 0.000000 -0.000000
vn -1.000000 0.000000 -0.000000
vn -1.000000 0.000000 -0.000000
vn -1.000000 0.000000 -0.000000
vn -1.000000 0.000000 -0.000000
vn -1.000000 0.000000 -0.000000
vn -1.000000 0.000000 -0.000000
vn -1.000000 0.000000 -0.000000
vn -1.000000 0.000000 -0.000000
vn -1.000000 0.000000 -0.000000
vn -1.000000 0.000000 -0.000000
vn -1.000000 0.000000 -0.000000
vn -1.000000 0.000000 -0.000000
vn -1.000000 0.000000 -0.000000
vn -1.000000 0.000000 -0.000000
vn -1.000000 0.000000 -0.000000
vn -1.000000 0.000000 -0.000000
vn -1.000000 0.000000 -0.000000
vn -1.000000 0.000000 -0.000000
vn -1.000000 0.000000 -0.000000
vn -1.000000 0.000000 -0.000000
vn -1.000000 0.000000 -0.000000
vn -1.000000 0.000000 -0.000000
vn -1.000000 0.000000 -0.000000
vn -1.000000 0.000000 -0.000000
vn -1.000000 0.000000 -0.000000
vn -1.000000 0.000000 -0.000000
vn -1.000000 0.000000 -0.000000
vn -1.000000 0.000000 -0.000000
vn -1.000000 0.000000 -0.000000
vn -1.000000 0.000000 -0.000000
vn -1.000000 0.000000 -0.000000
vn -1.000000 0.000000 -0.000000
vn -1.000000 0.000000 -0.000000
vn -1.000000 0.000000 -0.000000
vn -1.000000 0.000000 -0.000000
vn -1.000000 0.000000 -0.000000
vn -1.000000 0.000000 -0.000000
vn -1.000000 0.000000 -0.000000
vn -1.000000 0.000000 -0.000000
vn -1.000000 0.000000 -0.000000
vn -1.000000 0.000000 -0.000000
vn -1.000000 0.000000 -0.000000
vn 0.000000 0.998251 -0.059124
vn 0.000000 0.972992 -0.230840
vn 0.000000 0.998251 -0.059124
vn 0.000000 0.998251 -0.059124
vn 0.000000 0.972992 -0.230840
vn 0.000000 0.972992 -0.230840
vn 0.000000 0.972992 -0.230840
vn 0.000000 0.826614 -0.562769
vn 0.000000 0.972992 -0.230840
vn 0.000000 0.972992 -0.230840
vn 0.000000 0.826614 -0.562769
vn 0.000000 0.826614 -0.562769
vn 0.000000 0.826614 -0.562769
vn 0.000000 0.698707 -0.715408
vn 0.000000 0.826614 -0.562769
vn 0.000000 0.826614 -0.562769
vn 0.000000 0.698707 -0.715408
vn 0.000000 0.698707 -0.715408
vn 0.000000 0.698707 -0.715408
vn 0.000000 0.393823 -0.919186
vn 0.000000 0.698707 -0.715408
vn 0.000000 0.698707 -0.715408
vn 0.000000 0.393823 -0.919186
vn 0.000000 0.393823 -0.919186
vn 0.000000 0.393823 -0.919186
vn 0.000000 -0.000000 -1.000000
vn 0.000000 0.393823 -0.919186
vn 0.000000 0.393823 -0.919186
vn 0.000000 -0.000000 -1.000000
vn 0.000000 -0.000000 -1.000000
vn 0.000000 -0.000000 -1.000000
vn 0.000000 -0.393823 -0.919186
vn 0.000000 -0.000000 -1.000000
vn 0.000000 -0.000000 -1.000000
vn 0.000000 -0.393823 -0.919186
vn 0.000000 -0.393823 -0.919186
vn 0.000000 -0.393823 -0.919186
vn 0.000000 -0.698707 -0.715408
vn 0.000000 -0.393823 -0.919186
vn 0.000000 -0.393823 -0.919186
vn 0.000000 -0.698707 -0.715408
vn 0.000000 -0.698707 -0.715408
vn 0.000000 -0.698707 -0.715408
vn 0.000000 -0.826614 -0.562769
vn 0.000000 -0.698707 -0.715408
vn 0.000000 -0.698707 -0.715408
vn 0.000000 -0.826614 -0.562769
vn 0.000000 -0.826614 -0.562769
vn 0.000000 -0.826614 -0.562769
vn 0.000000 -0.972992 -0.230840
vn 0.000000 -0.826614 -0.562769
vn 0.000000 -0.826614 -0.562769
vn 0.000000 -0.972992 -0.230840
vn 0.000000 -0.972992 -0.230840
vn 0.000000 -0.972992 -0.230840
vn 0.000000 -0.998251 -0.059124
vn 0.000000 -0.972992 -0.230840
vn 0.000000 -0.972992 -0.230840
vn 0.000000 -0.998251 -0.059124
vn 0.000000 -0.998251 -0.059124
vn 0.000000 0.005603 -0.999984
vn 0.000000 0.005603 -0.999984
vn 0.000000 0.005603 -0.999984
vn 0.000000 0.005603 -0.999984
vn 0.000000 0.005603 -0.999984
vn 0.000000 0.005603 -0.999984
vn 0.000000 -0.005605 -0.999984
vn 0.000000 -0.005606 -0.999984
vn 0.000000 -0.005606 -0.999984
vn 0.000000 -0.005606 -0.999984
vn 0.000000 -0.005606 -0.999984
vn 0.000000 -0.005606 -0.999984
usemtl initialShadingGroup
f 2/4/1 1/1/2 8/3/3
f 8/3/4 1/1/5 7/2/6
f 4/6/7 3/5/8 2/4/9
f 2/4/10 3/5/11 1/1/12
f 5/8/13 6/7/14 4/6/15
f 4/6/16 6/7/17 3/5/18
f 4/10/19 2/4/20 5/9/21
f 5/9/22 2/4/23 8/3/24
f 1/1/25 3/11/26 7/2/27
f 7/2/28 3/11/29 6/12/30
f 6/7/31 5/9/32 7/2/33
f 7/2/34 5/9/35 8/3/36
f 10/13/37 9/14/38 16/16/39
f 16/16/40 9/14/41 15/15/42
f 12/17/43 11/18/44 10/13/45
f 10/13/46 11/18/47 9/14/48
f 13/19/49 14/20/50 12/17/51
f 12/17/52 14/20/53 11/18/54
f 12/21/55 10/13/56 13/22/57
f 13/22/58 10/13/59 16/16/60
f 9/14/61 11/23/62 15/15/63
f 15/15/64 11/23/65 14/24/66
f 14/20/67 13/22/68 15/15/69
f 15/15/70 13/22/71 16/16/72
f 18/25/73 17/26/74 24/28/75
f 24/28/76 17/26/77 23/27/78
f 20/29/79 19/30/80 18/25/81
f 18/25/82 19/30/83 17/26/84
f 21/31/85 22/32/86 20/29/87
f 20/29/88 22/32/89 19/30/90
f 20/33/91 18/25/92 21/34/93
f 21/34/94 18/25/95 24/28/96
f 17/26/97 19/35/98 23/27/99
f 23/27/100 19/35/101 22/36/102
f 22/32/103 21/34/104 23/27/105
f 23/27/106 21/34/107 24/28/108
f 26/37/109 25/38/110 32/40/111
f 32/40/112 25/38/113 31/39/114
f 28/41/115 27/42/116 26/37/117
f 26/37/118 27/42/119 25/38/120
f 29/43/121 30/44/122 28/41/123
f 28/41/124 30/44/125 27/42/126
f 28/45/127 26/37/128 29/46/129
f 29/46/130 26/37/131 32/40/132
f 25/38/133 27/47/134 31/39/135
f 31/39/136 27/47/137 30/48/138
f 30/44/139 29/46/140 31/39/141
f 31/39/142 29/46/143 32/40/144
f 34/49/145 33/50/146 40/52/147
f 40/52/148 33/50/149 39/51/150
f 36/53/151 35/54/152 34/49/153
f 34/49/154 35/54/155 33/50/156
f 37/55/157 38/56/158 36/53/159
f 36/53/160 38/56/161 35/54/162
f 36/57/163 34/49/164 37/58/165
f 37/58/166 34/49/167 40/52/168
f 33/50/169 35/59/170 39/51/171
f 39/51/172 35/59/173 38/60/174
f 38/56/175 37/58/176 39/51/177
f 39/51/178 37/58/179 40/52/180
f 41/61/181 42/62/182 52/64/183
f 52/64/184 42/62/185 53/63/186
f 43/65/187 54/66/188 42/62/189
f 42/62/190 54/66/191 53/63/192
f 43/65/193 44/67/194 54/66/195
f 54/66/196 44/67/197 55/68/198
f 44/67/199 45/69/200 55/68/201
f 55/68/202 45/69/203 56/70/204
f 45/69/205 46/71/206 56/70/207
f 56/70/208 46/71/209 57/72/210
f 47/73/211 58/74/212 46/71/213
f 46/71/214 58/74/215 57/72/216
f 48/75/217 59/76/218 47/73/219
f 47/73/220 59/76/221 58/74/222
f 49/77/223 60/78/224 48/75/225
f 48/75/226 60/78/227 59/76/228
f 49/77/229 50/79/230 60/78/231
f 60/78/232 50/79/233 61/80/234
f 51/81/235 62/82/236 50/79/237
f 50/79/238 62/82/239 61/80/240
f 52/64/241 53/63/242 63/84/243
f 63/84/244 53/63/245 64/83/246
f 53/63/247 54/66/248 64/83/249
f 64/83/250 54/66/251 65/85/252
f 54/66/253 55/68/254 65/85/255
f 65/85/256 55/68/257 66/86/258
f 55/68/259 56/70/260 66/86/261
f 66/86/262 56/70/263 67/87/264
f 56/70/265 57/72/266 67/87/267
f 67/87/268 57/72/269 68/88/270
f 57/72/271 58/74/272 68/88/273
f 68/88/274 58/74/275 69/89/276
f 58/74/277 59/76/278 69/89/279
f 69/89/280 59/76/281 70/90/282
f 59/76/283 60/78/284 70/90/285
f 70/90/286 60/78/287 71/91/288
f 60/78/289 61/80/290 71/91/291
f 71/91/292 61/80/293 72/92/294
f 61/80/295 62/82/296 72/92/297
f 72/92/298 62/82/299 73/93/300
f 64/83/301 75/94/302 63/84/303
f 63/84/304 75/94/305 74/95/306
f 64/83/307 65/85/308 75/94/309
f 75/94/310 65/85/311 76/96/312
f 66/86/313 77/97/314 65/85/315
f 65/85/316 77/97/317 76/96/318
f 67/87/319 78/98/320 66/86/321
f 66/86/322 78/98/323 77/97/324
f 68/88/325 79/99/326 67/87/327
f 67/87/328 79/99/329 78/98/330
f 68/88/331 69/89/332 79/99/333
f 79/99/334 69/89/335 80/100/336
f 69/89/337 70/90/338 80/100/339
f 80/100/340 70/90/341 81/101/342
f 70/90/343 71/91/344 81/101/345
f 81/101/346 71/91/347 82/102/348
f 72/92/349 83/103/350 71/91/351
f 71/91/352 83/103/353 82/102/354
f 72/92/355 73/93/356 83/103/357
f 83/103/358 73/93/359 84/104/360
f 74/95/361 75/94/362 41/106/363
f 41/106/364 75/94/365 42/105/366
f 75/94/367 76/96/368 42/105/369
f 42/105/370 76/96/371 43/107/372
f 76/96/373 77/97/374 43/107/375
f 43/107/376 77/97/377 44/108/378
f 77/97/379 78/98/380 44/108/381
f 44/108/382 78/98/383 45/109/384
f 78/98/385 79/99/386 45/109/387
f 45/109/388 79/99/389 46/110/390
f 79/99/391 80/100/392 46/110/393
f 46/110/394 80/100/395 47/111/396
f 80/100/397 81/101/398 47/111/399
f 47/111/400 81/101/401 48/112/402
f 81/101/403 82/102/404 48/112/405
f 48/112/406 82/102/407 49/113/408
f 82/102/409 83/103/410 49/113/411
f 49/113/412 83/103/413 50/114/414
f 83/103/415 84/104/416 50/114/417
f 50/114/418 84/104/419 51/115/420
f 51/81/421 84/116/422 62/82/423
f 62/82/424 84/116/425 73/117/426
f 74/118/427 41/61/428 63/119/429
f 63/119/430 41/61/431 52/64/432
