# This file uses centimeters as units for non-parametric coordinates.

mtllib Health_Icon.mtl
v 0.325766 0.112863 0.488975
v 0.325766 0.112863 -0.468574
v 0.325766 5.550345 0.488975
v 0.325766 5.550345 -0.468574
v -0.325766 5.550345 0.488975
v -0.325766 5.550345 -0.468574
v -0.325766 0.112863 0.488975
v -0.325766 0.112863 -0.468574
v -0.325766 3.320719 -0.468574
v -0.325766 3.320719 0.488975
v 0.325766 3.320719 0.488975
v 0.325766 3.320719 -0.468574
v -0.325766 2.514670 -0.468574
v -0.325766 2.514670 0.488975
v 0.325766 2.514670 0.488975
v 0.325766 2.514670 -0.468574
v -0.325766 2.514670 2.659228
v 0.325766 2.514670 2.659228
v 0.325766 3.320719 2.659228
v -0.325766 3.320719 2.659228
v 0.325766 2.514670 -2.638826
v -0.325766 2.514670 -2.638826
v -0.325766 3.320719 -2.638826
v 0.325766 3.320719 -2.638826
vt 0.375000 0.250000
vt 0.375000 0.139385
vt 0.625000 0.139385
vt 0.625000 0.250000
vt 0.375000 0.500000
vt 0.625000 0.500000
vt 0.375000 0.610615
vt 0.625000 0.610615
vt 0.375000 1.000000
vt 0.375000 0.750000
vt 0.625000 0.750000
vt 0.625000 1.000000
vt 0.875000 0.139385
vt 0.875000 0.250000
vt 0.125000 0.250000
vt 0.125000 0.139385
vt 0.375000 0.641086
vt 0.625000 0.641086
vt 0.125000 0.139385
vt 0.125000 0.108914
vt 0.375000 0.108914
vt 0.375000 0.139385
vt 0.375000 0.108914
vt 0.625000 0.108914
vt 0.625000 0.139385
vt 0.625000 0.108914
vt 0.875000 0.108914
vt 0.875000 0.139385
vt 0.125000 0.108914
vt 0.125000 0.000000
vt 0.375000 0.000000
vt 0.625000 0.000000
vt 0.875000 0.000000
vt 0.875000 0.108914
vn 1.000000 0.000000 0.000000
vn 1.000000 0.000000 0.000000
vn 1.000000 0.000000 0.000000
vn 1.000000 0.000000 0.000000
vn 1.000000 0.000000 0.000000
vn 1.000000 0.000000 0.000000
vn 0.000000 1.000000 0.000000
vn 0.000000 1.000000 0.000000
vn 0.000000 1.000000 0.000000
vn 0.000000 1.000000 0.000000
vn 0.000000 1.000000 0.000000
vn 0.000000 1.000000 0.000000
vn -1.000000 0.000000 -0.000000
vn -1.000000 0.000000 -0.000000
vn -1.000000 0.000000 -0.000000
vn -1.000000 0.000000 -0.000000
vn -1.000000 0.000000 -0.000000
vn -1.000000 0.000000 -0.000000
vn 0.000000 -1.000000 0.000000
vn 0.000000 -1.000000 0.000000
vn 0.000000 -1.000000 0.000000
vn 0.000000 -1.000000 0.000000
vn 0.000000 -1.000000 0.000000
vn 0.000000 -1.000000 0.000000
vn 0.000000 0.000000 -1.000000
vn 0.000000 0.000000 -1.000000
vn 0.000000 0.000000 -1.000000
vn 0.000000 0.000000 -1.000000
vn 0.000000 0.000000 -1.000000
vn 0.000000 0.000000 -1.000000
vn -0.000000 0.000000 1.000000
vn -0.000000 0.000000 1.000000
vn -0.000000 0.000000 1.000000
vn -0.000000 0.000000 1.000000
vn -0.000000 0.000000 1.000000
vn -0.000000 0.000000 1.000000
vn -1.000000 0.000000 -0.000000
vn -1.000000 0.000000 -0.000000
vn -1.000000 0.000000 -0.000000
vn -1.000000 0.000000 -0.000000
vn -1.000000 0.000000 -0.000000
vn -1.000000 0.000000 -0.000000
vn -0.000000 0.000000 1.000000
vn -0.000000 0.000000 1.000000
vn -0.000000 0.000000 1.000000
vn -0.000000 0.000000 1.000000
vn -0.000000 0.000000 1.000000
vn -0.000000 0.000000 1.000000
vn 1.000000 0.000000 0.000000
vn 1.000000 0.000000 0.000000
vn 1.000000 0.000000 0.000000
vn 1.000000 0.000000 0.000000
vn 1.000000 0.000000 0.000000
vn 1.000000 0.000000 0.000000
vn 1.000000 0.000000 0.000000
vn 1.000000 0.000000 0.000000
vn 1.000000 0.000000 0.000000
vn 1.000000 0.000000 0.000000
vn 1.000000 0.000000 0.000000
vn 1.000000 0.000000 0.000000
vn 0.000000 0.000000 -1.000000
vn 0.000000 0.000000 -1.000000
vn 0.000000 0.000000 -1.000000
vn 0.000000 0.000000 -1.000000
vn 0.000000 0.000000 -1.000000
vn 0.000000 0.000000 -1.000000
vn -1.000000 0.000000 -0.000000
vn -1.000000 0.000000 -0.000000
vn -1.000000 0.000000 -0.000000
vn -1.000000 0.000000 -0.000000
vn -1.000000 0.000000 -0.000000
vn -1.000000 0.000000 -0.000000
vn -0.000000 0.000000 1.000000
vn -0.000000 0.000000 1.000000
vn -0.000000 0.000000 1.000000
vn -0.000000 0.000000 1.000000
vn -0.000000 0.000000 1.000000
vn -0.000000 0.000000 1.000000
vn 1.000000 0.000000 0.000000
vn 1.000000 0.000000 0.000000
vn 1.000000 0.000000 0.000000
vn 1.000000 0.000000 0.000000
vn 1.000000 0.000000 0.000000
vn 1.000000 0.000000 0.000000
vn 0.000000 0.000000 -1.000000
vn 0.000000 0.000000 -1.000000
vn 0.000000 0.000000 -1.000000
vn 0.000000 0.000000 -1.000000
vn 0.000000 0.000000 -1.000000
vn 0.000000 0.000000 -1.000000
vn 0.000000 -1.000000 0.000000
vn 0.000000 -1.000000 0.000000
vn 0.000000 -1.000000 0.000000
vn 0.000000 -1.000000 0.000000
vn 0.000000 -1.000000 0.000000
vn 0.000000 -1.000000 0.000000
vn 1.000000 0.000000 0.000000
vn 1.000000 0.000000 0.000000
vn 1.000000 0.000000 0.000000
vn 0.000000 1.000000 0.000000
vn 0.000000 1.000000 0.000000
vn 0.000000 1.000000 0.000000
vn 0.000000 1.000000 0.000000
vn 0.000000 1.000000 0.000000
vn 0.000000 1.000000 0.000000
vn -1.000000 0.000000 -0.000000
vn -1.000000 0.000000 -0.000000
vn -1.000000 0.000000 -0.000000
vn -1.000000 0.000000 -0.000000
vn -1.000000 0.000000 -0.000000
vn -1.000000 0.000000 -0.000000
vn 0.000000 -1.000000 0.000000
vn 0.000000 -1.000000 0.000000
vn 0.000000 -1.000000 0.000000
vn 0.000000 -1.000000 0.000000
vn 0.000000 -1.000000 0.000000
vn 0.000000 -1.000000 0.000000
vn -1.000000 0.000000 -0.000000
vn -1.000000 0.000000 -0.000000
vn -1.000000 0.000000 -0.000000
vn -1.000000 0.000000 -0.000000
vn -1.000000 0.000000 -0.000000
vn -1.000000 0.000000 -0.000000
vn 0.000000 1.000000 0.000000
vn 0.000000 1.000000 0.000000
vn 0.000000 1.000000 0.000000
vn 0.000000 1.000000 0.000000
vn 0.000000 1.000000 0.000000
vn 0.000000 1.000000 0.000000
vn 1.000000 0.000000 0.000000
vn 1.000000 0.000000 0.000000
vn 1.000000 0.000000 0.000000
usemtl initialShadingGroup
f 3/1/1 11/2/2 4/4/3
f 4/4/4 11/2/5 12/3/6
f 5/5/7 3/1/8 6/6/9
f 6/6/10 3/1/11 4/4/12
f 10/7/13 5/5/14 9/8/15
f 9/8/16 5/5/17 6/6/18
f 1/9/19 7/10/20 2/12/21
f 2/12/22 7/10/23 8/11/24
f 4/4/25 12/3/26 6/14/27
f 6/14/28 12/3/29 9/13/30
f 5/15/31 10/16/32 3/1/33
f 3/1/34 10/16/35 11/2/36
f 14/17/37 10/7/38 13/18/39
f 13/18/40 10/7/41 9/8/42
f 20/19/43 17/20/44 19/22/45
f 19/22/46 17/20/47 18/21/48
f 16/24/49 11/2/50 15/23/51
f 15/23/52 11/2/53 18/21/54
f 11/2/55 16/24/56 12/3/57
f 12/3/58 16/24/59 24/25/60
f 24/25/61 21/26/62 23/28/63
f 23/28/64 21/26/65 22/27/66
f 7/10/67 14/17/68 8/11/69
f 8/11/70 14/17/71 13/18/72
f 14/29/73 7/30/74 15/23/75
f 15/23/76 7/30/77 1/31/78
f 15/23/79 1/31/80 16/24/81
f 16/24/82 1/31/83 2/32/84
f 16/24/85 2/32/86 13/34/87
f 13/34/88 2/32/89 8/33/90
f 17/20/91 14/29/92 18/21/93
f 18/21/94 14/29/95 15/23/96
f 18/21/97 11/2/98 19/22/99
f 19/22/100 11/2/101 20/19/102
f 20/19/103 11/2/104 10/16/105
f 20/19/106 10/16/107 17/20/108
f 17/20/109 10/16/110 14/29/111
f 21/26/112 16/24/113 22/27/114
f 22/27/115 16/24/116 13/34/117
f 22/27/118 13/34/119 23/28/120
f 23/28/121 13/34/122 9/13/123
f 23/28/124 9/13/125 24/25/126
f 24/25/127 9/13/128 12/3/129
f 24/25/130 16/24/131 21/26/132
