# This file uses centimeters as units for non-parametric coordinates.

mtllib Stands.mtl
v -50.000000 9.500000 2.000000
v 50.000000 9.500000 2.000000
v -50.000000 10.500000 2.000000
v 50.000000 10.500000 2.000000
v -50.000000 10.500000 0.000000
v 50.000000 10.500000 0.000000
v -50.000000 9.500000 0.000000
v 50.000000 9.500000 0.000000
v -50.000000 9.500000 4.000000
v -50.000000 9.500000 6.000000
v -50.000000 9.500000 7.999999
v -50.000000 9.500000 9.999999
v -50.000000 9.500000 11.999999
v -50.000000 9.500000 13.999999
v -50.000000 9.500000 15.999999
v -50.000000 9.500000 18.000000
v -50.000000 9.500000 20.000000
v -50.000000 9.500000 22.000000
v 50.000000 9.500000 4.000000
v 50.000000 9.500000 6.000000
v 50.000000 9.500000 7.999999
v 50.000000 9.500000 9.999999
v 50.000000 9.500000 11.999999
v 50.000000 9.500000 13.999999
v 50.000000 9.500000 15.999999
v 50.000000 9.500000 18.000000
v 50.000000 9.500000 20.000000
v 50.000000 9.500000 22.000000
v 50.000000 11.500000 4.000000
v 50.000000 12.500000 6.000000
v 50.000000 13.500000 7.999999
v 50.000000 14.500000 9.999999
v 50.000000 15.500000 11.999999
v 50.000000 16.500000 13.999999
v 50.000000 17.500000 15.999999
v 50.000000 18.500000 18.000000
v 50.000000 19.500000 20.000000
v 50.000000 19.500000 22.000000
v -50.000000 11.500000 4.000000
v -50.000000 12.500000 6.000000
v -50.000000 13.500000 7.999999
v -50.000000 14.500000 9.999999
v -50.000000 15.500000 11.999999
v -50.000000 16.500000 13.999999
v -50.000000 17.500000 15.999999
v -50.000000 18.500000 18.000000
v -50.000000 19.500000 20.000000
v -50.000000 19.500000 22.000000
v -50.000000 11.500000 2.000000
v 50.000000 11.500000 2.000000
v -50.000000 12.500000 4.000000
v 50.000000 12.500000 4.000000
v -50.000000 13.500000 6.000000
v 50.000000 13.500000 6.000000
v -50.000000 14.500000 7.999999
v 50.000000 14.500000 7.999999
v -50.000000 15.500000 9.999999
v 50.000000 15.500000 9.999999
v -50.000000 16.500000 11.999999
v 50.000000 16.500000 11.999999
v -50.000000 17.500000 13.999999
v 50.000000 17.500000 13.999999
v -50.000000 18.500000 15.999999
v 50.000000 18.500000 15.999999
v -50.000000 19.500000 18.000000
v 50.000000 19.500000 18.000000
v -50.000000 -0.500000 0.000000
v 50.000000 -0.500000 0.000000
v 50.000000 -0.500000 22.000000
v -50.000000 -0.500000 22.000000
v 50.000000 4.500000 12.000000
v -50.000000 4.500000 12.000000
vt 0.714886 0.998057
vt 0.714100 0.002042
vt 0.734021 0.002026
vt 0.734806 0.998041
vt 0.743981 0.002018
vt 0.744766 0.998033
vt 0.007717 0.998613
vt 0.006931 0.002600
vt 0.226054 0.002428
vt 0.226839 0.998441
vt 0.980429 0.101594
vt 0.990746 0.101273
vt 0.990840 0.106402
vt 0.980574 0.106597
vt 0.993194 0.566379
vt 0.983234 0.566379
vt 0.983392 0.571432
vt 0.993256 0.571311
vt 0.970812 0.111803
vt 0.970469 0.101594
vt 0.960886 0.117511
vt 0.960133 0.102031
vt 0.950802 0.123297
vt 0.949798 0.102492
vt 0.940606 0.129090
vt 0.939430 0.102961
vt 0.930320 0.134833
vt 0.929023 0.103414
vt 0.920005 0.140524
vt 0.918609 0.103836
vt 0.909691 0.146181
vt 0.908161 0.104227
vt 0.899366 0.151815
vt 0.897721 0.104593
vt 0.889043 0.157425
vt 0.887271 0.104954
vt 0.878543 0.157779
vt 0.876845 0.105295
vt 0.685005 0.998081
vt 0.684220 0.002065
vt 0.704140 0.002049
vt 0.704925 0.998065
vt 0.655125 0.998104
vt 0.654340 0.002089
vt 0.674260 0.002073
vt 0.675045 0.998089
vt 0.625244 0.998127
vt 0.624459 0.002113
vt 0.644379 0.002097
vt 0.645165 0.998111
vt 0.595364 0.998151
vt 0.594579 0.002136
vt 0.614499 0.002121
vt 0.615284 0.998135
vt 0.565484 0.998174
vt 0.564698 0.002160
vt 0.584619 0.002144
vt 0.585404 0.998159
vt 0.535603 0.998197
vt 0.534818 0.002184
vt 0.554738 0.002168
vt 0.555523 0.998182
vt 0.505723 0.998221
vt 0.504938 0.002207
vt 0.524858 0.002192
vt 0.525643 0.998205
vt 0.475842 0.998245
vt 0.475057 0.002231
vt 0.494978 0.002215
vt 0.495763 0.998229
vt 0.445962 0.998268
vt 0.445177 0.002255
vt 0.465097 0.002239
vt 0.465882 0.998253
vt 0.426042 0.998283
vt 0.425256 0.002271
vt 0.972974 0.566831
vt 0.973522 0.577097
vt 0.962702 0.567308
vt 0.963543 0.582870
vt 0.952403 0.567798
vt 0.953407 0.588667
vt 0.942070 0.568279
vt 0.943219 0.594386
vt 0.931699 0.568738
vt 0.933011 0.600108
vt 0.921317 0.569162
vt 0.922767 0.605795
vt 0.910900 0.569562
vt 0.912495 0.611461
vt 0.900487 0.569941
vt 0.902212 0.617092
vt 0.890054 0.570310
vt 0.891927 0.622716
vt 0.879647 0.570664
vt 0.881444 0.623088
vt 0.983694 0.576526
vt 0.980697 0.111537
vt 0.973821 0.582257
vt 0.971126 0.116918
vt 0.963854 0.588101
vt 0.961175 0.122711
vt 0.953637 0.593903
vt 0.951084 0.128536
vt 0.943458 0.599601
vt 0.940844 0.134367
vt 0.933235 0.605361
vt 0.930523 0.140110
vt 0.922971 0.611057
vt 0.920187 0.145794
vt 0.912678 0.616716
vt 0.909868 0.151449
vt 0.902400 0.622349
vt 0.899527 0.157089
vt 0.326441 0.998362
vt 0.325655 0.002349
vt 0.843582 0.001939
vt 0.844368 0.997955
vt 0.928100 0.077433
vt 0.991709 0.514900
vt 0.878107 0.518690
vt 0.930770 0.542777
vt 0.989286 0.049569
vt 0.875315 0.053240
vn 0.000000 1.000000 0.000000
vn 0.000000 1.000000 0.000000
vn 0.000000 1.000000 0.000000
vn 0.000000 1.000000 0.000000
vn 0.000000 0.000000 -1.000000
vn 0.000000 0.000000 -1.000000
vn 0.000000 0.000000 -1.000000
vn 0.000000 0.000000 -1.000000
vn 0.000000 -1.000000 0.000000
vn 0.000000 -1.000000 0.000000
vn 0.000000 -1.000000 0.000000
vn 0.000000 -1.000000 0.000000
vn 1.000000 0.000003 0.000000
vn 1.000000 0.000003 0.000000
vn 1.000000 0.000003 0.000000
vn 1.000000 0.000003 0.000000
vn -1.000000 0.000004 0.000000
vn -1.000000 0.000004 0.000000
vn -1.000000 0.000004 0.000000
vn -1.000000 0.000004 0.000000
vn 1.000000 0.000000 0.000000
vn 1.000000 0.000000 0.000000
vn 1.000000 0.000000 0.000000
vn 1.000000 0.000000 0.000000
vn 1.000000 0.000000 0.000000
vn 1.000000 0.000000 0.000000
vn 1.000000 0.000000 0.000000
vn 1.000000 0.000000 0.000000
vn 1.000000 0.000000 0.000000
vn 1.000000 0.000000 0.000000
vn 1.000000 0.000000 0.000000
vn 1.000000 0.000000 0.000000
vn 1.000000 0.000000 0.000000
vn 1.000000 0.000000 0.000000
vn 1.000000 0.000000 0.000000
vn 1.000000 0.000000 0.000000
vn 1.000000 0.000000 0.000000
vn 1.000000 0.000000 0.000000
vn 1.000000 0.000000 0.000000
vn 1.000000 0.000000 0.000000
vn 1.000000 0.000000 0.000000
vn 1.000000 0.000000 0.000000
vn 1.000000 0.000000 0.000000
vn 1.000000 0.000000 0.000000
vn 1.000000 0.000000 0.000000
vn 1.000000 0.000000 0.000000
vn 1.000000 0.000000 0.000000
vn 1.000000 0.000000 0.000000
vn 1.000000 0.000000 0.000000
vn 1.000000 0.000000 0.000000
vn 1.000000 0.000000 0.000000
vn 1.000000 0.000000 0.000000
vn 1.000000 0.000000 0.000000
vn 1.000000 0.000000 0.000000
vn 1.000000 0.000000 0.000000
vn 1.000000 0.000000 0.000000
vn 1.000000 0.000000 0.000000
vn 1.000000 0.000000 0.000000
vn 1.000000 0.000000 0.000000
vn 1.000000 0.000000 0.000000
vn 0.000000 1.000000 0.000000
vn 0.000000 1.000000 0.000000
vn 0.000000 1.000000 0.000000
vn 0.000000 1.000000 0.000000
vn 0.000000 1.000000 0.000000
vn 0.000000 1.000000 0.000000
vn 0.000000 1.000000 0.000000
vn 0.000000 1.000000 0.000000
vn 0.000000 1.000000 0.000000
vn 0.000000 1.000000 0.000000
vn 0.000000 1.000000 0.000000
vn 0.000000 1.000000 0.000000
vn 0.000000 1.000000 0.000000
vn 0.000000 1.000000 0.000000
vn 0.000000 1.000000 0.000000
vn 0.000000 1.000000 0.000000
vn 0.000000 1.000000 0.000000
vn 0.000000 1.000000 0.000000
vn 0.000000 1.000000 0.000000
vn 0.000000 1.000000 0.000000
vn 0.000000 1.000000 0.000000
vn 0.000000 1.000000 0.000000
vn 0.000000 1.000000 0.000000
vn 0.000000 1.000000 0.000000
vn 0.000000 1.000000 0.000000
vn 0.000000 1.000000 0.000000
vn 0.000000 1.000000 0.000000
vn 0.000000 1.000000 0.000000
vn 0.000000 1.000000 0.000000
vn 0.000000 1.000000 0.000000
vn 0.000000 1.000000 0.000000
vn 0.000000 1.000000 0.000000
vn 0.000000 1.000000 0.000000
vn 0.000000 1.000000 0.000000
vn 0.000000 1.000000 0.000000
vn 0.000000 1.000000 0.000000
vn 0.000000 1.000000 0.000000
vn 0.000000 1.000000 0.000000
vn 0.000000 1.000000 0.000000
vn 0.000000 1.000000 0.000000
vn -1.000000 0.000000 0.000000
vn -1.000000 0.000000 0.000000
vn -1.000000 0.000000 0.000000
vn -1.000000 0.000000 0.000000
vn -1.000000 0.000000 0.000000
vn -1.000000 0.000000 0.000000
vn -1.000000 0.000000 0.000000
vn -1.000000 0.000000 0.000000
vn -1.000000 0.000000 0.000000
vn -1.000000 0.000000 0.000000
vn -1.000000 0.000000 0.000000
vn -1.000000 0.000000 0.000000
vn -1.000000 0.000000 0.000000
vn -1.000000 0.000000 0.000000
vn -1.000000 0.000000 0.000000
vn -1.000000 0.000000 0.000000
vn -1.000000 0.000000 0.000000
vn -1.000000 0.000000 0.000000
vn -1.000000 0.000000 0.000000
vn -1.000000 0.000000 0.000000
vn -1.000000 0.000000 0.000000
vn -1.000000 0.000000 0.000000
vn -1.000000 0.000000 0.000000
vn -1.000000 0.000000 0.000000
vn -1.000000 0.000000 0.000000
vn -1.000000 0.000000 0.000000
vn -1.000000 0.000000 0.000000
vn -1.000000 0.000000 0.000000
vn -1.000000 0.000000 0.000000
vn -1.000000 0.000000 0.000000
vn -1.000000 0.000000 0.000000
vn -1.000000 0.000000 0.000000
vn -1.000000 0.000000 0.000000
vn -1.000000 0.000000 0.000000
vn -1.000000 0.000000 0.000000
vn -1.000000 0.000000 0.000000
vn -1.000000 0.000000 0.000000
vn -1.000000 0.000000 0.000000
vn -1.000000 0.000000 0.000000
vn -1.000000 0.000000 0.000000
vn 0.000000 0.000000 -1.000000
vn 0.000000 0.000000 -1.000000
vn 0.000000 0.000000 -1.000000
vn 0.000000 0.000000 -1.000000
vn -1.000000 0.000000 0.000000
vn -1.000000 0.000000 0.000000
vn -1.000000 0.000000 0.000000
vn 1.000000 0.000000 0.000000
vn 1.000000 0.000000 0.000000
vn 1.000000 0.000000 0.000000
vn 0.000000 0.000000 -1.000000
vn 0.000000 0.000000 -1.000000
vn 0.000000 0.000000 -1.000000
vn 0.000000 0.000000 -1.000000
vn -1.000000 0.000000 0.000000
vn -1.000000 0.000000 0.000000
vn -1.000000 0.000000 0.000000
vn 1.000000 0.000000 0.000000
vn 1.000000 0.000000 0.000000
vn 1.000000 0.000000 0.000000
vn 0.000000 0.000000 -1.000000
vn 0.000000 0.000000 -1.000000
vn 0.000000 0.000000 -1.000000
vn 0.000000 0.000000 -1.000000
vn -1.000000 0.000000 0.000000
vn -1.000000 0.000000 0.000000
vn -1.000000 0.000000 0.000000
vn 1.000000 0.000000 0.000000
vn 1.000000 0.000000 0.000000
vn 1.000000 0.000000 0.000000
vn 0.000000 0.000000 -1.000000
vn 0.000000 0.000000 -1.000000
vn 0.000000 0.000000 -1.000000
vn 0.000000 0.000000 -1.000000
vn -1.000000 0.000000 0.000000
vn -1.000000 0.000000 0.000000
vn -1.000000 0.000000 0.000000
vn 1.000000 0.000000 0.000000
vn 1.000000 0.000000 0.000000
vn 1.000000 0.000000 0.000000
vn 0.000000 0.000000 -1.000000
vn 0.000000 0.000000 -1.000000
vn 0.000000 0.000000 -1.000000
vn 0.000000 0.000000 -1.000000
vn -1.000000 0.000000 0.000000
vn -1.000000 0.000000 0.000000
vn -1.000000 0.000000 0.000000
vn 1.000000 0.000000 0.000000
vn 1.000000 0.000000 0.000000
vn 1.000000 0.000000 0.000000
vn 0.000000 0.000000 -1.000000
vn 0.000000 0.000000 -1.000000
vn 0.000000 0.000000 -1.000000
vn 0.000000 0.000000 -1.000000
vn -1.000000 0.000000 0.000000
vn -1.000000 0.000000 0.000000
vn -1.000000 0.000000 0.000000
vn 1.000000 0.000000 0.000000
vn 1.000000 0.000000 0.000000
vn 1.000000 0.000000 0.000000
vn 0.000000 0.000000 -1.000000
vn 0.000000 0.000000 -1.000000
vn 0.000000 0.000000 -1.000000
vn 0.000000 0.000000 -1.000000
vn -1.000000 0.000000 0.000000
vn -1.000000 0.000000 0.000000
vn -1.000000 0.000000 0.000000
vn 1.000000 0.000000 0.000000
vn 1.000000 0.000000 0.000000
vn 1.000000 0.000000 0.000000
vn 0.000000 0.000000 -1.000000
vn 0.000000 0.000000 -1.000000
vn 0.000000 0.000000 -1.000000
vn 0.000000 0.000000 -1.000000
vn -1.000000 0.000000 0.000000
vn -1.000000 0.000000 0.000000
vn -1.000000 0.000000 0.000000
vn 1.000000 0.000000 0.000000
vn 1.000000 0.000000 0.000000
vn 1.000000 0.000000 0.000000
vn 0.000000 0.000000 -1.000000
vn 0.000000 0.000000 -1.000000
vn 0.000000 0.000000 -1.000000
vn 0.000000 0.000000 -1.000000
vn -1.000000 0.000000 0.000000
vn -1.000000 0.000000 0.000000
vn -1.000000 0.000000 0.000000
vn 1.000000 0.000000 0.000000
vn 1.000000 0.000000 0.000000
vn 1.000000 0.000000 0.000000
vn 0.000000 0.000000 1.000000
vn 0.000000 0.000000 1.000000
vn 0.000000 0.000000 1.000000
vn 0.000000 0.000000 1.000000
vn 0.000000 0.000000 -1.000000
vn 0.000000 0.000000 -1.000000
vn 0.000000 0.000000 -1.000000
vn 0.000000 0.000000 -1.000000
vn 1.000000 -0.000000 0.000000
vn 1.000000 -0.000000 0.000000
vn 1.000000 -0.000000 0.000000
vn 1.000000 -0.000000 0.000000
vn 1.000000 -0.000000 0.000000
vn 1.000000 -0.000000 0.000000
vn 1.000000 -0.000000 0.000000
vn 1.000000 -0.000000 0.000000
vn -1.000000 0.000000 0.000000
vn -1.000000 0.000000 0.000000
vn -1.000000 0.000000 0.000000
vn 0.000000 0.000000 1.000000
vn 0.000000 0.000000 1.000000
vn 0.000000 0.000000 1.000000
vn 0.000000 0.000000 1.000000
vn 1.000000 -0.000000 0.000000
vn 1.000000 -0.000000 0.000000
vn 1.000000 -0.000001 0.000000
vn 1.000000 -0.000001 0.000000
vn 1.000000 -0.000001 0.000000
vn 1.000000 -0.000001 0.000000
vn 1.000000 -0.000000 0.000000
vn -1.000000 0.000000 0.000000
vn -1.000000 0.000000 0.000000
vn -1.000000 0.000000 0.000000
vn 1.000000 0.000000 0.000000
vn 1.000000 -0.000000 0.000000
vn 1.000000 0.000000 0.000000
vn -1.000000 0.000000 0.000000
vn -1.000000 0.000000 0.000000
vn -1.000000 0.000000 0.000000
vn 1.000000 -0.000000 0.000000
vn 1.000000 -0.000000 0.000000
vn 1.000000 0.000000 0.000000
vn -1.000000 0.000000 0.000000
vn -1.000000 0.000000 0.000000
vn -1.000000 0.000000 0.000000
vn -1.000000 0.000000 0.000000
vn -1.000000 0.000000 0.000000
vn -1.000000 0.000000 0.000000
vn -1.000000 0.000000 0.000000
vn -1.000000 0.000000 0.000000
vn -1.000000 0.000000 0.000000
vn -1.000000 0.000000 0.000000
vn -1.000000 0.000000 0.000000
vn -1.000000 0.000000 0.000000
vn -1.000000 0.000000 0.000000
vn 1.000000 -0.000000 0.000000
vn 1.000000 0.000000 0.000000
vn 1.000000 -0.000000 0.000000
usemtl initialShadingGroup
f 3/1/1 4/2/2 5/4/3
f 5/4/3 4/2/2 6/3/4
f 5/4/5 6/3/6 7/6/7
f 7/6/7 6/3/6 8/5/8
f 67/7/9 68/8/10 70/10/11
f 70/10/11 68/8/10 69/9/12
f 2/11/13 8/12/14 4/14/15
f 4/14/15 8/12/14 6/13/16
f 7/15/17 1/16/18 5/18/19
f 5/18/19 1/16/18 3/17/20
f 2/11/21 4/14/22 19/20/23
f 19/20/23 4/14/22 29/19/24
f 19/20/25 29/19/26 20/22/27
f 20/22/27 29/19/26 30/21/28
f 20/22/29 30/21/30 21/24/31
f 21/24/31 30/21/30 31/23/32
f 21/24/33 31/23/34 22/26/35
f 22/26/35 31/23/34 32/25/36
f 22/26/37 32/25/38 23/28/39
f 23/28/39 32/25/38 33/27/40
f 23/28/41 33/27/42 24/30/43
f 24/30/43 33/27/42 34/29/44
f 24/30/45 34/29/46 25/32/47
f 25/32/47 34/29/46 35/31/48
f 25/32/49 35/31/50 26/34/51
f 26/34/51 35/31/50 36/33/52
f 26/34/53 36/33/54 27/36/55
f 27/36/55 36/33/54 37/35/56
f 27/36/57 37/35/58 28/38/59
f 28/38/59 37/35/58 38/37/60
f 39/39/61 29/40/62 49/42/63
f 49/42/63 29/40/62 50/41/64
f 40/43/65 30/44/66 51/46/67
f 51/46/67 30/44/66 52/45/68
f 41/47/69 31/48/70 53/50/71
f 53/50/71 31/48/70 54/49/72
f 42/51/73 32/52/74 55/54/75
f 55/54/75 32/52/74 56/53/76
f 43/55/77 33/56/78 57/58/79
f 57/58/79 33/56/78 58/57/80
f 44/59/81 34/60/82 59/62/83
f 59/62/83 34/60/82 60/61/84
f 45/63/85 35/64/86 61/66/87
f 61/66/87 35/64/86 62/65/88
f 46/67/89 36/68/90 63/70/91
f 63/70/91 36/68/90 64/69/92
f 47/71/93 37/72/94 65/74/95
f 65/74/95 37/72/94 66/73/96
f 48/75/97 38/76/98 47/71/99
f 47/71/99 38/76/98 37/72/100
f 1/16/101 9/77/102 3/17/103
f 3/17/103 9/77/102 39/78/104
f 9/77/105 10/79/106 39/78/107
f 39/78/107 10/79/106 40/80/108
f 10/79/109 11/81/110 40/80/111
f 40/80/111 11/81/110 41/82/112
f 11/81/113 12/83/114 41/82/115
f 41/82/115 12/83/114 42/84/116
f 12/83/117 13/85/118 42/84/119
f 42/84/119 13/85/118 43/86/120
f 13/85/121 14/87/122 43/86/123
f 43/86/123 14/87/122 44/88/124
f 14/87/125 15/89/126 44/88/127
f 44/88/127 15/89/126 45/90/128
f 15/89/129 16/91/130 45/90/131
f 45/90/131 16/91/130 46/92/132
f 16/91/133 17/93/134 46/92/135
f 46/92/135 17/93/134 47/94/136
f 47/94/137 17/93/138 48/96/139
f 48/96/139 17/93/138 18/95/140
f 49/42/141 50/41/142 3/1/143
f 3/1/143 50/41/142 4/2/144
f 3/17/145 39/78/146 49/97/147
f 29/19/148 4/14/149 50/98/150
f 51/46/151 52/45/152 39/39/153
f 39/39/153 52/45/152 29/40/154
f 39/78/155 40/80/156 51/99/157
f 30/21/158 29/19/159 52/100/160
f 53/50/161 54/49/162 40/43/163
f 40/43/163 54/49/162 30/44/164
f 40/80/165 41/82/166 53/101/167
f 31/23/168 30/21/169 54/102/170
f 55/54/171 56/53/172 41/47/173
f 41/47/173 56/53/172 31/48/174
f 41/82/175 42/84/176 55/103/177
f 32/25/178 31/23/179 56/104/180
f 57/58/181 58/57/182 42/51/183
f 42/51/183 58/57/182 32/52/184
f 42/84/185 43/86/186 57/105/187
f 33/27/188 32/25/189 58/106/190
f 59/62/191 60/61/192 43/55/193
f 43/55/193 60/61/192 33/56/194
f 43/86/195 44/88/196 59/107/197
f 34/29/198 33/27/199 60/108/200
f 61/66/201 62/65/202 44/59/203
f 44/59/203 62/65/202 34/60/204
f 44/88/205 45/90/206 61/109/207
f 35/31/208 34/29/209 62/110/210
f 63/70/211 64/69/212 45/63/213
f 45/63/213 64/69/212 35/64/214
f 45/90/215 46/92/216 63/111/217
f 36/33/218 35/31/219 64/112/220
f 65/74/221 66/73/222 46/67/223
f 46/67/223 66/73/222 36/68/224
f 46/92/225 47/94/226 65/113/227
f 37/35/228 36/33/229 66/114/230
f 18/115/231 28/116/232 48/75/233
f 48/75/233 28/116/232 38/76/234
f 7/6/235 8/5/236 67/118/237
f 67/118/237 8/5/236 68/117/238
f 8/12/239 2/11/240 71/119/241
f 2/11/240 19/20/242 71/119/241
f 19/20/242 20/22/243 71/119/241
f 20/22/243 21/24/244 71/119/241
f 21/24/244 22/26/245 71/119/241
f 71/119/241 22/26/245 23/28/246
f 67/120/247 70/121/248 72/122/249
f 70/10/250 69/9/251 18/115/252
f 18/115/252 69/9/251 28/116/253
f 28/38/254 71/119/255 27/36/256
f 27/36/256 71/119/255 26/34/257
f 26/34/257 71/119/255 25/32/258
f 25/32/258 71/119/255 24/30/259
f 24/30/259 71/119/255 23/28/260
f 18/95/261 72/122/262 70/121/263
f 68/123/264 71/119/265 69/124/266
f 72/122/267 7/15/268 67/120/269
f 71/119/270 28/38/271 69/124/272
f 7/15/273 72/122/274 1/16/275
f 18/95/276 17/93/277 72/122/274
f 1/16/275 72/122/274 9/77/278
f 17/93/277 16/91/279 72/122/274
f 9/77/278 72/122/274 10/79/280
f 16/91/279 15/89/281 72/122/274
f 10/79/280 72/122/274 11/81/282
f 15/89/281 14/87/283 72/122/274
f 11/81/282 72/122/274 12/83/284
f 14/87/283 13/85/285 72/122/274
f 72/122/274 13/85/285 12/83/284
f 71/119/286 68/123/287 8/12/288
