# This file uses centimeters as units for non-parametric coordinates.

mtllib baners_01.mtl
g default
v -48.982430 9.649701 48.364822
v -48.982430 0.363044 48.364822
v -48.982430 9.649701 13.718794
v -48.982430 0.363044 13.718794
vt 0.002582 0.997972
vt 0.002582 0.002028
vt 0.998598 0.997972
vt 0.998598 0.002028
vn 1.000000 0.000000 0.000000
vn 1.000000 0.000000 0.000000
vn 1.000000 0.000000 0.000000
vn 1.000000 0.000000 0.000000
vn 1.000000 0.000000 0.000000
vn 1.000000 0.000000 0.000000
s off
g pasted__polySurface1 pasted__pCube24 group
usemtl initialShadingGroup
f 1/1/1 2/2/2 3/3/3
f 3/3/4 2/2/5 4/4/6
g default
v 48.975861 9.649701 -48.364822
v 48.975861 0.363044 -48.364822
v 48.975861 9.649701 -13.718794
v 48.975861 0.363044 -13.718794
vt 0.002582 0.997972
vt 0.002582 0.002028
vt 0.998598 0.997972
vt 0.998598 0.002028
vn -1.000000 0.000000 -0.000000
vn -1.000000 0.000000 -0.000000
vn -1.000000 0.000000 -0.000000
vn -1.000000 0.000000 -0.000000
vn -1.000000 0.000000 -0.000000
vn -1.000000 0.000000 -0.000000
s off
g pasted__pasted__polySurface1 pasted__pasted__pCube24 pasted__group group1
usemtl initialShadingGroup
f 5/5/7 6/6/8 7/7/9
f 7/7/10 6/6/11 8/8/12
