# This file uses centimeters as units for non-parametric coordinates.

mtllib Map002.mtl
g default
v -50.000000 -0.000000 50.000000
v 50.000000 -0.000000 50.000000
v -50.000000 0.000000 -50.000000
v 50.000000 0.000000 -50.000000
v 0.000000 0.000000 0.000000
vt 0.000000 0.000000
vt 1.000000 0.000000
vt 0.000000 1.000000
vt 1.000000 1.000000
vt 0.500000 0.500000
vn 0.000000 1.000000 0.000000
vn 0.000000 1.000000 0.000000
vn 0.000000 1.000000 0.000000
vn 0.000000 1.000000 0.000000
vn 0.000000 1.000000 0.000000
s 1
g pPlane1
usemtl initialShadingGroup
f 1/1/1 5/5/2 3/3/3
f 3/3/3 5/5/2 4/4/4
f 1/1/1 2/2/5 5/5/2
f 4/4/4 5/5/2 2/2/5
