# This file uses centimeters as units for non-parametric coordinates.

mtllib PlayerModel_LP.mtl
v -0.449662 -0.167578 -0.690315
v -0.482946 -0.035093 -0.544233
v -0.515359 -0.035342 -0.825213
v -0.548643 0.097144 -0.679131
v -0.329413 0.035093 -0.846726
v -0.362696 0.167578 -0.700644
v -0.263716 -0.097144 -0.711828
v -0.296999 0.035342 -0.565746
v 0.242980 -0.404509 -0.202993
v -0.087415 -0.404509 -0.304005
v -0.285581 -0.404509 -0.020995
v -0.077659 -0.404509 0.254927
v 0.249010 -0.404509 0.142446
v 0.388041 -0.154508 -0.312304
v -0.146550 -0.154508 -0.475745
v -0.467189 -0.154508 -0.017825
v -0.130764 -0.154508 0.428626
v 0.397797 -0.154508 0.246628
v 0.388041 0.154508 -0.312304
v -0.146550 0.154508 -0.475745
v -0.467189 0.154508 -0.017825
v -0.130764 0.154508 0.428626
v 0.397797 0.154508 0.246628
v 0.242980 0.404509 -0.202993
v -0.087415 0.404509 -0.304005
v -0.285581 0.404509 -0.020995
v -0.077659 0.404509 0.254927
v 0.249010 0.404509 0.142446
v 0.008267 -0.500000 -0.026124
v 0.008267 0.500000 -0.026124
v -0.016309 0.390242 -0.249640
v -0.243525 0.390242 -0.022423
v -0.016309 0.390242 0.204793
v 0.210908 0.390242 -0.022423
v 0.183289 0.682215 -0.146658
v 0.082568 0.754943 -0.022423
v 0.183289 0.682215 0.101811
v 0.284011 0.609488 -0.022423
v 0.394516 0.806384 -0.084540
v 0.371740 0.864175 -0.022423
v 0.394516 0.806384 0.039694
v 0.417292 0.748593 -0.022423
v 0.701048 0.892808 -0.022423
v -0.426617 -0.150000 0.780611
v -0.254061 -0.050000 0.765633
v -0.521883 0.020711 0.822828
v -0.349327 0.120711 0.807850
v -0.555776 0.050000 0.627909
v -0.383220 0.150000 0.612931
v -0.460510 -0.120711 0.585692
v -0.287954 -0.020711 0.570714
v 0.884798 -0.150000 -0.041299
v 0.756177 -0.050000 -0.157302
v 0.980638 0.020711 -0.000404
v 0.852017 0.120711 -0.116407
v 0.861176 0.050000 0.157302
v 0.732555 0.150000 0.041299
v 0.765336 -0.120711 0.116407
v 0.636715 -0.020711 0.000404
v 0.718350 0.050000 -0.521912
v 0.274385 0.050000 -0.844471
v -0.274385 0.050000 -0.844471
v -0.718350 0.050000 -0.521912
v -0.887930 0.050000 0.000000
v -0.718350 0.050000 0.521912
v -0.274385 0.050000 0.844471
v 0.274385 0.050000 0.844471
v 0.718350 0.050000 0.521912
v 0.887930 0.050000 0.000000
v 0.588733 0.050000 -0.427739
v 0.224876 0.050000 -0.692097
v -0.224876 0.050000 -0.692097
v -0.588733 0.050000 -0.427739
v -0.727714 0.050000 0.000000
v -0.588733 0.050000 0.427739
v -0.224876 0.050000 0.692097
v 0.224876 0.050000 0.692097
v 0.588733 0.050000 0.427739
v 0.727714 0.050000 0.000000
v -0.264954 -0.004885 0.173579
v -0.134666 -0.151789 0.241445
v -0.004378 -0.004885 0.309312
v -0.134666 0.142019 0.241445
v -0.376014 -0.004885 0.704777
v 0.292449 -0.004885 0.142825
v 0.293482 -0.151789 -0.004076
v 0.294514 -0.004885 -0.150976
v 0.293482 0.142019 -0.004076
v 0.815891 -0.004885 -0.000404
v 0.014102 -0.004885 -0.399169
v -0.102797 -0.151789 -0.310200
v -0.219696 -0.004885 -0.221231
v -0.102797 0.142019 -0.310200
v -0.419189 -0.004885 -0.725918
vt 0.556750 0.716027
vt 0.587313 0.716027
vt 0.556750 0.746590
vt 0.587313 0.746590
vt 0.556750 0.777153
vt 0.587313 0.777153
vt 0.556750 0.807716
vt 0.587313 0.807716
vt 0.556750 0.838279
vt 0.587313 0.838279
vt 0.617876 0.716027
vt 0.617876 0.746590
vt 0.526187 0.716027
vt 0.526187 0.746590
vt 0.278137 0.582635
vt 0.305787 0.582635
vt 0.305787 0.610285
vt 0.278137 0.610285
vt 0.333436 0.582635
vt 0.333436 0.610285
vt 0.361085 0.582635
vt 0.361085 0.610285
vt 0.388734 0.582635
vt 0.388734 0.610285
vt 0.416383 0.582635
vt 0.416383 0.610285
vt 0.305787 0.637934
vt 0.278137 0.637934
vt 0.333436 0.637934
vt 0.361085 0.637934
vt 0.388734 0.637934
vt 0.416383 0.637934
vt 0.305787 0.665583
vt 0.278137 0.665583
vt 0.333436 0.665583
vt 0.361085 0.665583
vt 0.388734 0.665583
vt 0.416383 0.665583
vt 0.291962 0.554986
vt 0.319611 0.554986
vt 0.347260 0.554986
vt 0.374909 0.554986
vt 0.402559 0.554986
vt 0.291962 0.693232
vt 0.319611 0.693232
vt 0.347260 0.693232
vt 0.374909 0.693232
vt 0.402559 0.693232
vt 0.467868 0.327908
vt 0.486294 0.327908
vt 0.492436 0.421885
vt 0.480152 0.421885
vt 0.504720 0.327908
vt 0.504720 0.421885
vt 0.523146 0.327908
vt 0.517004 0.421885
vt 0.541572 0.327908
vt 0.529288 0.421885
vt 0.498578 0.515862
vt 0.492436 0.515862
vt 0.504720 0.515862
vt 0.510862 0.515862
vt 0.517004 0.515862
vt 0.504720 0.609839
vt 0.556750 0.716027
vt 0.587313 0.716027
vt 0.587313 0.746590
vt 0.556750 0.746590
vt 0.587313 0.777153
vt 0.556750 0.777153
vt 0.587313 0.807716
vt 0.556750 0.807716
vt 0.587313 0.838279
vt 0.556750 0.838279
vt 0.617876 0.716027
vt 0.617876 0.746590
vt 0.526187 0.716027
vt 0.526187 0.746590
vt 0.556750 0.716027
vt 0.587313 0.716027
vt 0.587313 0.746590
vt 0.556750 0.746590
vt 0.587313 0.777153
vt 0.556750 0.777153
vt 0.587313 0.807716
vt 0.556750 0.807716
vt 0.587313 0.838279
vt 0.556750 0.838279
vt 0.617876 0.716027
vt 0.617876 0.746590
vt 0.526187 0.716027
vt 0.526187 0.746590
vt 0.125923 0.329582
vt 0.125566 0.315739
vt 0.157819 0.315689
vt 0.158177 0.329531
vt 0.125208 0.301897
vt 0.157462 0.301846
vt 0.124851 0.288054
vt 0.157104 0.288004
vt 0.124493 0.274212
vt 0.156747 0.274162
vt 0.124136 0.260370
vt 0.156389 0.260319
vt 0.123778 0.246527
vt 0.156032 0.246477
vt 0.123421 0.232685
vt 0.155674 0.232634
vt 0.123063 0.218842
vt 0.155317 0.218792
vt 0.122706 0.205000
vt 0.154959 0.204949
vt 0.122348 0.191157
vt 0.154602 0.191107
vt 0.096263 0.582919
vt 0.124486 0.582919
vt 0.152709 0.696626
vt 0.152709 0.582919
vt 0.180932 0.582919
vt 0.209155 0.582919
vt 0.096263 0.582919
vt 0.124486 0.582919
vt 0.152709 0.696626
vt 0.152709 0.582919
vt 0.180932 0.582919
vt 0.209155 0.582919
vt 0.096263 0.582919
vt 0.124486 0.582919
vt 0.152709 0.696626
vt 0.152709 0.582919
vt 0.180932 0.582919
vt 0.209155 0.582919
vn -0.929733 -0.352174 0.107565
vn -0.929733 -0.352173 0.107565
vn -0.929733 -0.352173 0.107565
vn -0.929733 -0.352173 0.107565
vn -0.328485 0.661184 -0.674488
vn -0.328485 0.661184 -0.674488
vn -0.328485 0.661184 -0.674488
vn -0.328485 0.661184 -0.674488
vn 0.929733 0.352173 -0.107565
vn 0.929733 0.352173 -0.107565
vn 0.929733 0.352173 -0.107565
vn 0.929733 0.352174 -0.107565
vn 0.328484 -0.661184 0.674488
vn 0.328484 -0.661184 0.674488
vn 0.328484 -0.661184 0.674488
vn 0.328484 -0.661184 0.674488
vn -0.166416 0.662427 0.730408
vn -0.166416 0.662427 0.730408
vn -0.166416 0.662427 0.730408
vn -0.166416 0.662427 0.730408
vn 0.166417 -0.662427 -0.730408
vn 0.166417 -0.662427 -0.730408
vn 0.166417 -0.662427 -0.730408
vn 0.166417 -0.662427 -0.730408
vn 0.252055 -0.506732 -0.824434
vn 0.252055 -0.506732 -0.824434
vn 0.252055 -0.506732 -0.824434
vn 0.252055 -0.506732 -0.824434
vn -0.706194 -0.506732 -0.494482
vn -0.706194 -0.506732 -0.494482
vn -0.706194 -0.506732 -0.494482
vn -0.706194 -0.506732 -0.494483
vn -0.688507 -0.506732 0.518827
vn -0.688507 -0.506732 0.518827
vn -0.688507 -0.506732 0.518827
vn -0.688507 -0.506732 0.518827
vn 0.280674 -0.506732 0.815135
vn 0.280674 -0.506732 0.815135
vn 0.280674 -0.506732 0.815135
vn 0.280673 -0.506732 0.815135
vn 0.861972 -0.506732 -0.015046
vn 0.861972 -0.506732 -0.015046
vn 0.861972 -0.506732 -0.015046
vn 0.861972 -0.506732 -0.015046
vn 0.292372 0.000000 -0.956305
vn 0.292372 0.000000 -0.956305
vn 0.292372 0.000000 -0.956305
vn 0.292372 0.000000 -0.956305
vn -0.819152 0.000000 -0.573576
vn -0.819152 0.000000 -0.573576
vn -0.819152 0.000000 -0.573576
vn -0.819152 0.000000 -0.573576
vn -0.798636 0.000000 0.601815
vn -0.798636 0.000000 0.601815
vn -0.798636 0.000000 0.601815
vn -0.798635 0.000000 0.601815
vn 0.325568 0.000000 0.945519
vn 0.325568 0.000000 0.945519
vn 0.325568 0.000000 0.945519
vn 0.325568 0.000000 0.945519
vn 0.999848 0.000000 -0.017452
vn 0.999848 0.000000 -0.017452
vn 0.999848 0.000000 -0.017452
vn 0.999848 0.000000 -0.017452
vn 0.252055 0.506732 -0.824434
vn 0.252055 0.506732 -0.824434
vn 0.252055 0.506732 -0.824434
vn 0.252055 0.506732 -0.824434
vn -0.706194 0.506732 -0.494482
vn -0.706194 0.506732 -0.494482
vn -0.706194 0.506732 -0.494482
vn -0.706194 0.506732 -0.494482
vn -0.688507 0.506732 0.518827
vn -0.688507 0.506732 0.518827
vn -0.688507 0.506732 0.518827
vn -0.688507 0.506732 0.518827
vn 0.280673 0.506732 0.815135
vn 0.280674 0.506732 0.815135
vn 0.280674 0.506732 0.815135
vn 0.280674 0.506732 0.815135
vn 0.861972 0.506732 -0.015046
vn 0.861972 0.506732 -0.015046
vn 0.861972 0.506732 -0.015046
vn 0.861972 0.506732 -0.015046
vn 0.108964 -0.927957 -0.356403
vn 0.108964 -0.927957 -0.356404
vn 0.108964 -0.927957 -0.356403
vn -0.305289 -0.927957 -0.213765
vn -0.305289 -0.927957 -0.213765
vn -0.305289 -0.927957 -0.213765
vn -0.297642 -0.927957 0.224290
vn -0.297642 -0.927957 0.224290
vn -0.297642 -0.927957 0.224290
vn 0.121336 -0.927957 0.352384
vn 0.121336 -0.927957 0.352384
vn 0.121336 -0.927957 0.352384
vn 0.372632 -0.927957 -0.006504
vn 0.372632 -0.927957 -0.006504
vn 0.372632 -0.927957 -0.006504
vn 0.108964 0.927957 -0.356404
vn 0.108964 0.927957 -0.356404
vn 0.108964 0.927957 -0.356404
vn -0.305289 0.927957 -0.213765
vn -0.305289 0.927957 -0.213765
vn -0.305289 0.927957 -0.213765
vn -0.297642 0.927957 0.224290
vn -0.297642 0.927957 0.224290
vn -0.297642 0.927957 0.224290
vn 0.121336 0.927957 0.352384
vn 0.121336 0.927957 0.352384
vn 0.121336 0.927957 0.352384
vn 0.372632 0.927957 -0.006504
vn 0.372632 0.927957 -0.006504
vn 0.372632 0.927956 -0.006504
vn -0.745463 0.666547 0.000000
vn -0.622203 0.782856 0.000000
vn -0.274197 0.420711 -0.864765
vn 0.141392 0.260220 -0.955141
vn -0.274197 0.420711 0.864765
vn 0.141392 0.260220 0.955141
vn 0.949259 -0.314496 -0.000000
vn 0.864153 -0.503229 0.000000
vn -0.222870 0.974848 -0.000000
vn 0.206787 0.097960 -0.973470
vn 0.206787 0.097962 0.973469
vn 0.576601 -0.817026 -0.000000
vn -0.062532 0.719172 -0.692013
vn -0.062533 0.719173 0.692011
vn 0.321094 -0.631782 0.705515
vn 0.321094 -0.631782 -0.705514
vn 0.169464 -0.146447 0.974595
vn 0.169464 -0.146447 0.974595
vn 0.169464 -0.146447 0.974595
vn 0.169465 -0.146446 0.974595
vn -0.476330 0.853553 0.211084
vn -0.476330 0.853553 0.211084
vn -0.476330 0.853553 0.211084
vn -0.476330 0.853554 0.211084
vn -0.169466 0.146446 -0.974595
vn -0.169465 0.146447 -0.974595
vn -0.169465 0.146447 -0.974595
vn -0.169465 0.146447 -0.974595
vn 0.476330 -0.853553 -0.211084
vn 0.476330 -0.853553 -0.211084
vn 0.476330 -0.853553 -0.211084
vn 0.476330 -0.853553 -0.211084
vn 0.862781 0.500000 -0.074890
vn 0.862781 0.500000 -0.074890
vn 0.862781 0.500000 -0.074890
vn 0.862781 0.500000 -0.074890
vn -0.862781 -0.500000 0.074890
vn -0.862781 -0.500000 0.074890
vn -0.862781 -0.500000 0.074890
vn -0.862781 -0.500000 0.074890
vn 0.597311 -0.146446 -0.788526
vn 0.597310 -0.146447 -0.788526
vn 0.597310 -0.146447 -0.788526
vn 0.597310 -0.146447 -0.788526
vn 0.479204 0.853554 0.204474
vn 0.479204 0.853554 0.204475
vn 0.479204 0.853554 0.204475
vn 0.479204 0.853553 0.204475
vn -0.597311 0.146446 0.788526
vn -0.597311 0.146447 0.788526
vn -0.597311 0.146447 0.788526
vn -0.597310 0.146447 0.788526
vn -0.479204 -0.853554 -0.204475
vn -0.479204 -0.853554 -0.204475
vn -0.479204 -0.853554 -0.204475
vn -0.479204 -0.853554 -0.204475
vn -0.643104 0.500000 -0.580014
vn -0.643105 0.500000 -0.580014
vn -0.643105 0.500000 -0.580014
vn -0.643105 0.499999 -0.580014
vn 0.643105 -0.500000 0.580014
vn 0.643105 -0.500000 0.580014
vn 0.643105 -0.500000 0.580014
vn 0.643105 -0.500000 0.580014
vn 0.000000 1.000000 0.000000
vn 0.000000 1.000000 0.000000
vn 0.000000 1.000000 0.000000
vn 0.000000 1.000000 0.000000
vn 0.000000 1.000000 0.000000
vn 0.000000 1.000000 0.000000
vn 0.000000 1.000000 0.000000
vn 0.000000 1.000000 0.000000
vn 0.000000 1.000000 0.000000
vn 0.000000 1.000000 0.000000
vn 0.000000 1.000000 0.000000
vn 0.000000 1.000000 0.000000
vn 0.000000 1.000000 0.000000
vn 0.000000 1.000000 -0.000000
vn 0.000000 1.000000 0.000000
vn 0.000000 1.000000 -0.000000
vn 0.000000 1.000000 0.000000
vn 0.000000 1.000000 0.000000
vn 0.000000 1.000000 0.000000
vn 0.000000 1.000000 0.000000
vn 0.000000 1.000000 -0.000000
vn 0.000000 1.000000 -0.000000
vn 0.000000 1.000000 -0.000000
vn 0.000000 1.000000 0.000000
vn 0.000000 1.000000 -0.000000
vn 0.000000 1.000000 -0.000000
vn 0.000000 1.000000 -0.000000
vn 0.000000 1.000000 0.000000
vn 0.000000 1.000000 -0.000000
vn 0.000000 1.000000 0.000000
vn 0.000000 1.000000 0.000000
vn 0.000000 1.000000 0.000000
vn 0.000000 1.000000 0.000000
vn 0.000000 1.000000 -0.000000
vn 0.000000 1.000000 0.000000
vn 0.000000 1.000000 -0.000000
vn 0.000000 1.000000 0.000000
vn 0.000000 1.000000 0.000000
vn 0.000000 1.000000 0.000000
vn 0.000000 1.000000 0.000000
vn -0.705181 -0.693529 -0.147435
vn -0.705181 -0.693529 -0.147435
vn -0.705181 -0.693529 -0.147435
vn 0.524991 -0.693530 0.493357
vn 0.524991 -0.693530 0.493357
vn 0.524991 -0.693530 0.493357
vn 0.524991 0.693529 0.493357
vn 0.524991 0.693529 0.493357
vn 0.524991 0.693529 0.493357
vn -0.705181 0.693530 -0.147435
vn -0.705181 0.693529 -0.147435
vn -0.705181 0.693530 -0.147435
vn 0.190140 -0.693529 0.694884
vn 0.190140 -0.693529 0.694884
vn 0.190140 -0.693529 0.694884
vn 0.199889 -0.693530 -0.692143
vn 0.199888 -0.693530 -0.692143
vn 0.199888 -0.693530 -0.692143
vn 0.199888 0.693530 -0.692143
vn 0.199888 0.693530 -0.692143
vn 0.199888 0.693530 -0.692143
vn 0.190140 0.693530 0.694884
vn 0.190140 0.693530 0.694884
vn 0.190140 0.693530 0.694884
vn 0.433768 -0.693529 -0.575206
vn 0.433768 -0.693529 -0.575206
vn 0.433768 -0.693529 -0.575206
vn -0.669985 -0.693529 0.264833
vn -0.669985 -0.693529 0.264833
vn -0.669985 -0.693529 0.264833
vn -0.669985 0.693530 0.264833
vn -0.669985 0.693529 0.264833
vn -0.669985 0.693529 0.264833
vn 0.433768 0.693529 -0.575206
vn 0.433768 0.693529 -0.575206
vn 0.433768 0.693529 -0.575206
usemtl initialShadingGroup
f 1/1/1 2/2/2 3/3/3
f 3/3/3 2/2/2 4/4/4
f 3/3/5 4/4/6 5/5/7
f 5/5/7 4/4/6 6/6/8
f 5/5/9 6/6/10 7/7/11
f 7/7/11 6/6/10 8/8/12
f 7/7/13 8/8/14 1/9/15
f 1/9/15 8/8/14 2/10/16
f 2/2/17 8/11/18 4/4/19
f 4/4/19 8/11/18 6/12/20
f 7/13/21 1/1/22 5/14/23
f 5/14/23 1/1/22 3/3/24
f 9/15/25 10/16/26 14/18/27
f 14/18/27 10/16/26 15/17/28
f 10/16/29 11/19/30 15/17/31
f 15/17/31 11/19/30 16/20/32
f 11/19/33 12/21/34 16/20/35
f 16/20/35 12/21/34 17/22/36
f 12/21/37 13/23/38 17/22/39
f 17/22/39 13/23/38 18/24/40
f 13/23/41 9/25/42 18/24/43
f 18/24/43 9/25/42 14/26/44
f 14/18/45 15/17/46 19/28/47
f 19/28/47 15/17/46 20/27/48
f 15/17/49 16/20/50 20/27/51
f 20/27/51 16/20/50 21/29/52
f 16/20/53 17/22/54 21/29/55
f 21/29/55 17/22/54 22/30/56
f 17/22/57 18/24/58 22/30/59
f 22/30/59 18/24/58 23/31/60
f 18/24/61 14/26/62 23/31/63
f 23/31/63 14/26/62 19/32/64
f 19/28/65 20/27/66 24/34/67
f 24/34/67 20/27/66 25/33/68
f 20/27/69 21/29/70 25/33/71
f 25/33/71 21/29/70 26/35/72
f 21/29/73 22/30/74 26/35/75
f 26/35/75 22/30/74 27/36/76
f 22/30/77 23/31/78 27/36/79
f 27/36/79 23/31/78 28/37/80
f 23/31/81 19/32/82 28/37/83
f 28/37/83 19/32/82 24/38/84
f 10/16/85 9/15/86 29/39/87
f 11/19/88 10/16/89 29/40/90
f 12/21/91 11/19/92 29/41/93
f 13/23/94 12/21/95 29/42/96
f 9/25/97 13/23/98 29/43/99
f 24/34/100 25/33/101 30/44/102
f 25/33/103 26/35/104 30/45/105
f 26/35/106 27/36/107 30/46/108
f 27/36/109 28/37/110 30/47/111
f 28/37/112 24/38/113 30/48/114
f 32/50/115 36/51/116 31/49/117
f 31/49/117 36/51/116 35/52/118
f 32/50/115 33/53/119 36/51/116
f 36/51/116 33/53/119 37/54/120
f 33/53/119 34/55/121 37/54/120
f 37/54/120 34/55/121 38/56/122
f 31/57/117 35/58/118 34/55/121
f 34/55/121 35/58/118 38/56/122
f 36/51/116 40/59/123 35/52/118
f 35/52/118 40/59/123 39/60/124
f 36/51/116 37/54/120 40/59/123
f 40/59/123 37/54/120 41/61/125
f 37/54/120 38/56/122 41/61/125
f 41/61/125 38/56/122 42/62/126
f 35/58/118 39/63/124 38/56/122
f 38/56/122 39/63/124 42/62/126
f 39/60/124 40/59/123 43/64/127
f 40/59/123 41/61/125 43/64/128
f 41/61/125 42/62/126 43/64/129
f 42/62/126 39/63/124 43/64/130
f 44/65/131 45/66/132 46/68/133
f 46/68/133 45/66/132 47/67/134
f 46/68/135 47/67/136 48/70/137
f 48/70/137 47/67/136 49/69/138
f 48/70/139 49/69/140 50/72/141
f 50/72/141 49/69/140 51/71/142
f 50/72/143 51/71/144 44/74/145
f 44/74/145 51/71/144 45/73/146
f 45/66/147 51/75/148 47/67/149
f 47/67/149 51/75/148 49/76/150
f 50/77/151 44/65/152 48/78/153
f 48/78/153 44/65/152 46/68/154
f 52/79/155 53/80/156 54/82/157
f 54/82/157 53/80/156 55/81/158
f 54/82/159 55/81/160 56/84/161
f 56/84/161 55/81/160 57/83/162
f 56/84/163 57/83/164 58/86/165
f 58/86/165 57/83/164 59/85/166
f 58/86/167 59/85/168 52/88/169
f 52/88/169 59/85/168 53/87/170
f 53/80/171 59/89/172 55/81/173
f 55/81/173 59/89/172 57/90/174
f 58/91/175 52/79/176 56/92/177
f 56/92/177 52/79/176 54/82/178
f 60/93/179 61/94/180 70/96/181
f 70/96/181 61/94/180 71/95/182
f 61/94/183 62/97/184 71/95/185
f 71/95/185 62/97/184 72/98/186
f 62/97/187 63/99/188 72/98/189
f 72/98/189 63/99/188 73/100/190
f 63/99/191 64/101/192 73/100/193
f 73/100/193 64/101/192 74/102/194
f 64/101/195 65/103/196 74/102/197
f 74/102/197 65/103/196 75/104/198
f 65/103/199 66/105/200 75/104/201
f 75/104/201 66/105/200 76/106/202
f 66/105/203 67/107/204 76/106/205
f 76/106/205 67/107/204 77/108/206
f 67/107/207 68/109/208 77/108/209
f 77/108/209 68/109/208 78/110/210
f 68/109/211 69/111/212 78/110/213
f 78/110/213 69/111/212 79/112/214
f 69/111/215 60/113/216 79/112/217
f 79/112/217 60/113/216 70/114/218
f 80/115/219 81/116/220 84/117/221
f 81/116/222 82/118/223 84/117/224
f 82/118/225 83/119/226 84/117/227
f 83/119/228 80/120/229 84/117/230
f 85/121/231 86/122/232 89/123/233
f 86/122/234 87/124/235 89/123/236
f 87/124/237 88/125/238 89/123/239
f 88/125/240 85/126/241 89/123/242
f 90/127/243 91/128/244 94/129/245
f 91/128/246 92/130/247 94/129/248
f 92/130/249 93/131/250 94/129/251
f 93/131/252 90/132/253 94/129/254
