# This file uses centimeters as units for non-parametric coordinates.

mtllib ShockWave.mtl
g default
v -1.000000 -0.173971 1.000000
v -0.800000 -0.173971 1.000000
v -0.600000 -0.173971 0.999999
v -0.400000 -0.175312 1.000000
v -0.200000 -0.171314 1.000000
v 0.000000 -0.155620 1.000000
v 0.200000 -0.171314 1.000000
v 0.400000 -0.175312 1.000000
v 0.600000 -0.173971 1.000000
v 0.800000 -0.173971 1.000001
v 1.000000 -0.173971 1.000000
v -1.000000 -0.173971 0.800000
v -0.800000 -0.087324 0.800000
v -0.600000 -0.087324 0.800000
v -0.400000 -0.078014 0.800000
v -0.200000 -0.049382 0.800000
v 0.000000 -0.013079 0.800000
v 0.200000 -0.049382 0.800000
v 0.400000 -0.078014 0.800000
v 0.600000 -0.087324 0.800000
v 0.800000 -0.087324 0.800000
v 1.000000 -0.173971 0.799999
v -1.000000 -0.173971 0.600000
v -0.800000 -0.087324 0.600000
v -0.600000 -0.171314 0.600000
v -0.400000 -0.168424 0.600000
v -0.200000 -0.158658 0.600000
v 0.000000 -0.147111 0.600000
v 0.200000 -0.158659 0.600000
v 0.400000 -0.168424 0.600000
v 0.600000 -0.171314 0.600000
v 0.800000 -0.087324 0.600000
v 1.000000 -0.173971 0.600000
v -1.000000 -0.175312 0.400000
v -0.800000 -0.078014 0.400000
v -0.600000 -0.168424 0.400000
v -0.400000 -0.013079 0.400000
v -0.200000 -0.002507 0.400000
v 0.000000 0.000000 0.400000
v 0.200000 -0.002507 0.400000
v 0.400000 -0.013079 0.400000
v 0.600000 -0.168424 0.400000
v 0.800000 -0.078014 0.400000
v 1.000000 -0.175312 0.400000
v -1.000001 -0.171314 0.200000
v -0.800000 -0.049382 0.200000
v -0.600000 -0.158658 0.200000
v -0.400000 -0.002507 0.200000
v -0.200000 -0.145265 0.200000
v 0.000000 -0.145265 0.200000
v 0.200000 -0.145265 0.200000
v 0.400000 -0.002507 0.200000
v 0.600000 -0.158659 0.200000
v 0.800000 -0.049382 0.200000
v 1.000001 -0.171314 0.200000
v -1.000000 -0.155620 0.000000
v -0.800000 -0.013079 -0.000000
v -0.600000 -0.147111 0.000000
v -0.400000 0.000000 0.000000
v -0.200000 -0.145265 0.000000
v 0.000000 0.000000 0.000000
v 0.200000 -0.145265 0.000000
v 0.400000 0.000000 0.000000
v 0.600000 -0.147111 -0.000000
v 0.800000 -0.013079 0.000000
v 1.000000 -0.155620 0.000000
v -1.000001 -0.171314 -0.200000
v -0.800000 -0.049382 -0.200000
v -0.600000 -0.158658 -0.200000
v -0.400000 -0.002507 -0.200000
v -0.200000 -0.145265 -0.200000
v 0.000000 -0.145265 -0.200000
v 0.200000 -0.145265 -0.200000
v 0.400000 -0.002507 -0.200000
v 0.600000 -0.158659 -0.200000
v 0.800000 -0.049382 -0.200000
v 1.000001 -0.171314 -0.200000
v -1.000000 -0.175312 -0.400000
v -0.800000 -0.078014 -0.400000
v -0.600000 -0.168424 -0.400000
v -0.400000 -0.013079 -0.400000
v -0.200000 -0.002507 -0.400000
v 0.000000 0.000000 -0.400000
v 0.200000 -0.002507 -0.400000
v 0.400000 -0.013079 -0.400000
v 0.600000 -0.168424 -0.400000
v 0.800000 -0.078014 -0.400000
v 1.000000 -0.175312 -0.400000
v -0.999999 -0.173971 -0.600000
v -0.800000 -0.087324 -0.600000
v -0.600000 -0.171314 -0.600000
v -0.400000 -0.168424 -0.600000
v -0.200000 -0.158659 -0.600000
v -0.000000 -0.147111 -0.600000
v 0.200000 -0.158659 -0.600000
v 0.400000 -0.168424 -0.600000
v 0.600000 -0.171314 -0.600000
v 0.800000 -0.087324 -0.600000
v 1.000000 -0.173971 -0.600000
v -1.000000 -0.173971 -0.800000
v -0.800000 -0.087324 -0.800000
v -0.600000 -0.087324 -0.800000
v -0.400000 -0.078015 -0.800001
v -0.200000 -0.049382 -0.800000
v 0.000000 -0.013079 -0.800000
v 0.200000 -0.049382 -0.800000
v 0.400000 -0.078014 -0.800000
v 0.600000 -0.087324 -0.800000
v 0.800000 -0.087324 -0.800000
v 1.000000 -0.173971 -0.799999
v -0.999999 -0.173971 -1.000000
v -0.799999 -0.173971 -1.000000
v -0.600000 -0.173971 -1.000000
v -0.399999 -0.175312 -1.000000
v -0.200000 -0.171314 -1.000000
v 0.000000 -0.155620 -1.000000
v 0.200000 -0.171314 -1.000000
v 0.400000 -0.175312 -1.000000
v 0.600001 -0.173971 -1.000000
v 0.800000 -0.173971 -1.000000
v 1.000000 -0.173971 -1.000000
vt 0.000000 0.000000
vt 0.100000 0.000000
vt 0.200000 0.000000
vt 0.300000 0.000000
vt 0.400000 0.000000
vt 0.500000 0.000000
vt 0.600000 0.000000
vt 0.700000 0.000000
vt 0.800000 0.000000
vt 0.900000 0.000000
vt 1.000000 0.000000
vt 0.000000 0.100000
vt 0.100000 0.100000
vt 0.200000 0.100000
vt 0.300000 0.100000
vt 0.400000 0.100000
vt 0.500000 0.100000
vt 0.600000 0.100000
vt 0.700000 0.100000
vt 0.800000 0.100000
vt 0.900000 0.100000
vt 1.000000 0.100000
vt 0.000000 0.200000
vt 0.100000 0.200000
vt 0.200000 0.200000
vt 0.300000 0.200000
vt 0.400000 0.200000
vt 0.500000 0.200000
vt 0.600000 0.200000
vt 0.700000 0.200000
vt 0.800000 0.200000
vt 0.900000 0.200000
vt 1.000000 0.200000
vt 0.000000 0.300000
vt 0.100000 0.300000
vt 0.200000 0.300000
vt 0.300000 0.300000
vt 0.400000 0.300000
vt 0.500000 0.300000
vt 0.600000 0.300000
vt 0.700000 0.300000
vt 0.800000 0.300000
vt 0.900000 0.300000
vt 1.000000 0.300000
vt 0.000000 0.400000
vt 0.100000 0.400000
vt 0.200000 0.400000
vt 0.300000 0.400000
vt 0.400000 0.400000
vt 0.500000 0.400000
vt 0.600000 0.400000
vt 0.700000 0.400000
vt 0.800000 0.400000
vt 0.900000 0.400000
vt 1.000000 0.400000
vt 0.000000 0.500000
vt 0.100000 0.500000
vt 0.200000 0.500000
vt 0.300000 0.500000
vt 0.400000 0.500000
vt 0.500000 0.500000
vt 0.600000 0.500000
vt 0.700000 0.500000
vt 0.800000 0.500000
vt 0.900000 0.500000
vt 1.000000 0.500000
vt 0.000000 0.600000
vt 0.100000 0.600000
vt 0.200000 0.600000
vt 0.300000 0.600000
vt 0.400000 0.600000
vt 0.500000 0.600000
vt 0.600000 0.600000
vt 0.700000 0.600000
vt 0.800000 0.600000
vt 0.900000 0.600000
vt 1.000000 0.600000
vt 0.000000 0.700000
vt 0.100000 0.700000
vt 0.200000 0.700000
vt 0.300000 0.700000
vt 0.400000 0.700000
vt 0.500000 0.700000
vt 0.600000 0.700000
vt 0.700000 0.700000
vt 0.800000 0.700000
vt 0.900000 0.700000
vt 1.000000 0.700000
vt 0.000000 0.800000
vt 0.100000 0.800000
vt 0.200000 0.800000
vt 0.300000 0.800000
vt 0.400000 0.800000
vt 0.500000 0.800000
vt 0.600000 0.800000
vt 0.700000 0.800000
vt 0.800000 0.800000
vt 0.900000 0.800000
vt 1.000000 0.800000
vt 0.000000 0.900000
vt 0.100000 0.900000
vt 0.200000 0.900000
vt 0.300000 0.900000
vt 0.400000 0.900000
vt 0.500000 0.900000
vt 0.600000 0.900000
vt 0.700000 0.900000
vt 0.800000 0.900000
vt 0.900000 0.900000
vt 1.000000 0.900000
vt 0.000000 1.000000
vt 0.100000 1.000000
vt 0.200000 1.000000
vt 0.300000 1.000000
vt 0.400000 1.000000
vt 0.500000 1.000000
vt 0.600000 1.000000
vt 0.700000 1.000000
vt 0.800000 1.000000
vt 0.900000 1.000000
vt 1.000000 1.000000
vn -0.000000 1.000000 0.000000
vn -0.109864 0.944554 0.309431
vn -0.309432 0.944554 0.109865
vn -0.202195 0.958246 0.202194
vn 0.003078 0.917584 0.397530
vn 0.043180 0.997498 0.055971
vn -0.017388 0.904042 0.427090
vn -0.070620 0.997264 0.021831
vn -0.067488 0.864432 0.498200
vn -0.135853 0.990318 0.028519
vn 0.000000 0.836024 0.548693
vn 0.000000 0.999795 0.020267
vn 0.067488 0.864431 0.498201
vn 0.135853 0.990318 0.028519
vn 0.017388 0.904042 0.427090
vn 0.070620 0.997264 0.021831
vn -0.003079 0.917584 0.397529
vn -0.043181 0.997498 0.055971
vn 0.109865 0.944554 0.309430
vn 0.202194 0.958246 0.202195
vn 0.000000 1.000000 0.000000
vn 0.309431 0.944554 0.109865
vn -0.397529 0.917584 -0.003079
vn -0.055971 0.997498 -0.043180
vn 0.190145 0.963166 -0.190146
vn -0.148365 0.984927 0.088917
vn -0.064317 0.989754 0.127480
vn 0.000000 0.996925 0.078358
vn 0.064317 0.989754 0.127480
vn 0.148365 0.984927 0.088917
vn -0.190145 0.963166 -0.190145
vn 0.055971 0.997498 -0.043180
vn 0.397531 0.917584 -0.003078
vn -0.427089 0.904042 0.017389
vn -0.021831 0.997264 0.070620
vn -0.088918 0.984927 0.148365
vn -0.342639 0.874756 0.342639
vn 0.076869 0.992543 0.094599
vn -0.000000 0.999990 0.004603
vn -0.076869 0.992543 0.094599
vn 0.342639 0.874756 0.342639
vn 0.088917 0.984927 0.148365
vn 0.021831 0.997264 0.070620
vn 0.427090 0.904042 0.017389
vn -0.498199 0.864432 0.067487
vn -0.028519 0.990318 0.135853
vn -0.127479 0.989754 0.064317
vn -0.094599 0.992543 -0.076869
vn 0.303632 0.903114 -0.303632
vn -0.000000 0.991657 -0.128906
vn -0.303632 0.903114 -0.303632
vn 0.094599 0.992543 -0.076869
vn 0.127479 0.989754 0.064317
vn 0.028518 0.990319 0.135853
vn 0.498199 0.864433 0.067487
vn -0.548691 0.836025 -0.000000
vn -0.020266 0.999795 -0.000000
vn -0.078358 0.996925 0.000000
vn -0.004603 0.999990 -0.000000
vn 0.128906 0.991657 -0.000000
vn 0.000000 1.000000 -0.000000
vn -0.128906 0.991657 -0.000000
vn 0.004603 0.999990 0.000000
vn 0.078358 0.996925 0.000000
vn 0.020267 0.999795 0.000000
vn 0.548691 0.836025 -0.000000
vn -0.028518 0.990318 -0.135853
vn -0.498199 0.864433 -0.067487
vn -0.127479 0.989754 -0.064317
vn -0.094599 0.992543 0.076870
vn 0.303632 0.903114 0.303632
vn 0.000000 0.991657 0.128906
vn -0.303632 0.903114 0.303632
vn 0.094599 0.992543 0.076869
vn 0.127479 0.989754 -0.064317
vn 0.028518 0.990318 -0.135853
vn 0.498199 0.864432 -0.067487
vn -0.021831 0.997264 -0.070620
vn -0.427090 0.904042 -0.017389
vn -0.088917 0.984927 -0.148365
vn -0.342639 0.874756 -0.342639
vn 0.076869 0.992543 -0.094599
vn 0.000000 0.999990 -0.004603
vn -0.076869 0.992543 -0.094599
vn 0.342639 0.874756 -0.342639
vn 0.088918 0.984927 -0.148365
vn 0.021831 0.997264 -0.070620
vn 0.427090 0.904042 -0.017389
vn -0.055971 0.997498 0.043180
vn -0.397531 0.917583 0.003078
vn 0.190146 0.963166 0.190146
vn -0.148364 0.984927 -0.088917
vn -0.064317 0.989754 -0.127480
vn 0.000000 0.996925 -0.078357
vn 0.064317 0.989754 -0.127480
vn 0.148365 0.984927 -0.088917
vn -0.190147 0.963166 0.190145
vn 0.055971 0.997498 0.043180
vn 0.397529 0.917584 0.003078
vn -0.309431 0.944554 -0.109865
vn -0.202195 0.958246 -0.202195
vn 0.043180 0.997498 -0.055970
vn -0.070620 0.997264 -0.021832
vn -0.135853 0.990318 -0.028518
vn 0.000000 0.999795 -0.020267
vn 0.135853 0.990318 -0.028518
vn 0.070620 0.997264 -0.021831
vn -0.043180 0.997498 -0.055971
vn 0.202194 0.958246 -0.202195
vn 0.309431 0.944554 -0.109865
vn -0.109864 0.944554 -0.309431
vn 0.000000 1.000000 0.000000
vn 0.003078 0.917584 -0.397529
vn -0.017388 0.904042 -0.427090
vn -0.067488 0.864431 -0.498201
vn 0.000000 0.836024 -0.548693
vn 0.067488 0.864431 -0.498201
vn 0.017388 0.904042 -0.427090
vn -0.003079 0.917584 -0.397530
vn 0.109865 0.944554 -0.309431
vn -0.000001 1.000000 0.000001
s 1
g pPlane1
usemtl initialShadingGroup
f 1/1/1 2/2/2 12/12/3
f 12/12/3 2/2/2 13/13/4
f 2/2/2 3/3/5 13/13/4
f 13/13/4 3/3/5 14/14/6
f 3/3/5 4/4/7 14/14/6
f 14/14/6 4/4/7 15/15/8
f 4/4/7 5/5/9 15/15/8
f 15/15/8 5/5/9 16/16/10
f 5/5/9 6/6/11 16/16/10
f 16/16/10 6/6/11 17/17/12
f 7/7/13 18/18/14 6/6/11
f 6/6/11 18/18/14 17/17/12
f 8/8/15 19/19/16 7/7/13
f 7/7/13 19/19/16 18/18/14
f 9/9/17 20/20/18 8/8/15
f 8/8/15 20/20/18 19/19/16
f 9/9/17 10/10/19 20/20/18
f 20/20/18 10/10/19 21/21/20
f 11/11/21 22/22/22 10/10/19
f 10/10/19 22/22/22 21/21/20
f 12/12/3 13/13/4 23/23/23
f 23/23/23 13/13/4 24/24/24
f 13/13/4 14/14/6 24/24/24
f 24/24/24 14/14/6 25/25/25
f 15/15/8 26/26/26 14/14/6
f 14/14/6 26/26/26 25/25/25
f 16/16/10 27/27/27 15/15/8
f 15/15/8 27/27/27 26/26/26
f 17/17/12 28/28/28 16/16/10
f 16/16/10 28/28/28 27/27/27
f 17/17/12 18/18/14 28/28/28
f 28/28/28 18/18/14 29/29/29
f 18/18/14 19/19/16 29/29/29
f 29/29/29 19/19/16 30/30/30
f 19/19/16 20/20/18 30/30/30
f 30/30/30 20/20/18 31/31/31
f 21/21/20 32/32/32 20/20/18
f 20/20/18 32/32/32 31/31/31
f 21/21/20 22/22/22 32/32/32
f 32/32/32 22/22/22 33/33/33
f 23/23/23 24/24/24 34/34/34
f 34/34/34 24/24/24 35/35/35
f 25/25/25 36/36/36 24/24/24
f 24/24/24 36/36/36 35/35/35
f 25/25/25 26/26/26 36/36/36
f 36/36/36 26/26/26 37/37/37
f 26/26/26 27/27/27 37/37/37
f 37/37/37 27/27/27 38/38/38
f 27/27/27 28/28/28 38/38/38
f 38/38/38 28/28/28 39/39/39
f 29/29/29 40/40/40 28/28/28
f 28/28/28 40/40/40 39/39/39
f 30/30/30 41/41/41 29/29/29
f 29/29/29 41/41/41 40/40/40
f 31/31/31 42/42/42 30/30/30
f 30/30/30 42/42/42 41/41/41
f 31/31/31 32/32/32 42/42/42
f 42/42/42 32/32/32 43/43/43
f 33/33/33 44/44/44 32/32/32
f 32/32/32 44/44/44 43/43/43
f 34/34/34 35/35/35 45/45/45
f 45/45/45 35/35/35 46/46/46
f 36/36/36 47/47/47 35/35/35
f 35/35/35 47/47/47 46/46/46
f 36/36/36 37/37/37 47/47/47
f 47/47/47 37/37/37 48/48/48
f 37/37/37 38/38/38 48/48/48
f 48/48/48 38/38/38 49/49/49
f 39/39/39 50/50/50 38/38/38
f 38/38/38 50/50/50 49/49/49
f 39/39/39 40/40/40 50/50/50
f 50/50/50 40/40/40 51/51/51
f 41/41/41 52/52/52 40/40/40
f 40/40/40 52/52/52 51/51/51
f 42/42/42 53/53/53 41/41/41
f 41/41/41 53/53/53 52/52/52
f 42/42/42 43/43/43 53/53/53
f 53/53/53 43/43/43 54/54/54
f 44/44/44 55/55/55 43/43/43
f 43/43/43 55/55/55 54/54/54
f 45/45/45 46/46/46 56/56/56
f 56/56/56 46/46/46 57/57/57
f 47/47/47 58/58/58 46/46/46
f 46/46/46 58/58/58 57/57/57
f 47/47/47 48/48/48 58/58/58
f 58/58/58 48/48/48 59/59/59
f 49/49/49 60/60/60 48/48/48
f 48/48/48 60/60/60 59/59/59
f 49/49/49 50/50/50 60/60/60
f 60/60/60 50/50/50 61/61/61
f 51/51/51 62/62/62 50/50/50
f 50/50/50 62/62/62 61/61/61
f 51/51/51 52/52/52 62/62/62
f 62/62/62 52/52/52 63/63/63
f 53/53/53 64/64/64 52/52/52
f 52/52/52 64/64/64 63/63/63
f 53/53/53 54/54/54 64/64/64
f 64/64/64 54/54/54 65/65/65
f 55/55/55 66/66/66 54/54/54
f 54/54/54 66/66/66 65/65/65
f 57/57/57 68/68/67 56/56/56
f 56/56/56 68/68/67 67/67/68
f 57/57/57 58/58/58 68/68/67
f 68/68/67 58/58/58 69/69/69
f 59/59/59 70/70/70 58/58/58
f 58/58/58 70/70/70 69/69/69
f 59/59/59 60/60/60 70/70/70
f 70/70/70 60/60/60 71/71/71
f 61/61/61 72/72/72 60/60/60
f 60/60/60 72/72/72 71/71/71
f 61/61/61 62/62/62 72/72/72
f 72/72/72 62/62/62 73/73/73
f 63/63/63 74/74/74 62/62/62
f 62/62/62 74/74/74 73/73/73
f 63/63/63 64/64/64 74/74/74
f 74/74/74 64/64/64 75/75/75
f 65/65/65 76/76/76 64/64/64
f 64/64/64 76/76/76 75/75/75
f 65/65/65 66/66/66 76/76/76
f 76/76/76 66/66/66 77/77/77
f 68/68/67 79/79/78 67/67/68
f 67/67/68 79/79/78 78/78/79
f 68/68/67 69/69/69 79/79/78
f 79/79/78 69/69/69 80/80/80
f 70/70/70 81/81/81 69/69/69
f 69/69/69 81/81/81 80/80/80
f 71/71/71 82/82/82 70/70/70
f 70/70/70 82/82/82 81/81/81
f 71/71/71 72/72/72 82/82/82
f 82/82/82 72/72/72 83/83/83
f 73/73/73 84/84/84 72/72/72
f 72/72/72 84/84/84 83/83/83
f 73/73/73 74/74/74 84/84/84
f 84/84/84 74/74/74 85/85/85
f 74/74/74 75/75/75 85/85/85
f 85/85/85 75/75/75 86/86/86
f 76/76/76 87/87/87 75/75/75
f 75/75/75 87/87/87 86/86/86
f 76/76/76 77/77/77 87/87/87
f 87/87/87 77/77/77 88/88/88
f 79/79/78 90/90/89 78/78/79
f 78/78/79 90/90/89 89/89/90
f 79/79/78 80/80/80 90/90/89
f 90/90/89 80/80/80 91/91/91
f 81/81/81 92/92/92 80/80/80
f 80/80/80 92/92/92 91/91/91
f 82/82/82 93/93/93 81/81/81
f 81/81/81 93/93/93 92/92/92
f 83/83/83 94/94/94 82/82/82
f 82/82/82 94/94/94 93/93/93
f 83/83/83 84/84/84 94/94/94
f 94/94/94 84/84/84 95/95/95
f 84/84/84 85/85/85 95/95/95
f 95/95/95 85/85/85 96/96/96
f 85/85/85 86/86/86 96/96/96
f 96/96/96 86/86/86 97/97/97
f 87/87/87 98/98/98 86/86/86
f 86/86/86 98/98/98 97/97/97
f 87/87/87 88/88/88 98/98/98
f 98/98/98 88/88/88 99/99/99
f 89/89/90 90/90/89 100/100/100
f 100/100/100 90/90/89 101/101/101
f 91/91/91 102/102/102 90/90/89
f 90/90/89 102/102/102 101/101/101
f 91/91/91 92/92/92 102/102/102
f 102/102/102 92/92/92 103/103/103
f 92/92/92 93/93/93 103/103/103
f 103/103/103 93/93/93 104/104/104
f 93/93/93 94/94/94 104/104/104
f 104/104/104 94/94/94 105/105/105
f 95/95/95 106/106/106 94/94/94
f 94/94/94 106/106/106 105/105/105
f 96/96/96 107/107/107 95/95/95
f 95/95/95 107/107/107 106/106/106
f 97/97/97 108/108/108 96/96/96
f 96/96/96 108/108/108 107/107/107
f 97/97/97 98/98/98 108/108/108
f 108/108/108 98/98/98 109/109/109
f 98/98/98 99/99/99 109/109/109
f 109/109/109 99/99/99 110/110/110
f 101/101/101 112/112/111 100/100/100
f 100/100/100 112/112/111 111/111/112
f 101/101/101 102/102/102 112/112/111
f 112/112/111 102/102/102 113/113/113
f 103/103/103 114/114/114 102/102/102
f 102/102/102 114/114/114 113/113/113
f 104/104/104 115/115/115 103/103/103
f 103/103/103 115/115/115 114/114/114
f 105/105/105 116/116/116 104/104/104
f 104/104/104 116/116/116 115/115/115
f 105/105/105 106/106/106 116/116/116
f 116/116/116 106/106/106 117/117/117
f 106/106/106 107/107/107 117/117/117
f 117/117/117 107/107/107 118/118/118
f 107/107/107 108/108/108 118/118/118
f 118/118/118 108/108/108 119/119/119
f 108/108/108 109/109/109 119/119/119
f 119/119/119 109/109/109 120/120/120
f 109/109/109 110/110/110 120/120/120
f 120/120/120 110/110/110 121/121/121
