# This file uses centimeters as units for non-parametric coordinates.

mtllib ShockWave.mtl
g default
v -1.000000 0.000000 1.000000
v 1.000000 0.000000 1.000000
v -1.000000 0.000000 -1.000000
v 1.000000 0.000000 -1.000000
v 0.000000 0.060676 0.000000
vt 1.000000 1.000000
vt 0.500000 0.500000
vt 1.000000 0.000000
vt 0.000000 0.000000
vt 0.000000 1.000000
vn 0.000000 1.000000 0.000000
vn 0.000000 1.000000 0.000000
vn 0.000000 1.000000 0.000000
vn 0.000000 1.000000 0.000000
vn 0.000000 1.000000 0.000000
vn 0.000000 1.000000 0.000000
vn 0.000000 1.000000 0.000000
vn 0.000000 1.000000 0.000000
vn 0.000000 1.000000 0.000000
vn 0.000000 1.000000 0.000000
vn 0.000000 1.000000 0.000000
vn 0.000000 1.000000 0.000000
s off
g pPlane2
usemtl initialShadingGroup
f 4/1/1 5/2/2 2/3/3
f 1/4/4 2/3/5 5/2/6
f 3/5/7 5/2/8 4/1/9
f 1/4/10 5/2/11 3/5/12
