# This file uses centimeters as units for non-parametric coordinates.

mtllib Boost Icon.mtl
g default
v -0.404079 1.966790 -0.326316
v -0.116421 1.686940 -0.326316
v -2.687195 -0.479706 -0.326316
v -2.387239 -0.759630 -0.326316
v -2.687195 -0.479706 0.326316
v -2.387239 -0.759630 0.326316
v -0.404079 1.966790 0.326316
v -0.116421 1.686940 0.326316
v -0.670943 1.680829 -0.326316
v -0.670943 1.680829 0.326316
v -0.370987 1.400904 0.326316
v -0.370987 1.400904 -0.326316
v 0.362305 1.207838 0.326316
v 0.362305 1.207838 -0.326316
v 0.116948 0.944924 0.326316
v 0.116948 0.944924 -0.326316
v 2.466413 -0.500815 0.295832
v 2.687195 -0.281045 0.295832
v -0.219840 2.197808 0.295832
v 0.000942 2.417578 0.295832
v -0.219840 2.197808 -0.295832
v 0.000942 2.417578 -0.295832
v 2.466413 -0.500815 -0.295832
v 2.687195 -0.281045 -0.295832
v 0.404079 0.308842 0.326316
v 0.116421 0.028993 0.326316
v 2.687195 -2.137653 0.326316
v 2.387239 -2.417578 0.326316
v 2.687195 -2.137653 -0.326316
v 2.387239 -2.417578 -0.326316
v 0.404079 0.308842 -0.326316
v 0.116421 0.028993 -0.326316
v 0.670943 0.022882 0.326316
v 0.670943 0.022882 -0.326316
v 0.370987 -0.257043 -0.326316
v 0.370987 -0.257043 0.326316
v -0.362305 -0.450110 -0.326316
v -0.362305 -0.450110 0.326316
v -0.116948 -0.713024 -0.326316
v -0.116948 -0.713024 0.326316
v -2.466413 -2.158762 -0.295832
v -2.687195 -1.938992 -0.295832
v 0.219840 0.539860 -0.295832
v -0.000942 0.759630 -0.295832
v 0.219840 0.539860 0.295832
v -0.000942 0.759630 0.295832
v -2.466413 -2.158762 0.295832
v -2.687195 -1.938992 0.295832
vt 0.375000 0.000000
vt 0.625000 0.000000
vt 0.625000 0.029221
vt 0.375000 0.029221
vt 0.375000 0.250000
vt 0.625000 0.250000
vt 0.625000 0.500000
vt 0.375000 0.500000
vt 0.375000 0.720779
vt 0.625000 0.720779
vt 0.625000 0.750000
vt 0.375000 0.750000
vt 0.625000 1.000000
vt 0.375000 1.000000
vt 0.625000 0.000000
vt 0.875000 0.000000
vt 0.875000 0.029221
vt 0.625000 0.029221
vt 0.125000 0.000000
vt 0.125000 0.029221
vt 0.125000 0.250000
vt 0.875000 0.029221
vt 0.875000 0.250000
vt 0.875000 0.000000
vt 0.375000 0.000000
vt 0.625000 0.000000
vt 0.625000 0.250000
vt 0.375000 0.250000
vt 0.625000 0.500000
vt 0.375000 0.500000
vt 0.625000 0.750000
vt 0.375000 0.750000
vt 0.625000 1.000000
vt 0.375000 1.000000
vt 0.875000 0.000000
vt 0.875000 0.250000
vt 0.125000 0.000000
vt 0.125000 0.250000
vt 0.375000 0.000000
vt 0.625000 0.000000
vt 0.625000 0.029221
vt 0.375000 0.029221
vt 0.375000 0.250000
vt 0.625000 0.250000
vt 0.625000 0.500000
vt 0.375000 0.500000
vt 0.375000 0.720779
vt 0.625000 0.720779
vt 0.625000 0.750000
vt 0.375000 0.750000
vt 0.625000 1.000000
vt 0.375000 1.000000
vt 0.625000 0.000000
vt 0.875000 0.000000
vt 0.875000 0.029221
vt 0.625000 0.029221
vt 0.125000 0.000000
vt 0.125000 0.029221
vt 0.125000 0.250000
vt 0.875000 0.029221
vt 0.875000 0.250000
vt 0.875000 0.000000
vt 0.375000 0.000000
vt 0.625000 0.000000
vt 0.625000 0.250000
vt 0.375000 0.250000
vt 0.625000 0.500000
vt 0.375000 0.500000
vt 0.625000 0.750000
vt 0.375000 0.750000
vt 0.625000 1.000000
vt 0.375000 1.000000
vt 0.875000 0.000000
vt 0.875000 0.250000
vt 0.125000 0.000000
vt 0.125000 0.250000
vn 0.000000 0.000000 -1.000000
vn -0.000000 0.000000 -1.000000
vn 0.000000 0.000000 -1.000000
vn -0.000000 0.000000 -1.000000
vn -0.682274 -0.731097 0.000000
vn -0.682274 -0.731097 0.000000
vn -0.682274 -0.731097 0.000000
vn -0.682274 -0.731097 0.000000
vn -0.000000 0.000000 1.000000
vn -0.000000 0.000000 1.000000
vn -0.000000 0.000000 1.000000
vn 0.000000 0.000000 1.000000
vn 0.697311 0.716769 0.000000
vn 0.703653 0.710544 0.000000
vn 0.697310 0.716770 0.000000
vn 0.703653 0.710544 0.000000
vn 0.731097 -0.682273 0.000000
vn 0.731097 -0.682274 0.000000
vn 0.731097 -0.682274 0.000000
vn 0.731097 -0.682274 0.000000
vn -0.731097 0.682274 0.000000
vn -0.731097 0.682274 0.000000
vn -0.731097 0.682274 0.000000
vn -0.731097 0.682274 0.000000
vn -0.731097 0.682274 0.000000
vn -0.731097 0.682274 0.000000
vn 0.000000 0.000000 1.000000
vn -0.000000 0.000000 1.000000
vn 0.731097 -0.682274 0.000000
vn 0.731097 -0.682274 0.000000
vn 0.731097 -0.682274 0.000000
vn 0.731097 -0.682274 0.000000
vn -0.000000 0.000000 -1.000000
vn -0.000000 0.000000 -1.000000
vn 0.707385 0.706828 0.000000
vn 0.707385 0.706828 0.000000
vn 0.000000 0.000000 1.000000
vn 0.000000 0.000000 1.000000
vn -0.682778 -0.730626 0.000000
vn -0.682778 -0.730626 0.000000
vn -0.682778 -0.730626 0.000000
vn -0.682778 -0.730626 0.000000
vn 0.000000 0.000000 -1.000000
vn 0.000000 0.000000 -1.000000
vn 0.000000 0.000000 1.000000
vn 0.000000 0.000000 1.000000
vn 0.000000 0.000000 1.000000
vn 0.000000 0.000000 1.000000
vn -0.705480 0.708730 0.000000
vn -0.705480 0.708730 0.000000
vn -0.705480 0.708730 0.000000
vn -0.705480 0.708730 0.000000
vn 0.000000 0.000000 -1.000000
vn -0.000000 0.000000 -1.000000
vn -0.000000 0.000000 -1.000000
vn -0.000000 0.000000 -1.000000
vn 0.705480 -0.708729 0.000000
vn 0.705480 -0.708729 0.000000
vn 0.705480 -0.708729 0.000000
vn 0.705480 -0.708729 0.000000
vn 0.708729 0.705481 0.000000
vn 0.708729 0.705481 0.000000
vn 0.708729 0.705481 0.000000
vn 0.708729 0.705481 0.000000
vn -0.708729 -0.705481 0.000000
vn -0.708729 -0.705481 0.000000
vn -0.708729 -0.705481 0.000000
vn -0.708729 -0.705481 0.000000
vn -0.000000 0.000000 1.000000
vn 0.000000 0.000000 1.000000
vn -0.000000 0.000000 1.000000
vn -0.000000 0.000000 1.000000
vn 0.682274 -0.731097 0.000000
vn 0.682274 -0.731097 0.000000
vn 0.682274 -0.731097 0.000000
vn 0.682274 -0.731097 0.000000
vn 0.000000 0.000000 -1.000000
vn 0.000000 0.000000 -1.000000
vn -0.000000 0.000000 -1.000000
vn -0.000000 0.000000 -1.000000
vn -0.697310 0.716770 0.000000
vn -0.703653 0.710544 0.000000
vn -0.697310 0.716769 0.000000
vn -0.703653 0.710544 0.000000
vn -0.731097 -0.682274 0.000000
vn -0.731097 -0.682274 0.000000
vn -0.731097 -0.682274 0.000000
vn -0.731097 -0.682274 0.000000
vn 0.731097 0.682274 0.000000
vn 0.731097 0.682274 0.000000
vn 0.731097 0.682274 0.000000
vn 0.731097 0.682274 0.000000
vn 0.731097 0.682274 0.000000
vn 0.731097 0.682274 0.000000
vn -0.000000 0.000000 -1.000000
vn -0.000000 0.000000 -1.000000
vn -0.731097 -0.682274 0.000000
vn -0.731097 -0.682274 0.000000
vn -0.731097 -0.682274 0.000000
vn -0.731097 -0.682274 0.000000
vn -0.000000 0.000000 1.000000
vn -0.000000 0.000000 1.000000
vn -0.707385 0.706828 0.000000
vn -0.707385 0.706828 0.000000
vn 0.000000 0.000000 -1.000000
vn 0.000000 0.000000 -1.000000
vn 0.682778 -0.730626 0.000000
vn 0.682778 -0.730626 0.000000
vn 0.682778 -0.730626 0.000000
vn 0.682778 -0.730626 0.000000
vn 0.000000 0.000000 1.000000
vn 0.000000 0.000000 1.000000
vn 0.000000 0.000000 -1.000000
vn 0.000000 0.000000 -1.000000
vn 0.000000 0.000000 -1.000000
vn 0.000000 0.000000 -1.000000
vn 0.705480 0.708730 0.000000
vn 0.705480 0.708730 0.000000
vn 0.705480 0.708730 0.000000
vn 0.705480 0.708730 0.000000
vn 0.000000 0.000000 1.000000
vn 0.000000 0.000000 1.000000
vn 0.000000 0.000000 1.000000
vn 0.000000 0.000000 1.000000
vn -0.705480 -0.708730 0.000000
vn -0.705480 -0.708729 0.000000
vn -0.705481 -0.708729 0.000000
vn -0.705481 -0.708729 0.000000
vn -0.708729 0.705481 0.000000
vn -0.708729 0.705481 0.000000
vn -0.708729 0.705481 0.000000
vn -0.708729 0.705481 0.000000
vn 0.708729 -0.705481 0.000000
vn 0.708729 -0.705481 0.000000
vn 0.708729 -0.705481 0.000000
vn 0.708729 -0.705481 0.000000
s 1
g polySurface5
usemtl phong1SG
f 1/1/1 2/2/2 9/4/3
f 9/4/3 2/2/2 12/3/4
s 2
f 3/5/5 4/6/6 5/8/7
f 5/8/7 4/6/6 6/7/8
s 3
f 11/10/9 8/11/10 10/9/11
f 10/9/11 8/11/10 7/12/12
s 4
f 7/12/13 8/11/14 1/14/15
f 1/14/15 8/11/14 2/13/16
s 5
f 14/15/17 13/16/18 16/18/19
f 16/18/19 13/16/18 15/17/20
s 6
f 7/19/21 1/1/22 10/20/23
f 10/20/23 1/1/22 9/4/24
f 10/20/23 9/4/24 5/21/25
f 5/21/25 9/4/24 3/5/26
s 3
f 5/8/27 6/7/28 10/9/11
f 10/9/11 6/7/28 11/10/9
s 7
f 12/3/29 11/22/30 4/6/31
f 4/6/31 11/22/30 6/23/32
s 1
f 9/4/3 12/3/4 3/5/33
f 3/5/33 12/3/4 4/6/34
s 4
f 2/2/16 8/24/14 14/15/35
f 14/15/35 8/24/14 13/16/36
s 3
f 8/24/10 11/22/9 13/16/37
f 13/16/37 11/22/9 15/17/38
s 8
f 11/22/39 12/3/40 15/17/41
f 15/17/41 12/3/40 16/18/42
s 1
f 2/2/2 14/15/43 12/3/4
f 12/3/4 14/15/43 16/18/44
s 9
f 17/25/45 18/26/46 19/28/47
f 19/28/47 18/26/46 20/27/48
s 10
f 19/28/49 20/27/50 21/30/51
f 21/30/51 20/27/50 22/29/52
s 11
f 21/30/53 22/29/54 23/32/55
f 23/32/55 22/29/54 24/31/56
s 12
f 23/32/57 24/31/58 17/34/59
f 17/34/59 24/31/58 18/33/60
s 13
f 18/26/61 24/35/62 20/27/63
f 20/27/63 24/35/62 22/36/64
s 14
f 23/37/65 17/25/66 21/38/67
f 21/38/67 17/25/66 19/28/68
s 15
f 25/39/69 26/40/70 33/42/71
f 33/42/71 26/40/70 36/41/72
s 16
f 27/43/73 28/44/74 29/46/75
f 29/46/75 28/44/74 30/45/76
s 17
f 35/48/77 32/49/78 34/47/79
f 34/47/79 32/49/78 31/50/80
s 18
f 31/50/81 32/49/82 25/52/83
f 25/52/83 32/49/82 26/51/84
s 19
f 38/53/85 37/54/86 40/56/87
f 40/56/87 37/54/86 39/55/88
s 20
f 31/57/89 25/39/90 34/58/91
f 34/58/91 25/39/90 33/42/92
f 34/58/91 33/42/92 29/59/93
f 29/59/93 33/42/92 27/43/94
s 17
f 29/46/95 30/45/96 34/47/79
f 34/47/79 30/45/96 35/48/77
s 21
f 36/41/97 35/60/98 28/44/99
f 28/44/99 35/60/98 30/61/100
s 15
f 33/42/71 36/41/72 27/43/101
f 27/43/101 36/41/72 28/44/102
s 18
f 26/40/84 32/62/82 38/53/103
f 38/53/103 32/62/82 37/54/104
s 17
f 32/62/78 35/60/77 37/54/105
f 37/54/105 35/60/77 39/55/106
s 22
f 35/60/107 36/41/108 39/55/109
f 39/55/109 36/41/108 40/56/110
s 15
f 26/40/70 38/53/111 36/41/72
f 36/41/72 38/53/111 40/56/112
s 23
f 41/63/113 42/64/114 43/66/115
f 43/66/115 42/64/114 44/65/116
s 24
f 43/66/117 44/65/118 45/68/119
f 45/68/119 44/65/118 46/67/120
s 25
f 45/68/121 46/67/122 47/70/123
f 47/70/123 46/67/122 48/69/124
s 26
f 47/70/125 48/69/126 41/72/127
f 41/72/127 48/69/126 42/71/128
s 27
f 42/64/129 48/73/130 44/65/131
f 44/65/131 48/73/130 46/74/132
s 28
f 47/75/133 41/63/134 45/76/135
f 45/76/135 41/63/134 43/66/136
