# This file uses centimeters as units for non-parametric coordinates.

mtllib Seeker_Swarm_Icon.mtl
v 0.325766 -0.137136 0.325766
v 0.325766 -0.137136 -0.325766
v 0.325766 5.137136 0.325766
v 0.325766 5.137136 -0.325766
v -0.325766 5.137136 0.325766
v -0.325766 5.137136 -0.325766
v -0.325766 -0.137136 0.325766
v -0.325766 -0.137136 -0.325766
v -0.325766 2.907511 -0.325766
v -0.325766 2.907511 0.325766
v 0.325766 2.907511 0.325766
v 0.325766 2.907511 -0.325766
v -0.325766 2.264670 -0.325766
v -0.325766 2.264670 0.325766
v 0.325766 2.264670 0.325766
v 0.325766 2.264670 -0.325766
v -0.325766 2.264670 2.496019
v 0.325766 2.264670 2.496019
v 0.325766 2.907511 2.496019
v -0.325766 2.907511 2.496019
v 0.325766 2.264670 -2.496019
v -0.325766 2.264670 -2.496019
v -0.325766 2.907511 -2.496019
v 0.325766 2.907511 -2.496019
v -0.500000 3.010987 -1.791972
v -0.500000 3.536234 -1.524347
v -0.500000 3.953086 -1.107495
v -0.500000 4.220711 -0.582249
v -0.500000 4.220711 0.582248
v -0.500000 3.953086 1.107495
v -0.500000 3.536234 1.524347
v -0.500000 3.010987 1.791972
v -0.500000 1.846492 1.791972
v -0.500000 1.321245 1.524347
v -0.500000 0.904393 1.107495
v -0.500000 0.636768 0.582249
v -0.500000 0.636768 -0.582249
v -0.500000 0.904393 -1.107495
v -0.500000 1.321245 -1.524347
v -0.500000 1.846492 -1.791972
v 0.500000 3.010987 -1.791972
v 0.500000 3.536234 -1.524347
v 0.500000 3.953086 -1.107495
v 0.500000 4.220711 -0.582249
v 0.500000 4.220711 0.582248
v 0.500000 3.953086 1.107495
v 0.500000 3.536234 1.524347
v 0.500000 3.010987 1.791972
v 0.500000 1.846492 1.791972
v 0.500000 1.321245 1.524347
v 0.500000 0.904393 1.107495
v 0.500000 0.636768 0.582249
v 0.500000 0.636768 -0.582249
v 0.500000 0.904393 -1.107495
v 0.500000 1.321245 -1.524347
v 0.500000 1.846492 -1.791972
v 0.500000 3.167478 -2.273601
v 0.500000 3.833903 -1.934041
v 0.500000 4.362781 -1.405163
v 0.500000 4.702341 -0.738738
v 0.500000 4.702342 0.738738
v 0.500000 4.362781 1.405163
v 0.500000 3.833903 1.934041
v 0.500000 3.167478 2.273602
v 0.500000 1.690002 2.273602
v 0.500000 1.023577 1.934041
v 0.500000 0.494698 1.405163
v 0.500000 0.155137 0.738738
v 0.500000 0.155137 -0.738738
v 0.500000 0.494698 -1.405164
v 0.500000 1.023576 -1.934042
v 0.500000 1.690002 -2.273603
v -0.500000 3.167478 -2.273601
v -0.500000 3.833903 -1.934040
v -0.500000 4.362781 -1.405163
v -0.500000 4.702341 -0.738738
v -0.500000 4.702342 0.738738
v -0.500000 4.362781 1.405163
v -0.500000 3.833903 1.934041
v -0.500000 3.167478 2.273602
v -0.500000 1.690002 2.273602
v -0.500000 1.023577 1.934041
v -0.500000 0.494698 1.405163
v -0.500000 0.155137 0.738738
v -0.500000 0.155137 -0.738738
v -0.500000 0.494698 -1.405164
v -0.500000 1.023576 -1.934042
v -0.500000 1.690002 -2.273603
vt 0.375000 0.139385
vt 0.625000 0.139385
vt 0.375000 0.250000
vt 0.625000 0.250000
vt 0.375000 0.500000
vt 0.625000 0.500000
vt 0.375000 0.610615
vt 0.625000 0.610615
vt 0.375000 0.750000
vt 0.625000 0.750000
vt 0.375000 1.000000
vt 0.625000 1.000000
vt 0.875000 0.139385
vt 0.875000 0.250000
vt 0.125000 0.139385
vt 0.125000 0.250000
vt 0.375000 0.641086
vt 0.625000 0.641086
vt 0.125000 0.108914
vt 0.375000 0.108914
vt 0.125000 0.139385
vt 0.375000 0.139385
vt 0.375000 0.108914
vt 0.625000 0.108914
vt 0.625000 0.108914
vt 0.875000 0.108914
vt 0.625000 0.139385
vt 0.875000 0.139385
vt 0.125000 0.000000
vt 0.375000 0.000000
vt 0.125000 0.108914
vt 0.625000 0.000000
vt 0.875000 0.000000
vt 0.875000 0.108914
vt 0.100000 1.000000
vt 0.050000 1.000000
vt 0.100000 0.750000
vt 0.050000 0.750000
vt 0.150000 1.000000
vt 0.150000 0.750000
vt 0.200000 1.000000
vt 0.200000 0.750000
vt 0.350000 1.000000
vt 0.300000 1.000000
vt 0.350000 0.750000
vt 0.300000 0.750000
vt 0.400000 1.000000
vt 0.400000 0.750000
vt 0.450000 1.000000
vt 0.450000 0.750000
vt 0.600000 1.000000
vt 0.550000 1.000000
vt 0.600000 0.750000
vt 0.550000 0.750000
vt 0.650000 1.000000
vt 0.650000 0.750000
vt 0.700000 1.000000
vt 0.700000 0.750000
vt 0.850000 1.000000
vt 0.800000 1.000000
vt 0.850000 0.750000
vt 0.800000 0.750000
vt 0.900000 1.000000
vt 0.900000 0.750000
vt 0.950000 1.000000
vt 0.950000 0.750000
vt 0.100000 0.500000
vt 0.050000 0.500000
vt 0.150000 0.500000
vt 0.200000 0.500000
vt 0.350000 0.500000
vt 0.300000 0.500000
vt 0.400000 0.500000
vt 0.450000 0.500000
vt 0.600000 0.500000
vt 0.550000 0.500000
vt 0.650000 0.500000
vt 0.700000 0.500000
vt 0.850000 0.500000
vt 0.800000 0.500000
vt 0.900000 0.500000
vt 0.950000 0.500000
vt 0.100000 0.250000
vt 0.050000 0.250000
vt 0.150000 0.250000
vt 0.200000 0.250000
vt 0.350000 0.250000
vt 0.300000 0.250000
vt 0.400000 0.250000
vt 0.450000 0.250000
vt 0.600000 0.250000
vt 0.550000 0.250000
vt 0.650000 0.250000
vt 0.700000 0.250000
vt 0.850000 0.250000
vt 0.800000 0.250000
vt 0.900000 0.250000
vt 0.950000 0.250000
vt 0.100000 0.000000
vt 0.050000 0.000000
vt 0.150000 0.000000
vt 0.200000 0.000000
vt 0.350000 0.000000
vt 0.300000 0.000000
vt 0.400000 0.000000
vt 0.450000 0.000000
vt 0.600000 0.000000
vt 0.550000 0.000000
vt 0.650000 0.000000
vt 0.700000 0.000000
vt 0.850000 0.000000
vt 0.800000 0.000000
vt 0.900000 0.000000
vt 0.950000 0.000000
vn 1.000000 0.000000 0.000000
vn 1.000000 0.000000 0.000000
vn 1.000000 0.000000 0.000000
vn 1.000000 0.000000 0.000000
vn 1.000000 0.000000 0.000000
vn 1.000000 0.000000 0.000000
vn 0.000000 1.000000 0.000000
vn 0.000000 1.000000 0.000000
vn 0.000000 1.000000 0.000000
vn 0.000000 1.000000 0.000000
vn 0.000000 1.000000 0.000000
vn 0.000000 1.000000 0.000000
vn -1.000000 0.000000 -0.000000
vn -1.000000 0.000000 -0.000000
vn -1.000000 0.000000 -0.000000
vn -1.000000 0.000000 -0.000000
vn -1.000000 0.000000 -0.000000
vn -1.000000 0.000000 -0.000000
vn 0.000000 -1.000000 0.000000
vn 0.000000 -1.000000 0.000000
vn 0.000000 -1.000000 0.000000
vn 0.000000 -1.000000 0.000000
vn 0.000000 -1.000000 0.000000
vn 0.000000 -1.000000 0.000000
vn 0.000000 0.000000 -1.000000
vn 0.000000 0.000000 -1.000000
vn 0.000000 0.000000 -1.000000
vn 0.000000 0.000000 -1.000000
vn 0.000000 0.000000 -1.000000
vn 0.000000 0.000000 -1.000000
vn -0.000000 0.000000 1.000000
vn -0.000000 0.000000 1.000000
vn -0.000000 0.000000 1.000000
vn -0.000000 0.000000 1.000000
vn -0.000000 0.000000 1.000000
vn -0.000000 0.000000 1.000000
vn -1.000000 0.000000 -0.000000
vn -1.000000 0.000000 -0.000000
vn -1.000000 0.000000 -0.000000
vn -1.000000 0.000000 -0.000000
vn -1.000000 0.000000 -0.000000
vn -1.000000 0.000000 -0.000000
vn -0.000000 0.000000 1.000000
vn -0.000000 0.000000 1.000000
vn -0.000000 0.000000 1.000000
vn -0.000000 0.000000 1.000000
vn -0.000000 0.000000 1.000000
vn -0.000000 0.000000 1.000000
vn 1.000000 0.000000 0.000000
vn 1.000000 0.000000 0.000000
vn 1.000000 0.000000 0.000000
vn 1.000000 0.000000 0.000000
vn 1.000000 0.000000 0.000000
vn 1.000000 0.000000 0.000000
vn 0.000000 0.000000 -1.000000
vn 0.000000 0.000000 -1.000000
vn 0.000000 0.000000 -1.000000
vn 0.000000 0.000000 -1.000000
vn 0.000000 0.000000 -1.000000
vn 0.000000 0.000000 -1.000000
vn -1.000000 0.000000 -0.000000
vn -1.000000 0.000000 -0.000000
vn -1.000000 0.000000 -0.000000
vn -1.000000 0.000000 -0.000000
vn -1.000000 0.000000 -0.000000
vn -1.000000 0.000000 -0.000000
vn -0.000000 0.000000 1.000000
vn -0.000000 0.000000 1.000000
vn -0.000000 0.000000 1.000000
vn -0.000000 0.000000 1.000000
vn -0.000000 0.000000 1.000000
vn -0.000000 0.000000 1.000000
vn 1.000000 0.000000 0.000000
vn 1.000000 0.000000 0.000000
vn 1.000000 0.000000 0.000000
vn 1.000000 0.000000 0.000000
vn 1.000000 0.000000 0.000000
vn 1.000000 0.000000 0.000000
vn 0.000000 0.000000 -1.000000
vn 0.000000 0.000000 -1.000000
vn 0.000000 0.000000 -1.000000
vn 0.000000 0.000000 -1.000000
vn 0.000000 0.000000 -1.000000
vn 0.000000 0.000000 -1.000000
vn 0.000000 -1.000000 0.000000
vn 0.000000 -1.000000 0.000000
vn 0.000000 -1.000000 0.000000
vn 0.000000 -1.000000 0.000000
vn 0.000000 -1.000000 0.000000
vn 0.000000 -1.000000 0.000000
vn 1.000000 0.000000 0.000000
vn 1.000000 0.000000 0.000000
vn 1.000000 0.000000 0.000000
vn 1.000000 0.000000 0.000000
vn 1.000000 0.000000 0.000000
vn 1.000000 0.000000 0.000000
vn 0.000000 1.000000 0.000000
vn 0.000000 1.000000 0.000000
vn 0.000000 1.000000 0.000000
vn 0.000000 1.000000 0.000000
vn 0.000000 1.000000 0.000000
vn 0.000000 1.000000 0.000000
vn -1.000000 0.000000 -0.000000
vn -1.000000 0.000000 -0.000000
vn -1.000000 0.000000 -0.000000
vn -1.000000 0.000000 -0.000000
vn -1.000000 0.000000 -0.000000
vn -1.000000 0.000000 -0.000000
vn 0.000000 -1.000000 0.000000
vn 0.000000 -1.000000 0.000000
vn 0.000000 -1.000000 0.000000
vn 0.000000 -1.000000 0.000000
vn 0.000000 -1.000000 0.000000
vn 0.000000 -1.000000 0.000000
vn -1.000000 0.000000 -0.000000
vn -1.000000 0.000000 -0.000000
vn -1.000000 0.000000 -0.000000
vn -1.000000 0.000000 -0.000000
vn -1.000000 0.000000 -0.000000
vn -1.000000 0.000000 -0.000000
vn 0.000000 1.000000 0.000000
vn 0.000000 1.000000 0.000000
vn 0.000000 1.000000 0.000000
vn 0.000000 1.000000 0.000000
vn 0.000000 1.000000 0.000000
vn 0.000000 1.000000 0.000000
vn 1.000000 0.000000 0.000000
vn 1.000000 0.000000 0.000000
vn 1.000000 0.000000 0.000000
vn 1.000000 0.000000 0.000000
vn 1.000000 0.000000 0.000000
vn 1.000000 0.000000 0.000000
vn -0.000000 -0.587786 0.809016
vn -0.000000 -0.453988 0.891008
vn -0.000000 -0.587786 0.809016
vn -0.000000 -0.587786 0.809016
vn -0.000000 -0.453988 0.891008
vn -0.000000 -0.453988 0.891008
vn -0.000000 -0.809016 0.587787
vn -0.000000 -0.587786 0.809016
vn -0.000000 -0.809016 0.587787
vn -0.000000 -0.809016 0.587787
vn -0.000000 -0.587786 0.809016
vn -0.000000 -0.587786 0.809016
vn -0.000000 -0.891007 0.453989
vn -0.000000 -0.809016 0.587787
vn -0.000000 -0.891007 0.453989
vn -0.000000 -0.891007 0.453989
vn -0.000000 -0.809016 0.587787
vn -0.000000 -0.809016 0.587787
vn 0.000000 -0.809016 -0.587786
vn 0.000000 -0.891008 -0.453988
vn 0.000000 -0.809016 -0.587786
vn 0.000000 -0.809016 -0.587786
vn 0.000000 -0.891008 -0.453988
vn 0.000000 -0.891008 -0.453988
vn 0.000000 -0.587786 -0.809016
vn 0.000000 -0.809016 -0.587786
vn 0.000000 -0.587786 -0.809016
vn 0.000000 -0.587786 -0.809016
vn 0.000000 -0.809016 -0.587786
vn 0.000000 -0.809016 -0.587786
vn 0.000000 -0.453988 -0.891008
vn 0.000000 -0.587786 -0.809016
vn 0.000000 -0.453988 -0.891008
vn 0.000000 -0.453988 -0.891008
vn 0.000000 -0.587786 -0.809016
vn 0.000000 -0.587786 -0.809016
vn 0.000000 0.587786 -0.809016
vn 0.000000 0.453988 -0.891008
vn 0.000000 0.587786 -0.809016
vn 0.000000 0.587786 -0.809016
vn 0.000000 0.453988 -0.891008
vn 0.000000 0.453988 -0.891008
vn 0.000000 0.809016 -0.587787
vn 0.000000 0.587786 -0.809016
vn 0.000000 0.809016 -0.587787
vn 0.000000 0.809016 -0.587787
vn 0.000000 0.587786 -0.809016
vn 0.000000 0.587786 -0.809016
vn 0.000000 0.891007 -0.453989
vn 0.000000 0.809016 -0.587787
vn 0.000000 0.891007 -0.453989
vn 0.000000 0.891007 -0.453989
vn 0.000000 0.809016 -0.587787
vn 0.000000 0.809016 -0.587787
vn -0.000000 0.809016 0.587787
vn -0.000000 0.891007 0.453989
vn -0.000000 0.809016 0.587787
vn -0.000000 0.809016 0.587787
vn -0.000000 0.891007 0.453989
vn -0.000000 0.891007 0.453989
vn -0.000000 0.587786 0.809016
vn -0.000000 0.809016 0.587787
vn -0.000000 0.587786 0.809016
vn -0.000000 0.587786 0.809016
vn -0.000000 0.809016 0.587787
vn -0.000000 0.809016 0.587787
vn -0.000000 0.453988 0.891008
vn -0.000000 0.587786 0.809016
vn -0.000000 0.453988 0.891008
vn -0.000000 0.453988 0.891008
vn -0.000000 0.587786 0.809016
vn -0.000000 0.587786 0.809016
vn 1.000000 0.000000 0.000000
vn 1.000000 0.000000 0.000000
vn 1.000000 0.000000 0.000000
vn 1.000000 0.000000 0.000000
vn 1.000000 0.000000 0.000000
vn 1.000000 0.000000 0.000000
vn 1.000000 0.000000 0.000000
vn 1.000000 0.000000 0.000000
vn 1.000000 0.000000 0.000000
vn 1.000000 0.000000 0.000000
vn 1.000000 0.000000 0.000000
vn 1.000000 0.000000 0.000000
vn 1.000000 0.000000 0.000000
vn 1.000000 0.000000 0.000000
vn 1.000000 0.000000 0.000000
vn 1.000000 0.000000 0.000000
vn 1.000000 0.000000 0.000000
vn 1.000000 0.000000 0.000000
vn 1.000000 0.000000 0.000000
vn 1.000000 0.000000 0.000000
vn 1.000000 0.000000 0.000000
vn 1.000000 0.000000 0.000000
vn 1.000000 0.000000 0.000000
vn 1.000000 0.000000 0.000000
vn 1.000000 0.000000 0.000000
vn 1.000000 0.000000 0.000000
vn 1.000000 0.000000 0.000000
vn 1.000000 0.000000 0.000000
vn 1.000000 0.000000 0.000000
vn 1.000000 0.000000 0.000000
vn 1.000000 0.000000 0.000000
vn 1.000000 0.000000 0.000000
vn 1.000000 0.000000 0.000000
vn 1.000000 0.000000 0.000000
vn 1.000000 0.000000 0.000000
vn 1.000000 0.000000 0.000000
vn 1.000000 0.000000 0.000000
vn 1.000000 0.000000 0.000000
vn 1.000000 0.000000 0.000000
vn 1.000000 0.000000 0.000000
vn 1.000000 0.000000 0.000000
vn 1.000000 0.000000 0.000000
vn 1.000000 0.000000 0.000000
vn 1.000000 0.000000 0.000000
vn 1.000000 0.000000 0.000000
vn 1.000000 0.000000 0.000000
vn 1.000000 0.000000 0.000000
vn 1.000000 0.000000 0.000000
vn 1.000000 0.000000 0.000000
vn 1.000000 0.000000 0.000000
vn 1.000000 0.000000 0.000000
vn 1.000000 0.000000 0.000000
vn 1.000000 0.000000 0.000000
vn 1.000000 0.000000 0.000000
vn 1.000000 0.000000 0.000000
vn 1.000000 0.000000 0.000000
vn 1.000000 0.000000 0.000000
vn 1.000000 0.000000 0.000000
vn 1.000000 0.000000 0.000000
vn 1.000000 0.000000 0.000000
vn 1.000000 0.000000 0.000000
vn 1.000000 0.000000 0.000000
vn 1.000000 0.000000 0.000000
vn 1.000000 0.000000 0.000000
vn 1.000000 0.000000 0.000000
vn 1.000000 0.000000 0.000000
vn 1.000000 0.000000 0.000000
vn 1.000000 0.000000 0.000000
vn 1.000000 0.000000 0.000000
vn 1.000000 0.000000 0.000000
vn 1.000000 0.000000 0.000000
vn 1.000000 0.000000 0.000000
vn 0.000000 0.587785 -0.809017
vn 0.000000 0.453991 -0.891007
vn 0.000000 0.587785 -0.809017
vn 0.000000 0.587785 -0.809017
vn 0.000000 0.453991 -0.891007
vn 0.000000 0.453991 -0.891006
vn 0.000000 0.809017 -0.587785
vn 0.000000 0.587785 -0.809017
vn 0.000000 0.809017 -0.587785
vn 0.000000 0.809017 -0.587785
vn 0.000000 0.587785 -0.809017
vn 0.000000 0.587785 -0.809017
vn 0.000000 0.891007 -0.453990
vn 0.000000 0.809017 -0.587785
vn 0.000000 0.891007 -0.453991
vn 0.000000 0.891007 -0.453991
vn 0.000000 0.809017 -0.587785
vn 0.000000 0.809017 -0.587785
vn -0.000000 0.809017 0.587785
vn -0.000000 0.891007 0.453990
vn -0.000000 0.809017 0.587785
vn -0.000000 0.809017 0.587785
vn -0.000000 0.891007 0.453990
vn -0.000000 0.891007 0.453990
vn -0.000000 0.587785 0.809017
vn -0.000000 0.809017 0.587785
vn -0.000000 0.587786 0.809017
vn -0.000000 0.587786 0.809017
vn -0.000000 0.809017 0.587785
vn -0.000000 0.809017 0.587785
vn -0.000000 0.453991 0.891007
vn -0.000000 0.587785 0.809017
vn -0.000000 0.453991 0.891006
vn -0.000000 0.453991 0.891006
vn -0.000000 0.587785 0.809017
vn -0.000000 0.587786 0.809017
vn -0.000000 -0.587785 0.809017
vn -0.000000 -0.453991 0.891007
vn -0.000000 -0.587785 0.809017
vn -0.000000 -0.587785 0.809017
vn -0.000000 -0.453991 0.891007
vn -0.000000 -0.453990 0.891007
vn -0.000000 -0.809017 0.587786
vn -0.000000 -0.587785 0.809017
vn -0.000000 -0.809017 0.587785
vn -0.000000 -0.809017 0.587785
vn -0.000000 -0.587785 0.809017
vn -0.000000 -0.587785 0.809017
vn -0.000000 -0.891006 0.453991
vn -0.000000 -0.809017 0.587786
vn -0.000000 -0.891006 0.453991
vn -0.000000 -0.891006 0.453991
vn -0.000000 -0.809017 0.587786
vn -0.000000 -0.809017 0.587785
vn 0.000000 -0.809017 -0.587785
vn 0.000000 -0.891007 -0.453990
vn 0.000000 -0.809017 -0.587785
vn 0.000000 -0.809017 -0.587785
vn 0.000000 -0.891007 -0.453990
vn 0.000000 -0.891007 -0.453990
vn 0.000000 -0.587785 -0.809017
vn 0.000000 -0.809017 -0.587785
vn 0.000000 -0.587785 -0.809017
vn 0.000000 -0.587785 -0.809017
vn 0.000000 -0.809017 -0.587785
vn 0.000000 -0.809017 -0.587785
vn 0.000000 -0.453990 -0.891007
vn 0.000000 -0.587785 -0.809017
vn 0.000000 -0.453990 -0.891007
vn 0.000000 -0.453990 -0.891007
vn 0.000000 -0.587785 -0.809017
vn 0.000000 -0.587785 -0.809017
vn -1.000000 0.000000 -0.000000
vn -1.000000 0.000000 -0.000000
vn -1.000000 0.000000 -0.000000
vn -1.000000 0.000000 -0.000000
vn -1.000000 0.000000 -0.000000
vn -1.000000 0.000000 -0.000000
vn -1.000000 0.000000 -0.000000
vn -1.000000 0.000000 -0.000000
vn -1.000000 0.000000 -0.000000
vn -1.000000 0.000000 -0.000000
vn -1.000000 0.000000 -0.000000
vn -1.000000 0.000000 -0.000000
vn -1.000000 0.000000 -0.000000
vn -1.000000 0.000000 -0.000000
vn -1.000000 0.000000 -0.000000
vn -1.000000 0.000000 -0.000000
vn -1.000000 0.000000 -0.000000
vn -1.000000 0.000000 -0.000000
vn -1.000000 0.000000 -0.000000
vn -1.000000 0.000000 -0.000000
vn -1.000000 0.000000 -0.000000
vn -1.000000 0.000000 -0.000000
vn -1.000000 0.000000 -0.000000
vn -1.000000 0.000000 -0.000000
vn -1.000000 0.000000 -0.000000
vn -1.000000 0.000000 -0.000000
vn -1.000000 0.000000 -0.000000
vn -1.000000 0.000000 -0.000000
vn -1.000000 0.000000 -0.000000
vn -1.000000 0.000000 -0.000000
vn -1.000000 0.000000 -0.000000
vn -1.000000 0.000000 -0.000000
vn -1.000000 0.000000 -0.000000
vn -1.000000 0.000000 -0.000000
vn -1.000000 0.000000 -0.000000
vn -1.000000 0.000000 -0.000000
vn -1.000000 0.000000 -0.000000
vn -1.000000 0.000000 -0.000000
vn -1.000000 0.000000 -0.000000
vn -1.000000 0.000000 -0.000000
vn -1.000000 0.000000 -0.000000
vn -1.000000 0.000000 -0.000000
vn -1.000000 0.000000 -0.000000
vn -1.000000 0.000000 -0.000000
vn -1.000000 0.000000 -0.000000
vn -1.000000 0.000000 -0.000000
vn -1.000000 0.000000 -0.000000
vn -1.000000 0.000000 -0.000000
vn -1.000000 0.000000 -0.000000
vn -1.000000 0.000000 -0.000000
vn -1.000000 0.000000 -0.000000
vn -1.000000 0.000000 -0.000000
vn -1.000000 0.000000 -0.000000
vn -1.000000 0.000000 -0.000000
vn -1.000000 0.000000 -0.000000
vn -1.000000 0.000000 -0.000000
vn -1.000000 0.000000 -0.000000
vn -1.000000 0.000000 -0.000000
vn -1.000000 0.000000 -0.000000
vn -1.000000 0.000000 -0.000000
vn -1.000000 0.000000 -0.000000
vn -1.000000 0.000000 -0.000000
vn -1.000000 0.000000 -0.000000
vn -1.000000 0.000000 -0.000000
vn -1.000000 0.000000 -0.000000
vn -1.000000 0.000000 -0.000000
vn -1.000000 0.000000 -0.000000
vn -1.000000 0.000000 -0.000000
vn -1.000000 0.000000 -0.000000
vn -1.000000 0.000000 -0.000000
vn -1.000000 0.000000 -0.000000
vn -1.000000 0.000000 -0.000000
vn -0.000000 0.951057 0.309015
vn -0.000000 0.951057 0.309015
vn -0.000000 0.951057 0.309015
vn -0.000000 0.951057 0.309015
vn -0.000000 0.951057 0.309015
vn -0.000000 0.951057 0.309015
vn 0.000000 -0.309013 -0.951058
vn 0.000000 -0.309013 -0.951058
vn 0.000000 -0.309013 -0.951058
vn 0.000000 -0.309013 -0.951058
vn 0.000000 -0.309013 -0.951058
vn 0.000000 -0.309013 -0.951058
vn -0.000000 -0.309014 0.951058
vn -0.000000 -0.309014 0.951058
vn -0.000000 -0.309014 0.951058
vn -0.000000 -0.309014 0.951058
vn -0.000000 -0.309014 0.951058
vn -0.000000 -0.309014 0.951058
vn 0.000000 0.951057 -0.309015
vn 0.000000 0.951057 -0.309015
vn 0.000000 0.951057 -0.309015
vn 0.000000 0.951057 -0.309015
vn 0.000000 0.951057 -0.309015
vn 0.000000 0.951057 -0.309015
vn 0.000000 -0.951057 -0.309016
vn 0.000000 -0.951057 -0.309016
vn 0.000000 -0.951057 -0.309016
vn 0.000000 -0.951057 -0.309016
vn 0.000000 -0.951057 -0.309016
vn 0.000000 -0.951057 -0.309016
vn -0.000000 0.309013 0.951058
vn -0.000000 0.309013 0.951058
vn -0.000000 0.309013 0.951058
vn -0.000000 0.309013 0.951058
vn -0.000000 0.309013 0.951058
vn -0.000000 0.309013 0.951058
vn 0.000000 0.309015 -0.951057
vn 0.000000 0.309015 -0.951057
vn 0.000000 0.309015 -0.951057
vn 0.000000 0.309015 -0.951057
vn 0.000000 0.309015 -0.951057
vn 0.000000 0.309015 -0.951057
vn -0.000000 -0.951057 0.309016
vn -0.000000 -0.951057 0.309016
vn -0.000000 -0.951057 0.309016
vn -0.000000 -0.951057 0.309016
vn -0.000000 -0.951057 0.309016
vn -0.000000 -0.951057 0.309016
usemtl initialShadingGroup
f 11/1/1 12/2/2 3/3/3
f 3/3/4 12/2/5 4/4/6
f 3/3/7 4/4/8 5/5/9
f 5/5/10 4/4/11 6/6/12
f 5/5/13 6/6/14 10/7/15
f 10/7/16 6/6/17 9/8/18
f 7/9/19 8/10/20 1/11/21
f 1/11/22 8/10/23 2/12/24
f 12/2/25 9/13/26 4/4/27
f 4/4/28 9/13/29 6/14/30
f 10/15/31 11/1/32 5/16/33
f 5/16/34 11/1/35 3/3/36
f 10/7/37 9/8/38 14/17/39
f 14/17/40 9/8/41 13/18/42
f 17/19/43 18/20/44 20/21/45
f 20/21/46 18/20/47 19/22/48
f 15/23/49 16/24/50 11/1/51
f 11/1/52 16/24/53 12/2/54
f 21/25/55 22/26/56 24/27/57
f 24/27/58 22/26/59 23/28/60
f 14/17/61 13/18/62 7/9/63
f 7/9/64 13/18/65 8/10/66
f 7/29/67 1/30/68 14/31/69
f 14/31/70 1/30/71 15/23/72
f 1/30/73 2/32/74 15/23/75
f 15/23/76 2/32/77 16/24/78
f 2/32/79 8/33/80 16/24/81
f 16/24/82 8/33/83 13/34/84
f 14/31/85 15/23/86 17/19/87
f 17/19/88 15/23/89 18/20/90
f 15/23/91 11/1/92 18/20/93
f 18/20/94 11/1/95 19/22/96
f 11/1/97 10/15/98 19/22/99
f 19/22/100 10/15/101 20/21/102
f 10/15/103 14/31/104 20/21/105
f 20/21/106 14/31/107 17/19/108
f 16/24/109 13/34/110 21/25/111
f 21/25/112 13/34/113 22/26/114
f 13/34/115 9/13/116 22/26/117
f 22/26/118 9/13/119 23/28/120
f 9/13/121 12/2/122 23/28/123
f 23/28/124 12/2/125 24/27/126
f 12/2/127 16/24/128 24/27/129
f 24/27/130 16/24/131 21/25/132
f 26/35/133 25/36/134 42/37/135
f 42/37/136 25/36/137 41/38/138
f 27/39/139 26/35/140 43/40/141
f 43/40/142 26/35/143 42/37/144
f 28/41/145 27/39/146 44/42/147
f 44/42/148 27/39/149 43/40/150
f 30/43/151 29/44/152 46/45/153
f 46/45/154 29/44/155 45/46/156
f 31/47/157 30/43/158 47/48/159
f 47/48/160 30/43/161 46/45/162
f 32/49/163 31/47/164 48/50/165
f 48/50/166 31/47/167 47/48/168
f 34/51/169 33/52/170 50/53/171
f 50/53/172 33/52/173 49/54/174
f 35/55/175 34/51/176 51/56/177
f 51/56/178 34/51/179 50/53/180
f 36/57/181 35/55/182 52/58/183
f 52/58/184 35/55/185 51/56/186
f 38/59/187 37/60/188 54/61/189
f 54/61/190 37/60/191 53/62/192
f 39/63/193 38/59/194 55/64/195
f 55/64/196 38/59/197 54/61/198
f 40/65/199 39/63/200 56/66/201
f 56/66/202 39/63/203 55/64/204
f 42/37/205 41/38/206 58/67/207
f 58/67/208 41/38/209 57/68/210
f 43/40/211 42/37/212 59/69/213
f 59/69/214 42/37/215 58/67/216
f 44/42/217 43/40/218 60/70/219
f 60/70/220 43/40/221 59/69/222
f 46/45/223 45/46/224 62/71/225
f 62/71/226 45/46/227 61/72/228
f 47/48/229 46/45/230 63/73/231
f 63/73/232 46/45/233 62/71/234
f 48/50/235 47/48/236 64/74/237
f 64/74/238 47/48/239 63/73/240
f 50/53/241 49/54/242 66/75/243
f 66/75/244 49/54/245 65/76/246
f 51/56/247 50/53/248 67/77/249
f 67/77/250 50/53/251 66/75/252
f 52/58/253 51/56/254 68/78/255
f 68/78/256 51/56/257 67/77/258
f 54/61/259 53/62/260 70/79/261
f 70/79/262 53/62/263 69/80/264
f 55/64/265 54/61/266 71/81/267
f 71/81/268 54/61/269 70/79/270
f 56/66/271 55/64/272 72/82/273
f 72/82/274 55/64/275 71/81/276
f 58/67/277 57/68/278 74/83/279
f 74/83/280 57/68/281 73/84/282
f 59/69/283 58/67/284 75/85/285
f 75/85/286 58/67/287 74/83/288
f 60/70/289 59/69/290 76/86/291
f 76/86/292 59/69/293 75/85/294
f 62/71/295 61/72/296 78/87/297
f 78/87/298 61/72/299 77/88/300
f 63/73/301 62/71/302 79/89/303
f 79/89/304 62/71/305 78/87/306
f 64/74/307 63/73/308 80/90/309
f 80/90/310 63/73/311 79/89/312
f 66/75/313 65/76/314 82/91/315
f 82/91/316 65/76/317 81/92/318
f 67/77/319 66/75/320 83/93/321
f 83/93/322 66/75/323 82/91/324
f 68/78/325 67/77/326 84/94/327
f 84/94/328 67/77/329 83/93/330
f 70/79/331 69/80/332 86/95/333
f 86/95/334 69/80/335 85/96/336
f 71/81/337 70/79/338 87/97/339
f 87/97/340 70/79/341 86/95/342
f 72/82/343 71/81/344 88/98/345
f 88/98/346 71/81/347 87/97/348
f 74/83/349 73/84/350 26/99/351
f 26/99/352 73/84/353 25/100/354
f 75/85/355 74/83/356 27/101/357
f 27/101/358 74/83/359 26/99/360
f 76/86/361 75/85/362 28/102/363
f 28/102/364 75/85/365 27/101/366
f 78/87/367 77/88/368 30/103/369
f 30/103/370 77/88/371 29/104/372
f 79/89/373 78/87/374 31/105/375
f 31/105/376 78/87/377 30/103/378
f 80/90/379 79/89/380 32/106/381
f 32/106/382 79/89/383 31/105/384
f 82/91/385 81/92/386 34/107/387
f 34/107/388 81/92/389 33/108/390
f 83/93/391 82/91/392 35/109/393
f 35/109/394 82/91/395 34/107/396
f 84/94/397 83/93/398 36/110/399
f 36/110/400 83/93/401 35/109/402
f 86/95/403 85/96/404 38/111/405
f 38/111/406 85/96/407 37/112/408
f 87/97/409 86/95/410 39/113/411
f 39/113/412 86/95/413 38/111/414
f 88/98/415 87/97/416 40/114/417
f 40/114/418 87/97/419 39/113/420
f 49/54/421 33/108/422 65/76/423
f 65/76/424 33/108/425 81/92/426
f 52/58/427 68/78/428 36/57/429
f 36/57/430 68/78/431 84/94/432
f 53/62/433 37/112/434 69/80/435
f 69/80/436 37/112/437 85/96/438
f 56/66/439 72/82/440 40/65/441
f 40/65/442 72/82/443 88/98/444
f 41/38/445 25/100/446 57/68/447
f 57/68/448 25/100/449 73/84/450
f 44/42/451 60/70/452 28/41/453
f 28/41/454 60/70/455 76/86/456
f 45/46/457 29/104/458 61/72/459
f 61/72/460 29/104/461 77/88/462
f 48/50/463 64/74/464 32/49/465
f 32/49/466 64/74/467 80/90/468
