# This file uses centimeters as units for non-parametric coordinates.

mtllib Short Circuit Icon.mtl
g default
v -0.977308 -0.108460 0.326316
v -0.602253 -0.277185 0.326316
v 0.602512 2.841476 0.326316
v 0.964193 2.647780 0.326316
v 0.602512 2.841476 -0.326316
v 0.964193 2.647780 -0.326316
v -0.977308 -0.108460 -0.326316
v -0.602253 -0.277185 -0.326316
v -0.792649 0.236345 0.326316
v -0.792649 0.236345 -0.326316
v -0.430968 0.042649 -0.326316
v -0.430968 0.042649 0.326316
v 0.005231 -0.537742 -0.326316
v 0.005231 -0.537742 0.326316
v 0.175007 -0.220725 -0.326316
v 0.175007 -0.220725 0.326316
v 0.977308 0.108460 0.326316
v 0.602253 0.277185 0.326316
v -0.602512 -2.841476 0.326316
v -0.964193 -2.647780 0.326316
v -0.602512 -2.841476 -0.326316
v -0.964193 -2.647780 -0.326316
v 0.977308 0.108460 -0.326316
v 0.602253 0.277185 -0.326316
v 0.792649 -0.236345 0.326316
v 0.792649 -0.236345 -0.326316
v 0.430968 -0.042649 -0.326316
v 0.430968 -0.042649 0.326316
v -0.005231 0.537742 -0.326316
v -0.005231 0.537742 0.326316
v -0.175007 0.220725 -0.326316
v -0.175007 0.220725 0.326316
vt 0.375000 0.000000
vt 0.625000 0.000000
vt 0.375000 0.250000
vt 0.625000 0.250000
vt 0.375000 0.500000
vt 0.625000 0.500000
vt 0.375000 0.750000
vt 0.625000 0.750000
vt 0.375000 1.000000
vt 0.625000 1.000000
vt 0.875000 0.000000
vt 0.875000 0.250000
vt 0.125000 0.000000
vt 0.125000 0.250000
vt 0.375000 0.029221
vt 0.125000 0.029221
vt 0.375000 0.720779
vt 0.625000 0.720779
vt 0.875000 0.029221
vt 0.625000 0.029221
vt 0.625000 0.000000
vt 0.875000 0.000000
vt 0.875000 0.029221
vt 0.625000 0.029221
vt 0.375000 0.000000
vt 0.625000 0.000000
vt 0.625000 0.029221
vt 0.375000 0.029221
vt 0.375000 0.250000
vt 0.625000 0.250000
vt 0.625000 0.500000
vt 0.375000 0.500000
vt 0.375000 0.720779
vt 0.625000 0.720779
vt 0.625000 0.750000
vt 0.375000 0.750000
vt 0.625000 1.000000
vt 0.375000 1.000000
vt 0.625000 0.000000
vt 0.875000 0.000000
vt 0.875000 0.029221
vt 0.625000 0.029221
vt 0.125000 0.000000
vt 0.125000 0.029221
vt 0.125000 0.250000
vt 0.875000 0.029221
vt 0.875000 0.250000
vt 0.875000 0.000000
vn -0.000000 0.000000 1.000000
vn 0.000000 -0.000000 1.000000
vn -0.000000 0.000000 1.000000
vn 0.000000 -0.000000 1.000000
vn 0.472105 0.881543 0.000000
vn 0.472105 0.881543 0.000000
vn 0.472105 0.881543 0.000000
vn 0.472105 0.881543 0.000000
vn 0.000000 -0.000000 -1.000000
vn -0.000000 0.000000 -1.000000
vn -0.000000 0.000000 -1.000000
vn -0.000000 0.000000 -1.000000
vn -0.410264 -0.911967 0.000000
vn -0.400366 -0.916356 0.000000
vn -0.410264 -0.911967 0.000000
vn -0.400366 -0.916355 0.000000
vn 0.881543 -0.472105 0.000000
vn 0.881543 -0.472105 0.000000
vn 0.881543 -0.472105 0.000000
vn 0.881543 -0.472105 0.000000
vn -0.881543 0.472105 0.000000
vn -0.881543 0.472105 0.000000
vn -0.881543 0.472105 0.000000
vn -0.881543 0.472105 0.000000
vn -0.881543 0.472105 0.000000
vn -0.881543 0.472105 0.000000
vn 0.000000 0.000000 -1.000000
vn 0.000000 0.000000 -1.000000
vn 0.881543 -0.472105 0.000000
vn 0.881543 -0.472105 0.000000
vn 0.881543 -0.472105 0.000000
vn 0.881543 -0.472105 0.000000
vn 0.000000 0.000000 1.000000
vn 0.000000 0.000000 1.000000
vn -0.394183 -0.919032 0.000000
vn -0.394183 -0.919032 0.000000
vn 0.000000 -0.000000 -1.000000
vn 0.000000 0.000000 -1.000000
vn 0.398607 0.917122 0.000000
vn 0.398607 0.917122 0.000000
vn 0.398607 0.917122 0.000000
vn 0.398607 0.917122 0.000000
vn 0.000000 -0.000000 1.000000
vn 0.000000 -0.000000 1.000000
vn 0.000000 -0.000000 1.000000
vn -0.000000 0.000000 1.000000
vn 0.000000 -0.000000 1.000000
vn -0.000000 0.000000 1.000000
vn -0.472105 -0.881543 0.000000
vn -0.472105 -0.881543 0.000000
vn -0.472105 -0.881543 0.000000
vn -0.472105 -0.881543 0.000000
vn -0.000000 0.000000 -1.000000
vn 0.000000 -0.000000 -1.000000
vn 0.000000 -0.000000 -1.000000
vn 0.000000 -0.000000 -1.000000
vn 0.410264 0.911967 0.000000
vn 0.400366 0.916356 0.000000
vn 0.410264 0.911967 0.000000
vn 0.400366 0.916356 0.000000
vn -0.881543 0.472105 0.000000
vn -0.881543 0.472105 0.000000
vn -0.881543 0.472105 0.000000
vn -0.881543 0.472105 0.000000
vn 0.881543 -0.472105 0.000000
vn 0.881543 -0.472105 0.000000
vn 0.881543 -0.472105 0.000000
vn 0.881543 -0.472105 0.000000
vn 0.881543 -0.472105 0.000000
vn 0.881543 -0.472105 0.000000
vn 0.000000 0.000000 -1.000000
vn 0.000000 0.000000 -1.000000
vn -0.881543 0.472105 0.000000
vn -0.881543 0.472105 0.000000
vn -0.881543 0.472105 0.000000
vn -0.881543 0.472105 0.000000
vn 0.000000 0.000000 1.000000
vn 0.000000 0.000000 1.000000
vn 0.394183 0.919032 0.000000
vn 0.394183 0.919032 0.000000
vn -0.000000 0.000000 -1.000000
vn 0.000000 0.000000 -1.000000
vn -0.398607 -0.917122 0.000000
vn -0.398607 -0.917122 0.000000
vn -0.398607 -0.917122 0.000000
vn -0.398607 -0.917122 0.000000
vn -0.000000 0.000000 1.000000
vn -0.000000 0.000000 1.000000
s 1
g pCube5
usemtl phong1SG
f 1/1/1 2/2/2 9/15/3
f 9/15/3 2/2/2 12/20/4
s 2
f 3/3/5 4/4/6 5/5/7
f 5/5/7 4/4/6 6/6/8
s 3
f 11/18/9 8/8/10 10/17/11
f 10/17/11 8/8/10 7/7/12
s 4
f 7/7/13 8/8/14 1/9/15
f 1/9/15 8/8/14 2/10/16
s 5
f 14/21/17 13/22/18 16/24/19
f 16/24/19 13/22/18 15/23/20
s 6
f 7/13/21 1/1/22 10/16/23
f 10/16/23 1/1/22 9/15/24
f 10/16/23 9/15/24 5/14/25
f 5/14/25 9/15/24 3/3/26
s 3
f 5/5/27 6/6/28 10/17/11
f 10/17/11 6/6/28 11/18/9
s 7
f 12/20/29 11/19/30 4/4/31
f 4/4/31 11/19/30 6/12/32
s 1
f 9/15/3 12/20/4 3/3/33
f 3/3/33 12/20/4 4/4/34
s 4
f 2/2/16 8/11/14 14/21/35
f 14/21/35 8/11/14 13/22/36
s 3
f 8/11/10 11/19/9 13/22/37
f 13/22/37 11/19/9 15/23/38
s 8
f 11/19/39 12/20/40 15/23/41
f 15/23/41 12/20/40 16/24/42
s 1
f 2/2/2 14/21/43 12/20/4
f 12/20/4 14/21/43 16/24/44
s 9
f 17/25/45 18/26/46 25/28/47
f 25/28/47 18/26/46 28/27/48
s 10
f 19/29/49 20/30/50 21/32/51
f 21/32/51 20/30/50 22/31/52
s 11
f 27/34/53 24/35/54 26/33/55
f 26/33/55 24/35/54 23/36/56
s 12
f 23/36/57 24/35/58 17/38/59
f 17/38/59 24/35/58 18/37/60
s 13
f 30/39/61 29/40/62 32/42/63
f 32/42/63 29/40/62 31/41/64
s 14
f 23/43/65 17/25/66 26/44/67
f 26/44/67 17/25/66 25/28/68
f 26/44/67 25/28/68 21/45/69
f 21/45/69 25/28/68 19/29/70
s 11
f 21/32/71 22/31/72 26/33/55
f 26/33/55 22/31/72 27/34/53
s 15
f 28/27/73 27/46/74 20/30/75
f 20/30/75 27/46/74 22/47/76
s 9
f 25/28/47 28/27/48 19/29/77
f 19/29/77 28/27/48 20/30/78
s 12
f 18/26/60 24/48/58 30/39/79
f 30/39/79 24/48/58 29/40/80
s 11
f 24/48/54 27/46/53 29/40/81
f 29/40/81 27/46/53 31/41/82
s 16
f 27/46/83 28/27/84 31/41/85
f 31/41/85 28/27/84 32/42/86
s 9
f 18/26/46 30/39/87 28/27/48
f 28/27/48 30/39/87 32/42/88
