# This file uses centimeters as units for non-parametric coordinates.

mtllib Super Shockwave Icon.mtl
g curveWarp1Set tweakSet1
v 0.102631 -2.732587 0.277549
v 0.555904 -3.053020 0.277549
v 0.425869 -2.205370 0.277549
v 0.917045 -2.463980 0.277549
v 0.425869 -2.205370 -0.277549
v 0.917045 -2.463980 -0.277549
v 0.102631 -2.732587 -0.277549
v 0.555904 -3.053020 -0.277549
v 0.757728 -1.404791 0.277549
v 0.938075 -0.557128 0.277549
v 0.960865 0.309209 0.277549
v 0.825333 1.165181 0.277549
v 0.536023 1.982101 0.277549
v 0.102631 2.732587 0.277549
v 1.287820 -1.569522 0.277549
v 1.489315 -0.622459 0.277549
v 1.514777 0.345468 0.277549
v 1.363352 1.301814 0.277549
v 1.040117 2.214529 0.277549
v 0.555904 3.053020 0.277549
v 1.287820 -1.569522 -0.277549
v 1.489315 -0.622459 -0.277549
v 1.514777 0.345468 -0.277549
v 1.363352 1.301814 -0.277549
v 1.040117 2.214529 -0.277549
v 0.555904 3.053020 -0.277549
v 0.757728 -1.404791 -0.277549
v 0.938075 -0.557128 -0.277549
v 0.960865 0.309209 -0.277549
v 0.825333 1.165181 -0.277549
v 0.536023 1.982101 -0.277549
v 0.102631 2.732587 -0.277549
v -0.719089 -2.118321 0.219970
v -0.359849 -2.372279 0.219970
v -0.462908 -1.700477 0.219970
v -0.073628 -1.905438 0.219970
v -0.462908 -1.700477 -0.219970
v -0.073628 -1.905438 -0.219970
v -0.719089 -2.118321 -0.219970
v -0.359849 -2.372279 -0.219970
v -0.199894 -1.065981 0.219970
v -0.056961 -0.394169 0.219970
v -0.038900 0.292443 0.219970
v -0.146315 0.970841 0.219970
v -0.375606 1.618287 0.219970
v -0.719089 2.213082 0.219970
v 0.220228 -1.196538 0.219970
v 0.379922 -0.445947 0.219970
v 0.400102 0.321180 0.219970
v 0.280091 1.079129 0.219970
v 0.023912 1.802498 0.219970
v -0.359849 2.467041 0.219970
v 0.220228 -1.196538 -0.219970
v 0.379922 -0.445947 -0.219970
v 0.400102 0.321180 -0.219970
v 0.280091 1.079129 -0.219970
v 0.023912 1.802498 -0.219970
v -0.359849 2.467041 -0.219970
v -0.199894 -1.065981 -0.219970
v -0.056961 -0.394169 -0.219970
v -0.038900 0.292443 -0.219970
v -0.146315 0.970841 -0.219970
v -0.375606 1.618287 -0.219970
v -0.719089 2.213082 -0.219970
v -1.514777 -1.734194 0.181227
v -1.218810 -1.943423 0.181227
v -1.303717 -1.389946 0.181227
v -0.983001 -1.558806 0.181227
v -1.303717 -1.389946 -0.181227
v -0.983001 -1.558806 -0.181227
v -1.514777 -1.734194 -0.181227
v -1.218810 -1.943423 -0.181227
v -1.087029 -0.867204 0.181227
v -0.969270 -0.313719 0.181227
v -0.954390 0.251959 0.181227
v -1.042885 0.810870 0.181227
v -1.231791 1.344281 0.181227
v -1.514777 1.834314 0.181227
v -0.740902 -0.974766 0.181227
v -0.609335 -0.356377 0.181227
v -0.592710 0.275634 0.181227
v -0.691583 0.900085 0.181227
v -0.902642 1.496046 0.181227
v -1.218810 2.043542 0.181227
v -0.740902 -0.974766 -0.181227
v -0.609335 -0.356377 -0.181227
v -0.592710 0.275634 -0.181227
v -0.691583 0.900085 -0.181227
v -0.902642 1.496046 -0.181227
v -1.218810 2.043542 -0.181227
v -1.087029 -0.867204 -0.181227
v -0.969270 -0.313719 -0.181227
v -0.954390 0.251959 -0.181227
v -1.042885 0.810870 -0.181227
v -1.231791 1.344281 -0.181227
v -1.514777 1.834314 -0.181227
vt 0.375000 0.000000
vt 0.625000 0.000000
vt 0.625000 0.250000
vt 0.375000 0.250000
vt 0.375000 0.250000
vt 0.625000 0.250000
vt 0.625000 0.500000
vt 0.375000 0.500000
vt 0.375000 0.500000
vt 0.625000 0.500000
vt 0.625000 0.750000
vt 0.375000 0.750000
vt 0.625000 1.000000
vt 0.375000 1.000000
vt 0.875000 0.000000
vt 0.875000 0.250000
vt 0.125000 0.000000
vt 0.125000 0.250000
vt 0.625000 0.250000
vt 0.375000 0.250000
vt 0.625000 0.250000
vt 0.375000 0.250000
vt 0.625000 0.250000
vt 0.375000 0.250000
vt 0.625000 0.250000
vt 0.375000 0.250000
vt 0.625000 0.250000
vt 0.375000 0.250000
vt 0.625000 0.500000
vt 0.625000 0.500000
vt 0.625000 0.500000
vt 0.625000 0.500000
vt 0.625000 0.500000
vt 0.375000 0.500000
vt 0.375000 0.500000
vt 0.375000 0.500000
vt 0.375000 0.500000
vt 0.375000 0.500000
vt 0.375000 0.000000
vt 0.625000 0.000000
vt 0.625000 0.250000
vt 0.375000 0.250000
vt 0.375000 0.250000
vt 0.625000 0.250000
vt 0.625000 0.500000
vt 0.375000 0.500000
vt 0.375000 0.500000
vt 0.625000 0.500000
vt 0.625000 0.750000
vt 0.375000 0.750000
vt 0.625000 1.000000
vt 0.375000 1.000000
vt 0.875000 0.000000
vt 0.875000 0.250000
vt 0.125000 0.000000
vt 0.125000 0.250000
vt 0.625000 0.250000
vt 0.375000 0.250000
vt 0.625000 0.250000
vt 0.375000 0.250000
vt 0.625000 0.250000
vt 0.375000 0.250000
vt 0.625000 0.250000
vt 0.375000 0.250000
vt 0.625000 0.250000
vt 0.375000 0.250000
vt 0.625000 0.500000
vt 0.625000 0.500000
vt 0.625000 0.500000
vt 0.625000 0.500000
vt 0.625000 0.500000
vt 0.375000 0.500000
vt 0.375000 0.500000
vt 0.375000 0.500000
vt 0.375000 0.500000
vt 0.375000 0.500000
vt 0.375000 0.000000
vt 0.625000 0.000000
vt 0.625000 0.250000
vt 0.375000 0.250000
vt 0.375000 0.250000
vt 0.625000 0.250000
vt 0.625000 0.500000
vt 0.375000 0.500000
vt 0.375000 0.500000
vt 0.625000 0.500000
vt 0.625000 0.750000
vt 0.375000 0.750000
vt 0.625000 1.000000
vt 0.375000 1.000000
vt 0.875000 0.000000
vt 0.875000 0.250000
vt 0.125000 0.000000
vt 0.125000 0.250000
vt 0.625000 0.250000
vt 0.375000 0.250000
vt 0.625000 0.250000
vt 0.375000 0.250000
vt 0.625000 0.250000
vt 0.375000 0.250000
vt 0.625000 0.250000
vt 0.375000 0.250000
vt 0.625000 0.250000
vt 0.375000 0.250000
vt 0.625000 0.500000
vt 0.625000 0.500000
vt 0.625000 0.500000
vt 0.625000 0.500000
vt 0.625000 0.500000
vt 0.375000 0.500000
vt 0.375000 0.500000
vt 0.375000 0.500000
vt 0.375000 0.500000
vt 0.375000 0.500000
vn 0.000000 0.000000 1.000000
vn 0.000000 0.000000 1.000000
vn -0.000000 0.000000 1.000000
vn 0.000000 0.000000 1.000000
vn -0.577253 0.816565 0.000000
vn -0.577254 0.816565 0.000000
vn -0.577254 0.816565 0.000000
vn -0.577255 0.816564 0.000000
vn 0.000000 0.000000 -1.000000
vn 0.000000 0.000000 -1.000000
vn 0.000000 0.000000 -1.000000
vn 0.000000 0.000000 -1.000000
vn -0.577254 -0.816565 0.000000
vn -0.577254 -0.816564 0.000000
vn -0.577254 -0.816564 0.000000
vn -0.577255 -0.816564 0.000000
vn 0.852527 -0.522683 0.000000
vn 0.852527 -0.522683 0.000000
vn 0.896792 -0.442452 0.000000
vn 0.896792 -0.442452 0.000000
vn -0.852527 0.522684 0.000000
vn -0.852526 0.522685 0.000000
vn -0.896792 0.442452 0.000000
vn -0.896792 0.442452 0.000000
vn 0.000000 0.000000 1.000000
vn 0.000000 0.000000 1.000000
vn 0.000000 0.000000 1.000000
vn -0.000000 0.000000 1.000000
vn -0.000000 0.000000 1.000000
vn -0.000000 0.000000 1.000000
vn 0.000000 0.000000 1.000000
vn 0.000000 0.000000 1.000000
vn 0.000000 0.000000 1.000000
vn 0.000000 0.000000 1.000000
vn 0.000000 0.000000 1.000000
vn 0.000000 0.000000 1.000000
vn 0.954952 -0.296760 0.000000
vn 0.954952 -0.296760 0.000000
vn 0.993050 -0.117692 0.000000
vn 0.993050 -0.117692 0.000000
vn 0.997864 0.065320 0.000000
vn 0.997864 0.065320 0.000000
vn 0.969234 0.246142 0.000000
vn 0.969234 0.246143 0.000000
vn 0.908118 0.418715 0.000000
vn 0.908117 0.418716 0.000000
vn 0.865976 0.500085 0.000000
vn 0.865976 0.500085 0.000000
vn 0.000000 0.000000 -1.000000
vn 0.000000 0.000000 -1.000000
vn -0.000000 0.000000 -1.000000
vn -0.000000 0.000000 -1.000000
vn 0.000000 0.000000 -1.000000
vn 0.000000 0.000000 -1.000000
vn 0.000000 0.000000 -1.000000
vn -0.000000 0.000000 -1.000000
vn 0.000000 0.000000 -1.000000
vn 0.000000 0.000000 -1.000000
vn -0.000000 0.000000 -1.000000
vn -0.000000 0.000000 -1.000000
vn -0.954952 0.296759 0.000000
vn -0.954952 0.296759 0.000000
vn -0.993050 0.117693 0.000000
vn -0.993050 0.117693 0.000000
vn -0.997864 -0.065320 0.000000
vn -0.997864 -0.065320 0.000000
vn -0.969234 -0.246143 0.000000
vn -0.969234 -0.246143 0.000000
vn -0.908117 -0.418716 0.000000
vn -0.908117 -0.418716 0.000000
vn -0.865976 -0.500085 0.000000
vn -0.865976 -0.500085 0.000000
vn 0.000000 0.000000 1.000000
vn -0.000000 0.000000 1.000000
vn -0.000000 0.000000 1.000000
vn 0.000000 0.000000 1.000000
vn -0.577255 0.816564 0.000000
vn -0.577256 0.816563 0.000000
vn -0.577256 0.816564 0.000000
vn -0.577256 0.816563 0.000000
vn 0.000000 0.000000 -1.000000
vn -0.000000 0.000000 -1.000000
vn -0.000000 0.000000 -1.000000
vn -0.000000 0.000000 -1.000000
vn -0.577255 -0.816564 0.000000
vn -0.577255 -0.816564 0.000000
vn -0.577255 -0.816564 0.000000
vn -0.577256 -0.816563 0.000000
vn 0.852525 -0.522687 0.000000
vn 0.852526 -0.522685 0.000000
vn 0.896792 -0.442452 0.000000
vn 0.896793 -0.442451 0.000000
vn -0.852525 0.522686 0.000000
vn -0.852526 0.522685 0.000000
vn -0.896792 0.442452 0.000000
vn -0.896793 0.442451 0.000000
vn -0.000000 0.000000 1.000000
vn 0.000000 0.000000 1.000000
vn 0.000000 0.000000 1.000000
vn 0.000000 0.000000 1.000000
vn 0.000000 0.000000 1.000000
vn 0.000000 0.000000 1.000000
vn -0.000000 0.000000 1.000000
vn -0.000000 0.000000 1.000000
vn 0.000000 0.000000 1.000000
vn 0.000000 0.000000 1.000000
vn 0.000000 0.000000 1.000000
vn 0.000000 0.000000 1.000000
vn 0.954952 -0.296760 0.000000
vn 0.954952 -0.296760 0.000000
vn 0.993050 -0.117692 0.000000
vn 0.993050 -0.117692 0.000000
vn 0.997864 0.065320 0.000000
vn 0.997864 0.065320 0.000000
vn 0.969234 0.246142 0.000000
vn 0.969234 0.246143 0.000000
vn 0.908117 0.418716 0.000000
vn 0.908117 0.418717 0.000000
vn 0.865976 0.500085 0.000000
vn 0.865976 0.500085 0.000000
vn 0.000000 0.000000 -1.000000
vn 0.000000 0.000000 -1.000000
vn 0.000000 0.000000 -1.000000
vn 0.000000 0.000000 -1.000000
vn 0.000000 0.000000 -1.000000
vn 0.000000 0.000000 -1.000000
vn -0.000000 0.000000 -1.000000
vn -0.000000 0.000000 -1.000000
vn 0.000000 0.000000 -1.000000
vn -0.000000 0.000000 -1.000000
vn -0.000000 0.000000 -1.000000
vn -0.000000 0.000000 -1.000000
vn -0.954952 0.296760 0.000000
vn -0.954952 0.296760 0.000000
vn -0.993050 0.117693 0.000000
vn -0.993050 0.117692 0.000000
vn -0.997864 -0.065322 0.000000
vn -0.997864 -0.065321 0.000000
vn -0.969234 -0.246142 0.000000
vn -0.969234 -0.246142 0.000000
vn -0.908117 -0.418716 0.000000
vn -0.908117 -0.418716 0.000000
vn -0.865977 -0.500085 0.000000
vn -0.865977 -0.500085 0.000000
vn 0.000000 0.000000 1.000000
vn 0.000000 0.000000 1.000000
vn 0.000000 0.000000 1.000000
vn 0.000000 0.000000 1.000000
vn -0.577255 0.816564 0.000000
vn -0.577254 0.816565 0.000000
vn -0.577254 0.816565 0.000000
vn -0.577253 0.816565 0.000000
vn 0.000000 0.000000 -1.000000
vn 0.000000 0.000000 -1.000000
vn 0.000000 0.000000 -1.000000
vn 0.000000 0.000000 -1.000000
vn -0.577253 -0.816565 0.000000
vn -0.577254 -0.816565 0.000000
vn -0.577254 -0.816565 0.000000
vn -0.577255 -0.816564 0.000000
vn 0.852525 -0.522687 0.000000
vn 0.852526 -0.522685 0.000000
vn 0.896793 -0.442450 0.000000
vn 0.896793 -0.442450 0.000000
vn -0.852525 0.522686 0.000000
vn -0.852526 0.522685 0.000000
vn -0.896792 0.442452 0.000000
vn -0.896793 0.442451 0.000000
vn 0.000000 0.000000 1.000000
vn 0.000000 0.000000 1.000000
vn 0.000000 0.000000 1.000000
vn 0.000000 0.000000 1.000000
vn -0.000000 0.000000 1.000000
vn -0.000000 0.000000 1.000000
vn 0.000000 0.000000 1.000000
vn 0.000000 0.000000 1.000000
vn 0.000000 0.000000 1.000000
vn 0.000000 0.000000 1.000000
vn 0.000000 0.000000 1.000000
vn 0.000000 0.000000 1.000000
vn 0.954952 -0.296760 0.000000
vn 0.954952 -0.296761 0.000000
vn 0.993050 -0.117691 0.000000
vn 0.993050 -0.117692 0.000000
vn 0.997864 0.065319 0.000000
vn 0.997864 0.065319 0.000000
vn 0.969234 0.246143 0.000000
vn 0.969233 0.246144 0.000000
vn 0.908117 0.418716 0.000000
vn 0.908117 0.418717 0.000000
vn 0.865977 0.500083 0.000000
vn 0.865978 0.500083 0.000000
vn 0.000000 0.000000 -1.000000
vn -0.000000 0.000000 -1.000000
vn 0.000000 0.000000 -1.000000
vn 0.000000 0.000000 -1.000000
vn 0.000000 0.000000 -1.000000
vn 0.000000 0.000000 -1.000000
vn -0.000000 0.000000 -1.000000
vn -0.000000 0.000000 -1.000000
vn 0.000000 0.000000 -1.000000
vn 0.000000 0.000000 -1.000000
vn 0.000000 0.000000 -1.000000
vn -0.000000 0.000000 -1.000000
vn -0.954952 0.296760 0.000000
vn -0.954952 0.296759 0.000000
vn -0.993050 0.117691 0.000000
vn -0.993050 0.117692 0.000000
vn -0.997864 -0.065319 0.000000
vn -0.997864 -0.065318 0.000000
vn -0.969234 -0.246142 0.000000
vn -0.969234 -0.246142 0.000000
vn -0.908117 -0.418717 0.000000
vn -0.908117 -0.418717 0.000000
vn -0.865976 -0.500086 0.000000
vn -0.865976 -0.500086 0.000000
s 1
g polySurface17
usemtl phong1SG
f 1/1/1 2/2/2 3/4/3
f 3/4/3 2/2/2 4/3/4
s 2
f 14/5/5 20/6/6 32/8/7
f 32/8/7 20/6/6 26/7/8
s 3
f 5/9/9 6/10/10 7/12/11
f 7/12/11 6/10/10 8/11/12
s 4
f 7/12/13 8/11/14 1/14/15
f 1/14/15 8/11/14 2/13/16
s 5
f 2/2/17 8/15/18 4/3/19
f 4/3/19 8/15/18 6/16/20
s 6
f 7/17/21 1/1/22 5/18/23
f 5/18/23 1/1/22 3/4/24
s 1
f 3/4/3 4/3/4 9/20/25
f 9/20/25 4/3/4 15/19/26
f 9/20/25 15/19/26 10/22/27
f 10/22/27 15/19/26 16/21/28
f 10/22/27 16/21/28 11/24/29
f 11/24/29 16/21/28 17/23/30
f 11/24/29 17/23/30 12/26/31
f 12/26/31 17/23/30 18/25/32
f 12/26/31 18/25/32 13/28/33
f 13/28/33 18/25/32 19/27/34
f 13/28/33 19/27/34 14/5/35
f 14/5/35 19/27/34 20/6/36
s 5
f 4/3/19 6/10/20 15/19/37
f 15/19/37 6/10/20 21/29/38
f 15/19/37 21/29/38 16/21/39
f 16/21/39 21/29/38 22/30/40
f 16/21/39 22/30/40 17/23/41
f 17/23/41 22/30/40 23/31/42
f 17/23/41 23/31/42 18/25/43
f 18/25/43 23/31/42 24/32/44
f 18/25/43 24/32/44 19/27/45
f 19/27/45 24/32/44 25/33/46
f 19/27/45 25/33/46 20/6/47
f 20/6/47 25/33/46 26/7/48
s 3
f 6/10/10 5/9/9 21/29/49
f 21/29/49 5/9/9 27/34/50
f 21/29/49 27/34/50 22/30/51
f 22/30/51 27/34/50 28/35/52
f 22/30/51 28/35/52 23/31/53
f 23/31/53 28/35/52 29/36/54
f 23/31/53 29/36/54 24/32/55
f 24/32/55 29/36/54 30/37/56
f 24/32/55 30/37/56 25/33/57
f 25/33/57 30/37/56 31/38/58
f 25/33/57 31/38/58 26/7/59
f 26/7/59 31/38/58 32/8/60
s 6
f 5/9/23 3/4/24 27/34/61
f 27/34/61 3/4/24 9/20/62
f 27/34/61 9/20/62 28/35/63
f 28/35/63 9/20/62 10/22/64
f 28/35/63 10/22/64 29/36/65
f 29/36/65 10/22/64 11/24/66
f 29/36/65 11/24/66 30/37/67
f 30/37/67 11/24/66 12/26/68
f 30/37/67 12/26/68 31/38/69
f 31/38/69 12/26/68 13/28/70
f 31/38/69 13/28/70 32/8/71
f 32/8/71 13/28/70 14/5/72
s 7
f 33/39/73 34/40/74 35/42/75
f 35/42/75 34/40/74 36/41/76
s 8
f 46/43/77 52/44/78 64/46/79
f 64/46/79 52/44/78 58/45/80
s 9
f 37/47/81 38/48/82 39/50/83
f 39/50/83 38/48/82 40/49/84
s 10
f 39/50/85 40/49/86 33/52/87
f 33/52/87 40/49/86 34/51/88
s 11
f 34/40/89 40/53/90 36/41/91
f 36/41/91 40/53/90 38/54/92
s 12
f 39/55/93 33/39/94 37/56/95
f 37/56/95 33/39/94 35/42/96
s 7
f 35/42/75 36/41/76 41/58/97
f 41/58/97 36/41/76 47/57/98
f 41/58/97 47/57/98 42/60/99
f 42/60/99 47/57/98 48/59/100
f 42/60/99 48/59/100 43/62/101
f 43/62/101 48/59/100 49/61/102
f 43/62/101 49/61/102 44/64/103
f 44/64/103 49/61/102 50/63/104
f 44/64/103 50/63/104 45/66/105
f 45/66/105 50/63/104 51/65/106
f 45/66/105 51/65/106 46/43/107
f 46/43/107 51/65/106 52/44/108
s 11
f 36/41/91 38/48/92 47/57/109
f 47/57/109 38/48/92 53/67/110
f 47/57/109 53/67/110 48/59/111
f 48/59/111 53/67/110 54/68/112
f 48/59/111 54/68/112 49/61/113
f 49/61/113 54/68/112 55/69/114
f 49/61/113 55/69/114 50/63/115
f 50/63/115 55/69/114 56/70/116
f 50/63/115 56/70/116 51/65/117
f 51/65/117 56/70/116 57/71/118
f 51/65/117 57/71/118 52/44/119
f 52/44/119 57/71/118 58/45/120
s 9
f 38/48/82 37/47/81 53/67/121
f 53/67/121 37/47/81 59/72/122
f 53/67/121 59/72/122 54/68/123
f 54/68/123 59/72/122 60/73/124
f 54/68/123 60/73/124 55/69/125
f 55/69/125 60/73/124 61/74/126
f 55/69/125 61/74/126 56/70/127
f 56/70/127 61/74/126 62/75/128
f 56/70/127 62/75/128 57/71/129
f 57/71/129 62/75/128 63/76/130
f 57/71/129 63/76/130 58/45/131
f 58/45/131 63/76/130 64/46/132
s 12
f 37/47/95 35/42/96 59/72/133
f 59/72/133 35/42/96 41/58/134
f 59/72/133 41/58/134 60/73/135
f 60/73/135 41/58/134 42/60/136
f 60/73/135 42/60/136 61/74/137
f 61/74/137 42/60/136 43/62/138
f 61/74/137 43/62/138 62/75/139
f 62/75/139 43/62/138 44/64/140
f 62/75/139 44/64/140 63/76/141
f 63/76/141 44/64/140 45/66/142
f 63/76/141 45/66/142 64/46/143
f 64/46/143 45/66/142 46/43/144
s 13
f 65/77/145 66/78/146 67/80/147
f 67/80/147 66/78/146 68/79/148
s 14
f 78/81/149 84/82/150 96/84/151
f 96/84/151 84/82/150 90/83/152
s 15
f 69/85/153 70/86/154 71/88/155
f 71/88/155 70/86/154 72/87/156
s 16
f 71/88/157 72/87/158 65/90/159
f 65/90/159 72/87/158 66/89/160
s 17
f 66/78/161 72/91/162 68/79/163
f 68/79/163 72/91/162 70/92/164
s 18
f 71/93/165 65/77/166 69/94/167
f 69/94/167 65/77/166 67/80/168
s 13
f 67/80/147 68/79/148 73/96/169
f 73/96/169 68/79/148 79/95/170
f 73/96/169 79/95/170 74/98/171
f 74/98/171 79/95/170 80/97/172
f 74/98/171 80/97/172 75/100/173
f 75/100/173 80/97/172 81/99/174
f 75/100/173 81/99/174 76/102/175
f 76/102/175 81/99/174 82/101/176
f 76/102/175 82/101/176 77/104/177
f 77/104/177 82/101/176 83/103/178
f 77/104/177 83/103/178 78/81/179
f 78/81/179 83/103/178 84/82/180
s 17
f 68/79/163 70/86/164 79/95/181
f 79/95/181 70/86/164 85/105/182
f 79/95/181 85/105/182 80/97/183
f 80/97/183 85/105/182 86/106/184
f 80/97/183 86/106/184 81/99/185
f 81/99/185 86/106/184 87/107/186
f 81/99/185 87/107/186 82/101/187
f 82/101/187 87/107/186 88/108/188
f 82/101/187 88/108/188 83/103/189
f 83/103/189 88/108/188 89/109/190
f 83/103/189 89/109/190 84/82/191
f 84/82/191 89/109/190 90/83/192
s 15
f 70/86/154 69/85/153 85/105/193
f 85/105/193 69/85/153 91/110/194
f 85/105/193 91/110/194 86/106/195
f 86/106/195 91/110/194 92/111/196
f 86/106/195 92/111/196 87/107/197
f 87/107/197 92/111/196 93/112/198
f 87/107/197 93/112/198 88/108/199
f 88/108/199 93/112/198 94/113/200
f 88/108/199 94/113/200 89/109/201
f 89/109/201 94/113/200 95/114/202
f 89/109/201 95/114/202 90/83/203
f 90/83/203 95/114/202 96/84/204
s 18
f 69/85/167 67/80/168 91/110/205
f 91/110/205 67/80/168 73/96/206
f 91/110/205 73/96/206 92/111/207
f 92/111/207 73/96/206 74/98/208
f 92/111/207 74/98/208 93/112/209
f 93/112/209 74/98/208 75/100/210
f 93/112/209 75/100/210 94/113/211
f 94/113/211 75/100/210 76/102/212
f 94/113/211 76/102/212 95/114/213
f 95/114/213 76/102/212 77/104/214
f 95/114/213 77/104/214 96/84/215
f 96/84/215 77/104/214 78/81/216
